<?xml version="1.0" encoding="UTF-8"?>
<svg id="_レイヤー_2" data-name="レイヤー 2" xmlns="http://www.w3.org/2000/svg" xmlns:xlink="http://www.w3.org/1999/xlink" viewBox="0 0 768.56 456.92">
  <defs>
    <style>
      .cls-1, .cls-2 {
        fill: #122346;
      }

      .cls-3 {
        stroke: #898989;
      }

      .cls-3, .cls-4, .cls-5, .cls-6, .cls-7, .cls-8, .cls-9, .cls-10, .cls-11, .cls-12, .cls-13, .cls-14, .cls-15, .cls-16 {
        fill: none;
      }

      .cls-3, .cls-14 {
        stroke-width: .72px;
      }

      .cls-17 {
        fill: #fff;
      }

      .cls-4, .cls-5, .cls-7, .cls-18, .cls-8, .cls-19, .cls-9, .cls-20, .cls-21, .cls-11, .cls-2, .cls-13, .cls-16 {
        stroke: #fff;
      }

      .cls-4, .cls-5, .cls-18, .cls-20, .cls-21, .cls-16 {
        stroke-miterlimit: 10;
      }

      .cls-22 {
        fill: url(#_10_lpi_10_5-2);
      }

      .cls-5, .cls-11, .cls-15 {
        stroke-width: .5px;
      }

      .cls-7 {
        stroke-linecap: square;
      }

      .cls-7, .cls-18, .cls-8, .cls-19, .cls-9, .cls-20, .cls-21, .cls-2, .cls-12, .cls-13, .cls-16 {
        stroke-width: .25px;
      }

      .cls-7, .cls-19, .cls-9, .cls-2, .cls-12 {
        stroke-linejoin: bevel;
      }

      .cls-23 {
        fill: #595757;
      }

      .cls-24 {
        fill: #00a29a;
      }

      .cls-25 {
        fill: url(#_10_lpi_10_5-3);
      }

      .cls-18, .cls-26 {
        fill: url(#_立ち入り禁止);
      }

      .cls-19, .cls-27, .cls-20 {
        fill: url(#_10_lpi_10_5);
      }

      .cls-28 {
        fill: #e8390d;
      }

      .cls-29 {
        fill: #164b9f;
      }

      .cls-10 {
        stroke-width: .75px;
      }

      .cls-10, .cls-12 {
        stroke: #231815;
      }

      .cls-21 {
        fill: url(#_10_lpi_10_5-4);
      }

      .cls-11, .cls-12, .cls-13 {
        stroke-linecap: round;
      }

      .cls-30 {
        fill: #9fa0a0;
      }

      .cls-13 {
        stroke-linejoin: round;
      }

      .cls-14 {
        stroke: #828283;
      }

      .cls-15 {
        stroke: #595757;
      }

      .cls-31 {
        fill: #898989;
      }
    </style>
    <pattern id="_10_lpi_10_5" data-name="10 lpi 10 % 5" x="0" y="0" width="72" height="72" patternTransform="translate(-5120.56 -8135.4) rotate(-47.22) scale(.25) skewX(-4.43)" patternUnits="userSpaceOnUse" viewBox="0 0 72 72">
      <g>
        <rect class="cls-6" width="72" height="72"/>
        <g>
          <line class="cls-3" x1="71.75" y1="68.4" x2="144.25" y2="68.4"/>
          <line class="cls-3" x1="71.75" y1="54" x2="144.25" y2="54"/>
          <line class="cls-3" x1="71.75" y1="39.6" x2="144.25" y2="39.6"/>
          <line class="cls-3" x1="71.75" y1="25.2" x2="144.25" y2="25.2"/>
          <line class="cls-3" x1="71.75" y1="10.8" x2="144.25" y2="10.8"/>
          <line class="cls-3" x1="71.75" y1="61.2" x2="144.25" y2="61.2"/>
          <line class="cls-3" x1="71.75" y1="46.8" x2="144.25" y2="46.8"/>
          <line class="cls-3" x1="71.75" y1="32.4" x2="144.25" y2="32.4"/>
          <line class="cls-3" x1="71.75" y1="18" x2="144.25" y2="18"/>
          <line class="cls-3" x1="71.75" y1="3.6" x2="144.25" y2="3.6"/>
        </g>
        <g>
          <line class="cls-3" x1="-.25" y1="68.4" x2="72.25" y2="68.4"/>
          <line class="cls-3" x1="-.25" y1="54" x2="72.25" y2="54"/>
          <line class="cls-3" x1="-.25" y1="39.6" x2="72.25" y2="39.6"/>
          <line class="cls-3" x1="-.25" y1="25.2" x2="72.25" y2="25.2"/>
          <line class="cls-3" x1="-.25" y1="10.8" x2="72.25" y2="10.8"/>
          <line class="cls-3" x1="-.25" y1="61.2" x2="72.25" y2="61.2"/>
          <line class="cls-3" x1="-.25" y1="46.8" x2="72.25" y2="46.8"/>
          <line class="cls-3" x1="-.25" y1="32.4" x2="72.25" y2="32.4"/>
          <line class="cls-3" x1="-.25" y1="18" x2="72.25" y2="18"/>
          <line class="cls-3" x1="-.25" y1="3.6" x2="72.25" y2="3.6"/>
        </g>
        <g>
          <line class="cls-3" x1="-72.25" y1="68.4" x2=".25" y2="68.4"/>
          <line class="cls-3" x1="-72.25" y1="54" x2=".25" y2="54"/>
          <line class="cls-3" x1="-72.25" y1="39.6" x2=".25" y2="39.6"/>
          <line class="cls-3" x1="-72.25" y1="25.2" x2=".25" y2="25.2"/>
          <line class="cls-3" x1="-72.25" y1="10.8" x2=".25" y2="10.8"/>
          <line class="cls-3" x1="-72.25" y1="61.2" x2=".25" y2="61.2"/>
          <line class="cls-3" x1="-72.25" y1="46.8" x2=".25" y2="46.8"/>
          <line class="cls-3" x1="-72.25" y1="32.4" x2=".25" y2="32.4"/>
          <line class="cls-3" x1="-72.25" y1="18" x2=".25" y2="18"/>
          <line class="cls-3" x1="-72.25" y1="3.6" x2=".25" y2="3.6"/>
        </g>
      </g>
    </pattern>
    <pattern id="_立ち入り禁止" data-name="立ち入り禁止" x="0" y="0" width="72" height="72" patternTransform="translate(-5120.56 -8135.4) rotate(-47.22) scale(.25) skewX(-4.43)" patternUnits="userSpaceOnUse" viewBox="0 0 72 72">
      <g>
        <rect class="cls-6" width="72" height="72"/>
        <g>
          <line class="cls-14" x1="71.75" y1="68.4" x2="144.25" y2="68.4"/>
          <line class="cls-14" x1="71.75" y1="54" x2="144.25" y2="54"/>
          <line class="cls-14" x1="71.75" y1="39.6" x2="144.25" y2="39.6"/>
          <line class="cls-14" x1="71.75" y1="25.2" x2="144.25" y2="25.2"/>
          <line class="cls-14" x1="71.75" y1="10.8" x2="144.25" y2="10.8"/>
          <line class="cls-14" x1="71.75" y1="61.2" x2="144.25" y2="61.2"/>
          <line class="cls-14" x1="71.75" y1="46.8" x2="144.25" y2="46.8"/>
          <line class="cls-14" x1="71.75" y1="32.4" x2="144.25" y2="32.4"/>
          <line class="cls-14" x1="71.75" y1="18" x2="144.25" y2="18"/>
          <line class="cls-14" x1="71.75" y1="3.6" x2="144.25" y2="3.6"/>
        </g>
        <g>
          <line class="cls-14" x1="-.25" y1="68.4" x2="72.25" y2="68.4"/>
          <line class="cls-14" x1="-.25" y1="54" x2="72.25" y2="54"/>
          <line class="cls-14" x1="-.25" y1="39.6" x2="72.25" y2="39.6"/>
          <line class="cls-14" x1="-.25" y1="25.2" x2="72.25" y2="25.2"/>
          <line class="cls-14" x1="-.25" y1="10.8" x2="72.25" y2="10.8"/>
          <line class="cls-14" x1="-.25" y1="61.2" x2="72.25" y2="61.2"/>
          <line class="cls-14" x1="-.25" y1="46.8" x2="72.25" y2="46.8"/>
          <line class="cls-14" x1="-.25" y1="32.4" x2="72.25" y2="32.4"/>
          <line class="cls-14" x1="-.25" y1="18" x2="72.25" y2="18"/>
          <line class="cls-14" x1="-.25" y1="3.6" x2="72.25" y2="3.6"/>
        </g>
        <g>
          <line class="cls-14" x1="-72.25" y1="68.4" x2=".25" y2="68.4"/>
          <line class="cls-14" x1="-72.25" y1="54" x2=".25" y2="54"/>
          <line class="cls-14" x1="-72.25" y1="39.6" x2=".25" y2="39.6"/>
          <line class="cls-14" x1="-72.25" y1="25.2" x2=".25" y2="25.2"/>
          <line class="cls-14" x1="-72.25" y1="10.8" x2=".25" y2="10.8"/>
          <line class="cls-14" x1="-72.25" y1="61.2" x2=".25" y2="61.2"/>
          <line class="cls-14" x1="-72.25" y1="46.8" x2=".25" y2="46.8"/>
          <line class="cls-14" x1="-72.25" y1="32.4" x2=".25" y2="32.4"/>
          <line class="cls-14" x1="-72.25" y1="18" x2=".25" y2="18"/>
          <line class="cls-14" x1="-72.25" y1="3.6" x2=".25" y2="3.6"/>
        </g>
      </g>
    </pattern>
    <pattern id="_10_lpi_10_5-2" data-name="10 lpi 10 % 5" patternTransform="translate(-5170.23 -8079.23) rotate(-47.79) scale(.26) skewX(-5.55)" xlink:href="#_10_lpi_10_5"/>
    <pattern id="_10_lpi_10_5-3" data-name="10 lpi 10 % 5" patternTransform="translate(-5170.23 -8079.23) rotate(-47.79) scale(.26) skewX(-5.55)" xlink:href="#_10_lpi_10_5"/>
    <pattern id="_10_lpi_10_5-4" data-name="10 lpi 10 % 5" patternTransform="translate(-3394.98 -8135.4) rotate(-33.21) scale(.34 .31) skewX(21.81)" xlink:href="#_10_lpi_10_5"/>
  </defs>
  <g id="_レイヤー_1-2" data-name="レイヤー 1">
    <g id="_中庭" data-name="中庭">
      <path class="cls-13" d="M345.03,233.34v-93.11c26.62,0,53.23,0,79.85,0,17.59,0,35.18,0,52.77,0v93.11h-132.62Z"/>
      <g>
        <path class="cls-17" d="M412.92,183.9v2.25s-.36,0-.36,0v-.27s-1.38,0-1.38,0v1.56s-.37,0-.37,0v-1.56s-1.38,0-1.38,0v.3s-.35,0-.35,0v-2.27s1.72,0,1.72,0v-.86s.37,0,.37,0v.86s1.75,0,1.75,0ZM410.81,185.52v-1.27s-1.38,0-1.38,0v1.27h1.38ZM412.56,185.52v-1.27h-1.38s0,1.27,0,1.27h1.38Z"/>
        <path class="cls-17" d="M414.3,184.9c0,.74-.05,1.82-.43,2.55-.06-.06-.21-.16-.3-.2.36-.69.39-1.65.39-2.35v-1.41h1.8v-.44h.37v.44h1.82s0,.32,0,.32h-3.65s0,1.09,0,1.09ZM415.79,185.26c-.09.6-.25,1.06-.49,1.42.35.29.83.36,1.42.36.16,0,1.11,0,1.32,0-.05.08-.1.23-.12.32h-1.22c-.68,0-1.2-.08-1.59-.42-.18.22-.39.38-.63.51-.05-.07-.16-.2-.23-.25.24-.12.46-.28.63-.5-.15-.21-.28-.49-.38-.84l.26-.09c.08.28.18.5.31.67.15-.26.27-.57.35-.95h-.56l-.09.14-.28-.1c.22-.33.47-.76.65-1.08h-.66s0-.3,0-.3h.85s.06-.01.06-.01l.23.08c-.15.28-.36.64-.57.98h.55s.19.06.19.06ZM417.06,185.46v.79s.79,0,.79,0v.31h-1.87s0-.31,0-.31h.74v-.79h-.84s0-.31,0-.31h.84s0-.61,0-.61c-.24.04-.48.07-.7.09-.01-.07-.06-.18-.1-.25.57-.07,1.25-.19,1.6-.34l.25.24c-.2.08-.46.15-.73.2v.67h.89s0,.31,0,.31h-.89Z"/>
      </g>
    </g>
    <line class="cls-9" x1="641.1" y1="309.45" x2="649.48" y2="309.45"/>
    <line class="cls-9" x1="641.1" y1="287.72" x2="649.48" y2="287.72"/>
    <line class="cls-9" x1="641.1" y1="285.31" x2="649.48" y2="285.31"/>
    <line class="cls-9" x1="641.1" y1="282.89" x2="649.48" y2="282.89"/>
    <line class="cls-9" x1="641.1" y1="280.47" x2="649.48" y2="280.47"/>
    <line class="cls-9" x1="641.1" y1="290.11" x2="649.48" y2="290.11"/>
    <line class="cls-9" x1="641.1" y1="297.39" x2="649.48" y2="297.39"/>
    <line class="cls-9" x1="641.1" y1="294.97" x2="649.48" y2="294.97"/>
    <line class="cls-9" x1="641.1" y1="292.56" x2="649.48" y2="292.56"/>
    <line class="cls-9" x1="641.1" y1="299.78" x2="649.48" y2="299.78"/>
    <line class="cls-9" x1="641.1" y1="307.03" x2="649.48" y2="307.03"/>
    <line class="cls-9" x1="641.1" y1="304.61" x2="649.48" y2="304.61"/>
    <line class="cls-9" x1="641.1" y1="302.2" x2="649.48" y2="302.2"/>
    <line class="cls-9" x1="641.1" y1="309.42" x2="649.48" y2="309.42"/>
    <rect class="cls-20" x="599.4" y="250.57" width="17.09" height="14.32"/>
    <polygon class="cls-26" points="425.01 117.55 424.89 127.58 477.86 127.58 477.86 161.32 484.29 161.32 484.29 117.55 425.01 117.55"/>
    <polygon class="cls-27" points="342.65 112.13 376.47 112.13 376.47 117.55 342.65 117.55 342.65 112.13"/>
    <line class="cls-9" x1="497.71" y1="137.2" x2="497.71" y2="117.1"/>
    <rect class="cls-19" x="633.69" y="194.56" width="12.25" height="6.61"/>
    <polygon class="cls-27" points="237.06 44.99 237.06 33.31 242.47 33.31 242.47 44.99 237.06 44.99"/>
    <polygon class="cls-27" points="546.9 155.16 546.9 137.2 552.31 137.2 552.31 155.16 546.9 155.16"/>
    <polyline class="cls-27" points="740.56 257.73 735.15 254.89 735.15 242.14 740.56 242.14"/>
    <polygon class="cls-27" points="376.41 112.13 425.01 112.13 425.01 117.55 376.41 117.55 376.41 112.13"/>
    <polygon class="cls-27" points="311.39 241.64 311.39 229.96 316.8 229.96 316.8 241.64 311.39 241.64"/>
    <polygon class="cls-22" points=".04 44.91 .04 33.31 4.41 33.31 4.41 44.91 .04 44.91"/>
    <polygon class="cls-25" points="4.41 28.83 16.02 28.83 16.02 33.2 4.41 33.2 4.41 28.83"/>
    <polygon class="cls-27" points="54.53 .13 60.23 .13 60.23 10.59 54.53 10.59 54.53 .13"/>
    <rect class="cls-19" x="16.02" y=".13" width="21.46" height="33.07"/>
    <rect class="cls-9" x="37.48" y="22.04" width="9.81" height="6.79"/>
    <rect class="cls-9" x="173.23" y="12.75" width="9.81" height="6.79"/>
    <polygon class="cls-16" points="196.06 16.63 188.42 16.63 188.42 3.81 196.06 7.48 196.06 16.63"/>
    <polygon class="cls-19" points="54.42 .13 37.48 .13 37.48 15.26 37.48 16.66 37.48 22.04 50.68 22.04 50.68 16.66 54.42 16.66 54.42 .13"/>
    <line class="cls-9" x1="54.53" y1="31.25" x2="60.23" y2="31.25"/>
    <line class="cls-9" x1="54.53" y1="29.3" x2="60.23" y2="29.3"/>
    <line class="cls-9" x1="54.53" y1="27.35" x2="60.23" y2="27.35"/>
    <line class="cls-9" x1="54.53" y1="25.4" x2="60.23" y2="25.4"/>
    <line class="cls-9" x1="54.55" y1="25.4" x2="60.26" y2="25.4"/>
    <line class="cls-9" x1="54.53" y1="23.45" x2="60.23" y2="23.45"/>
    <line class="cls-9" x1="54.53" y1="21.5" x2="60.23" y2="21.5"/>
    <polygon class="cls-27" points="107.63 .13 113.34 .13 113.34 10.59 107.63 10.59 107.63 .13"/>
    <line class="cls-16" x1="107.63" y1="31.25" x2="113.34" y2="31.25"/>
    <line class="cls-16" x1="107.63" y1="29.3" x2="113.34" y2="29.3"/>
    <line class="cls-16" x1="107.63" y1="27.35" x2="113.34" y2="27.35"/>
    <line class="cls-16" x1="107.63" y1="25.4" x2="113.34" y2="25.4"/>
    <line class="cls-16" x1="107.65" y1="25.4" x2="113.36" y2="25.4"/>
    <line class="cls-16" x1="107.63" y1="23.45" x2="113.34" y2="23.45"/>
    <line class="cls-16" x1="107.63" y1="21.5" x2="113.34" y2="21.5"/>
    <line class="cls-16" x1="160.73" y1="31.25" x2="166.44" y2="31.25"/>
    <line class="cls-16" x1="160.73" y1="29.3" x2="166.44" y2="29.3"/>
    <line class="cls-16" x1="160.73" y1="27.35" x2="166.44" y2="27.35"/>
    <line class="cls-16" x1="160.73" y1="25.4" x2="166.44" y2="25.4"/>
    <line class="cls-16" x1="160.76" y1="25.4" x2="166.46" y2="25.4"/>
    <line class="cls-16" x1="160.73" y1="23.45" x2="166.44" y2="23.45"/>
    <line class="cls-16" x1="160.73" y1="21.5" x2="166.44" y2="21.5"/>
    <polyline class="cls-9" points="0 44.99 225.37 44.99 225.37 129.27"/>
    <polyline class="cls-9" points="0 33.2 4.41 33.2 4.41 28.83"/>
    <line class="cls-16" x1="226.16" y1="25.93" x2="221.11" y2="25.93"/>
    <line class="cls-16" x1="226.16" y1="28.34" x2="221.11" y2="28.34"/>
    <line class="cls-16" x1="226.16" y1="30.76" x2="221.11" y2="30.76"/>
    <line class="cls-16" x1="226.16" y1="21.09" x2="221.11" y2="21.09"/>
    <line class="cls-16" x1="226.16" y1="23.51" x2="221.11" y2="23.51"/>
    <line class="cls-16" x1="226.16" y1="25.93" x2="221.11" y2="25.93"/>
    <polyline class="cls-16" points="226.16 19.47 226.16 33.2 226.16 19.47 232.27 19.47 236.95 19.47 236.95 33.31 242.47 33.31"/>
    <g>
      <path class="cls-31" d="M222.77,7.06v4.8s-.53,0-.53,0v-4.8s.53,0,.53,0Z"/>
      <path class="cls-31" d="M225.19,8.46c-.12.36-.27.81-.41,1.16.3.36.36.68.36.95,0,.23-.05.42-.16.5-.06.04-.13.07-.22.08-.08,0-.18,0-.27,0,0-.08-.04-.2-.08-.29.09,0,.17,0,.23,0,.06,0,.1-.01.14-.03.06-.05.08-.18.08-.31,0-.23-.08-.54-.37-.88.11-.32.23-.72.32-1.02h-.54s0,3.55,0,3.55h-.29v-3.85s.94,0,.94,0h.04s.22.12.22.12ZM226.45,9.76c-.44.11-.89.23-1.25.31l-.09-.28c.09-.02.18-.04.29-.06v-1.52s.3,0,.3,0v.53h.69v.27h-.69v.65c.23-.05.48-.11.73-.17l.03.26ZM226.61,9.97c-.05.13-.1.26-.15.38h1.16s0,1.82,0,1.82h-.32s0-.15,0-.15h-1.51v.16h-.3s0-1.84,0-1.84h.66c.05-.15.11-.32.14-.45l.33.07ZM227.3,10.63h-1.51s0,.42,0,.42h1.51s0-.42,0-.42ZM227.3,11.75v-.44s-1.51,0-1.51,0v.44s1.51,0,1.51,0ZM227.45,9.72c.11,0,.13-.05.14-.42.07.05.19.1.27.12-.03.46-.12.57-.38.57h-.5c-.33,0-.41-.08-.41-.41v-1.37s.3,0,.3,0v.65c.25-.11.51-.25.66-.38l.23.22c-.25.16-.59.31-.89.43v.46c0,.11.02.13.15.13h.43Z"/>
      <path class="cls-31" d="M228.87,11.44v.75s-.31,0-.31,0v-.69s-.31.05-.31.05l-.06-.32.36-.06v-2.69s.18.06.18.06c.39-.11.81-.25,1.04-.39l.28.23c-.33.16-.78.3-1.19.4v.51h1.02s0,.3,0,.3h-1.02s0,.54,0,.54h1.05s0,.3,0,.3h-1.05s0,.67,0,.67c.36-.06.77-.13,1.17-.2l.02.31-1.19.21ZM232.08,10.18c-.15.52-.41.93-.74,1.25.27.22.59.38.97.48-.08.06-.17.19-.22.28-.38-.12-.72-.3-1-.54-.34.25-.72.43-1.14.56-.04-.08-.12-.22-.18-.29.39-.1.77-.27,1.08-.5-.24-.27-.42-.59-.56-.95l.22-.06h-.4v-.3h1.69s.06-.01.06-.01l.21.08ZM230.67,8.97c0,.36-.09.79-.53,1.07-.04-.06-.16-.18-.22-.23.39-.24.45-.56.45-.85v-.62s1.3,0,1.3,0v1.08c0,.08,0,.13.03.15.02.01.04.02.07.02h.13s.08,0,.09-.01c.02-.01.04-.04.05-.1,0-.07.02-.2.02-.38.06.05.17.1.25.12,0,.17-.02.37-.04.44-.03.08-.07.12-.13.15-.05.03-.14.04-.21.04h-.23c-.08,0-.19-.02-.24-.08-.06-.05-.09-.13-.09-.37v-.77h-.7v.34ZM230.58,10.41c.12.31.29.58.51.81.23-.23.42-.49.56-.81h-1.07Z"/>
    </g>
    <line class="cls-19" x1="54.42" y1="33.2" x2="54.42" y2=".13"/>
    <polyline class="cls-16" points="173.19 6.61 173.19 33.2 167.31 33.2 166.44 33.2 166.44 19.55"/>
    <line class="cls-16" x1="113.36" y1="33.2" x2="160.73" y2="33.2"/>
    <polyline class="cls-9" points="275.47 117.58 236.96 117.58 236.96 44.99 242.47 44.99"/>
    <line class="cls-9" x1="225.38" y1="216.67" x2="225.38" y2="112.13"/>
    <polyline class="cls-9" points="342.61 112.13 342.61 117.55 236.96 117.58 236.96 111.69"/>
    <polyline class="cls-7" points="16.02 33.2 16.02 .13 54.42 .13"/>
    <polygon class="cls-19" points="188.42 3.81 188.42 12.76 173.19 12.76 173.19 6.61 160.85 6.61 160.85 .13 180.78 .13 188.42 3.81"/>
    <polygon class="cls-19" points="188.42 16.63 188.42 22.04 190.52 22.04 190.52 27.3 188.42 27.3 188.42 33.2 196.06 33.2 196.06 16.63 188.42 16.63"/>
    <polyline class="cls-20" points="180.78 .13 221.11 19.54 221.11 33.2 196.06 33.2 196.06 7.48"/>
    <polyline class="cls-16" points="229.56 15.27 221.11 15.27 221.11 19.54 180.78 .13 177.04 .13 159.33 .13 113.44 .13"/>
    <g>
      <path class="cls-31" d="M304.22,224.44h-2.05s-.53,1.16-.53,1.16h-.79l2.39-5.09,2.28,5.08h-.79l-.5-1.16ZM303.92,223.75l-.71-1.63-.74,1.63h1.45Z"/>
      <path class="cls-31" d="M307.34,222.2c-.12.36-.27.81-.41,1.16.3.36.36.68.36.95,0,.24-.05.42-.16.5-.06.04-.13.07-.22.08-.08,0-.18,0-.27,0,0-.08-.04-.2-.08-.29.09,0,.17,0,.23,0,.06,0,.1-.01.14-.03.06-.05.08-.18.08-.31,0-.23-.08-.54-.37-.88.12-.32.23-.72.32-1.02h-.54v3.55s-.29,0-.29,0v-3.85s.94,0,.94,0h.04s.22.12.22.12ZM308.61,223.49c-.44.11-.89.23-1.25.32l-.09-.28c.09-.02.18-.04.29-.06v-1.52s.3,0,.3,0v.53h.69s0,.27,0,.27h-.69s0,.65,0,.65c.23-.05.48-.11.73-.17l.03.26ZM308.76,223.71c-.05.13-.1.26-.15.38h1.16v1.82s-.32,0-.32,0v-.15h-1.51v.16s-.3,0-.3,0v-1.84s.66,0,.66,0c.05-.15.11-.32.14-.45l.33.07ZM309.45,224.37h-1.51v.42h1.51v-.42ZM309.45,225.48v-.44h-1.51v.44h1.51ZM309.6,223.46c.11,0,.13-.05.14-.42.07.05.19.1.27.12-.04.46-.12.57-.38.57h-.5c-.33,0-.41-.08-.41-.41v-1.37s.3,0,.3,0v.65c.25-.11.51-.25.66-.38l.23.22c-.25.16-.59.31-.89.43v.46c0,.12.02.13.15.13h.43Z"/>
      <path class="cls-31" d="M311.03,225.18v.75s-.31,0-.31,0v-.7s-.31.05-.31.05l-.06-.32.36-.06v-2.69s.18.06.18.06c.39-.11.81-.25,1.04-.39l.28.23c-.33.16-.78.3-1.19.4v.51s1.02,0,1.02,0v.3h-1.02s0,.54,0,.54h1.05s0,.3,0,.3h-1.05s0,.67,0,.67c.36-.06.77-.13,1.17-.2l.02.31-1.19.21ZM314.23,223.92c-.15.52-.41.93-.74,1.25.27.22.59.38.97.48-.08.06-.17.19-.22.28-.39-.12-.72-.3-1-.54-.34.25-.72.43-1.14.56-.04-.08-.12-.22-.18-.29.39-.1.77-.27,1.08-.5-.24-.27-.43-.59-.56-.95l.22-.06h-.4v-.3h1.69s.06-.01.06-.01l.21.08ZM312.82,222.71c0,.36-.09.79-.53,1.07-.04-.06-.16-.18-.22-.23.39-.24.45-.56.45-.85v-.62h1.31v1.08c0,.08,0,.13.03.15.02.01.04.02.07.02h.13s.08,0,.09-.01c.02-.01.04-.04.05-.1,0-.07.02-.2.02-.38.06.05.17.1.25.12,0,.17-.02.37-.04.44-.03.08-.07.12-.13.15-.05.03-.14.04-.21.04h-.23c-.08,0-.19-.02-.24-.08-.06-.05-.09-.13-.09-.37v-.77h-.7v.34ZM312.74,224.15c.12.3.29.58.51.81.23-.23.42-.49.56-.81h-1.07Z"/>
    </g>
    <rect class="cls-19" x="316.83" y="216.67" width="19.56" height="13.29"/>
    <polygon class="cls-9" points="352.02 241.69 352.02 253.46 337.41 253.46 337.41 260.36 316.7 260.36 316.7 241.69 352.02 241.69"/>
    <rect class="cls-9" x="357.91" y="241.69" width="15.07" height="5.88"/>
    <rect class="cls-19" x="352.03" y="241.69" width="5.9" height="11.77"/>
    <rect class="cls-19" x="395.26" y="241.69" width="12.44" height="11.77"/>
    <rect class="cls-19" x="373.18" y="265.07" width="27.75" height="19.24"/>
    <polygon class="cls-19" points="434.42 278.44 434.42 265.07 400.96 265.07 400.96 284.3 414.76 284.3 414.76 291.34 434.47 291.34 434.47 278.44 434.42 278.44"/>
    <rect class="cls-19" x="407.71" y="241.69" width="12.44" height="11.77"/>
    <rect class="cls-9" x="357.91" y="247.57" width="15.07" height="5.88"/>
    <line class="cls-9" x1="395.26" y1="244.12" x2="383.63" y2="244.12"/>
    <line class="cls-9" x1="395.26" y1="246.54" x2="383.63" y2="246.54"/>
    <line class="cls-9" x1="395.26" y1="248.96" x2="383.63" y2="248.96"/>
    <polyline class="cls-9" points="395.22 251.37 389.4 251.37 389.4 244.14"/>
    <polyline class="cls-9" points="395.26 241.69 383.63 241.69 383.63 253.46"/>
    <polyline class="cls-9" points="311.39 241.64 316.8 241.64 316.7 260.36 373.18 260.36 373.18 284.3 414.76 284.3 414.76 291.34 441.75 291.34"/>
    <polyline class="cls-9" points="311.39 229.96 316.83 229.96 316.83 216.67 225.38 216.67"/>
    <line class="cls-7" x1="230.05" y1="216.67" x2="225.38" y2="216.67"/>
    <line class="cls-9" x1="372.98" y1="241.69" x2="383.63" y2="241.69"/>
    <line class="cls-8" x1="352.02" y1="241.64" x2="372.98" y2="241.64"/>
    <line class="cls-8" x1="383.63" y1="241.64" x2="441.75" y2="241.64"/>
    <polyline class="cls-9" points="438.53 241.64 441.75 241.64 441.75 291.34 439.56 291.34"/>
    <polyline class="cls-9" points="376.43 112.13 376.43 117.55 261.86 117.55"/>
    <g id="_ピロティ" data-name="ピロティ">
      <polygon class="cls-21" points="237.02 129.13 237.02 143.72 237.02 158.31 237.02 172.9 237.02 187.49 237.02 202.08 237.02 216.67 320.93 216.67 320.93 202.08 320.93 187.49 320.93 172.9 320.93 158.31 320.93 143.72 320.93 129.13 237.02 129.13"/>
      <rect class="cls-1" x="269.16" y="170.77" width="20.12" height="5.4"/>
      <g>
        <path class="cls-17" d="M271.7,172.02v1.09c.57-.14,1.33-.37,1.83-.59.14-.06.29-.13.42-.22l.17.38c-.13.06-.31.13-.45.19-.54.22-1.37.47-1.97.63v1.06c0,.25.1.31.34.36.15.02.4.04.63.04.51,0,1.24-.05,1.64-.15v.44c-.42.06-1.14.1-1.66.1-.28,0-.57-.01-.77-.05-.37-.07-.58-.24-.58-.62v-2.64c0-.12-.01-.28-.03-.39h.45c-.01.11-.02.25-.02.39ZM274.35,171.34c.3,0,.54.25.54.54s-.24.53-.54.53c-.3,0-.54-.24-.54-.53s.24-.54.54-.54ZM274.35,172.2c.17,0,.32-.14.32-.31s-.14-.32-.32-.32c-.18,0-.32.15-.32.32s.14.31.32.31Z"/>
        <path class="cls-17" d="M276.03,171.95h2.58c.11,0,.28,0,.42-.01,0,.12,0,.25,0,.38v2.37c0,.15,0,.53.01.58h-.41s0-.15,0-.28h-2.62c0,.13,0,.24,0,.28h-.41c0-.06.01-.42.01-.59v-2.36c0-.11,0-.26-.01-.38.19,0,.32,0,.43,0ZM276.01,174.61h2.63s0-2.28,0-2.28h-2.63s0,2.28,0,2.28Z"/>
        <path class="cls-17" d="M280.33,172.9h3.15c.1,0,.26,0,.38-.03v.4c-.11,0-.26,0-.38,0h-1.31c-.01.52-.09.96-.28,1.31-.17.32-.54.67-.95.88l-.36-.26c.38-.15.72-.43.91-.74.21-.34.26-.74.28-1.19h-1.44c-.14,0-.28,0-.42.01v-.4c.13.01.27.02.42.02ZM280.92,171.7h1.95c.13,0,.31-.01.45-.03v.4c-.14,0-.31-.01-.45-.01h-1.94c-.16,0-.32,0-.44.02v-.4c.13.01.28.03.43.03Z"/>
        <path class="cls-17" d="M285.72,173.26c.46-.28.9-.67,1.14-.98l.3.29c-.24.26-.65.62-1.09.9v1.71c0,.15,0,.35.02.42h-.44c0-.08.02-.27.02-.42v-1.47c-.4.22-.96.47-1.5.64l-.18-.36c.63-.15,1.34-.49,1.73-.73Z"/>
      </g>
    </g>
    <rect class="cls-20" x="498.61" y="61.7" width="14.16" height="10.73"/>
    <rect class="cls-9" x="484.27" y="36.28" width="14.34" height="15.01"/>
    <rect class="cls-20" x="498.61" y="72.44" width="26.79" height="21"/>
    <rect class="cls-20" x="510.85" y="107.85" width="14.55" height="5.43"/>
    <polygon class="cls-18" points="484.26 70 443.91 70 438.61 70 425.19 70 425.19 99 443.91 99 443.91 78.17 484.26 78.17 484.26 70"/>
    <rect class="cls-27" x="473.71" y="117.42" width="7.2" height=".13"/>
    <line class="cls-9" x1="497.71" y1="137.2" x2="497.71" y2="117.55"/>
    <line class="cls-9" x1="497.66" y1="134.19" x2="510.95" y2="134.19"/>
    <line class="cls-9" x1="497.66" y1="131.77" x2="510.95" y2="131.77"/>
    <line class="cls-9" x1="497.66" y1="129.35" x2="510.95" y2="129.35"/>
    <line class="cls-9" x1="497.66" y1="126.94" x2="510.95" y2="126.94"/>
    <line class="cls-9" x1="497.66" y1="124.52" x2="510.95" y2="124.52"/>
    <polyline class="cls-9" points="497.71 122.1 504.36 122.1 504.36 134.16"/>
    <line class="cls-9" x1="497.66" y1="134.16" x2="510.95" y2="134.16"/>
    <line class="cls-9" x1="641.1" y1="290.14" x2="649.48" y2="290.14"/>
    <line class="cls-9" x1="641.1" y1="299.81" x2="649.48" y2="299.81"/>
    <line class="cls-9" x1="641.1" y1="331.81" x2="649.48" y2="331.81"/>
    <line class="cls-9" x1="641.1" y1="329.39" x2="649.48" y2="329.39"/>
    <line class="cls-9" x1="641.1" y1="326.98" x2="649.48" y2="326.98"/>
    <line class="cls-9" x1="641.1" y1="324.56" x2="649.48" y2="324.56"/>
    <line class="cls-9" x1="641.1" y1="334.2" x2="649.48" y2="334.2"/>
    <line class="cls-9" x1="641.1" y1="341.48" x2="649.48" y2="341.48"/>
    <line class="cls-9" x1="641.1" y1="339.06" x2="649.48" y2="339.06"/>
    <line class="cls-9" x1="641.1" y1="336.64" x2="649.48" y2="336.64"/>
    <line class="cls-9" x1="641.1" y1="343.87" x2="649.48" y2="343.87"/>
    <line class="cls-9" x1="641.1" y1="351.12" x2="649.48" y2="351.12"/>
    <line class="cls-9" x1="641.1" y1="348.7" x2="649.48" y2="348.7"/>
    <line class="cls-9" x1="641.1" y1="346.29" x2="649.48" y2="346.29"/>
    <line class="cls-9" x1="641.1" y1="334.23" x2="649.48" y2="334.23"/>
    <line class="cls-9" x1="641.1" y1="343.89" x2="649.48" y2="343.89"/>
    <line class="cls-9" x1="643.36" y1="201.26" x2="643.36" y2="187.97"/>
    <line class="cls-9" x1="645.94" y1="201.26" x2="645.94" y2="187.97"/>
    <line class="cls-9" x1="640.94" y1="201.26" x2="640.94" y2="187.97"/>
    <line class="cls-9" x1="638.52" y1="201.26" x2="638.52" y2="187.97"/>
    <line class="cls-9" x1="636.11" y1="201.26" x2="636.11" y2="187.97"/>
    <line class="cls-9" x1="633.69" y1="194.56" x2="645.75" y2="194.56"/>
    <line class="cls-9" x1="510.15" y1="173.02" x2="510.15" y2="192.92"/>
    <line class="cls-9" x1="523.44" y1="176.04" x2="510.15" y2="176.04"/>
    <line class="cls-9" x1="523.44" y1="178.45" x2="510.15" y2="178.45"/>
    <line class="cls-9" x1="523.44" y1="180.87" x2="510.15" y2="180.87"/>
    <line class="cls-9" x1="523.44" y1="183.29" x2="510.15" y2="183.29"/>
    <line class="cls-9" x1="523.44" y1="185.7" x2="510.15" y2="185.7"/>
    <polyline class="cls-9" points="516.74 176.06 516.74 188.12 510.15 188.12"/>
    <line class="cls-7" x1="519.2" y1="173.02" x2="489.41" y2="173.02"/>
    <line class="cls-9" x1="523.44" y1="206.48" x2="523.44" y2="173.02"/>
    <polyline class="cls-7" points="523.44 206.48 492.37 206.48 489.39 206.48 489.39 194.06"/>
    <polyline class="cls-7" points="518.01 173.02 523.44 173.02 523.44 192.92"/>
    <polyline class="cls-8" points="437.72 291.34 437.72 309.61 510.9 309.61 510.9 331.22 621.35 456.8"/>
    <line class="cls-10" x1="540.3" y1="137.2" x2="545.71" y2="137.2"/>
    <line class="cls-8" x1="484.29" y1="117.55" x2="497.71" y2="117.55"/>
    <line class="cls-7" x1="263.35" y1="117.55" x2="236.98" y2="117.55"/>
    <g>
      <path class="cls-30" d="M638.18,178.95h3.05s0,.57,0,.57h-2.38v1.79h2.02s0,.56,0,.56h-2.02s0,2.37,0,2.37h-.67s0-5.29,0-5.29Z"/>
      <path class="cls-30" d="M643.24,180.83c-.12.36-.27.81-.41,1.16.3.36.36.68.36.95,0,.23-.05.42-.16.5-.06.04-.13.07-.22.08-.08,0-.18,0-.27,0,0-.08-.04-.2-.08-.29.09,0,.17,0,.23,0,.06,0,.1-.01.14-.03.06-.05.08-.18.08-.31,0-.23-.08-.54-.37-.88.12-.32.23-.72.32-1.02h-.54v3.55s-.29,0-.29,0v-3.85s.94,0,.94,0h.04s.22.11.22.11ZM644.51,182.12c-.44.11-.89.23-1.25.31l-.09-.28c.09-.02.18-.04.29-.06v-1.52s.29,0,.29,0v.53h.69s0,.27,0,.27h-.69v.65c.23-.05.48-.11.73-.17l.03.26ZM644.66,182.34c-.05.13-.1.26-.15.38h1.16s0,1.82,0,1.82h-.32v-.15h-1.51v.17h-.3v-1.84s.66,0,.66,0c.05-.15.11-.32.14-.45l.33.07ZM645.35,182.99h-1.51s0,.42,0,.42h1.51s0-.42,0-.42ZM645.35,184.11v-.44h-1.51v.44h1.51ZM645.5,182.09c.11,0,.13-.05.14-.42.07.05.19.1.27.12-.04.46-.12.57-.38.57h-.5c-.33,0-.41-.08-.41-.41v-1.37s.3,0,.3,0v.65c.25-.11.51-.25.66-.38l.23.22c-.25.16-.59.31-.89.43v.46c0,.11.02.13.15.13h.43Z"/>
      <path class="cls-30" d="M646.93,183.81v.75h-.31v-.69l-.3.05-.06-.32.36-.06v-2.69s.17.06.17.06c.39-.11.81-.25,1.04-.39l.28.23c-.33.16-.78.3-1.2.4v.51s1.02,0,1.02,0v.3h-1.02v.54h1.05s0,.3,0,.3h-1.05s0,.67,0,.67c.36-.06.77-.13,1.17-.2l.02.31-1.19.21ZM650.13,182.55c-.16.52-.41.93-.74,1.25.27.22.59.38.97.48-.08.06-.17.19-.22.28-.39-.12-.72-.3-1-.54-.34.25-.72.43-1.14.56-.04-.08-.12-.22-.18-.29.39-.1.77-.27,1.08-.5-.24-.27-.43-.59-.56-.95l.22-.06h-.4s0-.3,0-.3h1.7s.06-.01.06-.01l.21.08ZM648.72,181.34c0,.36-.09.79-.53,1.07-.04-.06-.16-.18-.22-.23.39-.24.45-.56.45-.85v-.62s1.3,0,1.3,0v1.08c0,.08,0,.13.03.15.02.01.04.02.07.02h.13s.08,0,.09-.01c.02-.01.04-.04.05-.1,0-.07.02-.2.02-.38.06.05.17.1.25.12,0,.17-.02.37-.04.44-.03.08-.07.12-.13.15-.05.03-.14.04-.21.04h-.23c-.08,0-.19-.02-.24-.08-.06-.05-.09-.13-.09-.37v-.77s-.7,0-.7,0v.34ZM648.64,182.78c.12.31.29.58.51.81.23-.23.42-.49.56-.81h-1.07Z"/>
    </g>
    <rect class="cls-9" x="616.47" y="250.57" width="8.7" height="14.32"/>
    <rect class="cls-9" x="625.17" y="250.57" width="8.7" height="14.32"/>
    <g>
      <line class="cls-4" x1="365.7" y1="251.02" x2="365.7" y2="272.24"/>
      <line class="cls-12" x1="365.7" y1="251.02" x2="365.7" y2="272.24"/>
    </g>
    <g>
      <line class="cls-11" x1="325.01" y1="251.37" x2="325.01" y2="265.07"/>
      <line class="cls-12" x1="325.01" y1="251.37" x2="325.01" y2="265.07"/>
    </g>
    <g>
      <path class="cls-4" d="M360.46,244.12v28.74h-6.81"/>
      <path class="cls-12" d="M360.46,244.12v28.74h-6.81"/>
    </g>
    <g>
      <g>
        <path class="cls-30" d="M584.07,286.85v2.06s-.42,0-.42,0v-2.06h-.26v-.39h.26v-.89s.42,0,.42,0v.89h.43v.39h-.42Z"/>
        <path class="cls-30" d="M584.75,287.7c0-.74.55-1.29,1.3-1.29.75,0,1.3.55,1.3,1.29s-.55,1.29-1.3,1.29c-.74,0-1.3-.54-1.3-1.29ZM585.18,287.7c0,.6.43.91.86.91.44,0,.86-.31.86-.91s-.41-.92-.86-.92c-.45,0-.86.32-.86.92Z"/>
        <path class="cls-30" d="M588.21,285.23c.17,0,.3.14.3.3s-.14.3-.3.3-.3-.14-.3-.3.14-.3.3-.3ZM588.42,286.46v2.45s-.42,0-.42,0v-2.45s.42,0,.42,0Z"/>
        <path class="cls-30" d="M589.65,284.61v4.3s-.42,0-.42,0v-4.3s.42,0,.42,0Z"/>
        <path class="cls-30" d="M592.63,288.28c-.07.14-.18.28-.3.4-.22.2-.5.3-.81.3-.59,0-1.21-.37-1.21-1.28,0-.73.45-1.3,1.19-1.3.48,0,.78.24.93.45.15.22.24.6.23.92h-1.91c0,.51.36.83.78.83.2,0,.36-.06.5-.18.11-.09.2-.22.25-.34l.35.2ZM592.21,287.41c-.07-.38-.36-.64-.72-.64-.36,0-.66.27-.72.64h1.44Z"/>
        <path class="cls-30" d="M593.74,286.85v2.06s-.42,0-.42,0v-2.06h-.26v-.39h.26v-.89s.42,0,.42,0v.89h.43v.39h-.42Z"/>
      </g>
      <g>
        <path class="cls-28" d="M588.7,271.93c.67,0,1.21-.54,1.21-1.21s-.54-1.21-1.21-1.21-1.21.54-1.21,1.21.55,1.21,1.21,1.21"/>
        <path class="cls-28" d="M592.89,278.3l-.85-1.02-1.74-2.07.5-2.84h-1.34l-.57,3.22,1.94,2.32c-.67.26-1.39.4-2.15.4s-1.48-.15-2.15-.4l1.94-2.32-.57-3.22h-1.34l.5,2.84-1.73,2.07-.85,1.02c.86.61,1.85,1.03,2.93,1.22l.61,4.35h1.32l.61-4.35c1.08-.19,2.07-.61,2.93-1.22"/>
      </g>
    </g>
    <g>
      <line class="cls-11" x1="620.82" y1="254.9" x2="583.26" y2="254.9"/>
      <line class="cls-12" x1="620.82" y1="254.9" x2="583.26" y2="254.9"/>
    </g>
    <g>
      <polyline class="cls-11" points="629.52 260.68 588.7 260.68 588.7 267.48"/>
      <polyline class="cls-12" points="629.52 260.68 588.7 260.68 588.7 267.48"/>
    </g>
    <line class="cls-9" x1="648.82" y1="201.17" x2="632.26" y2="201.17"/>
    <g>
      <line class="cls-11" x1="681.95" y1="234.4" x2="681.95" y2="220.71"/>
      <line class="cls-12" x1="681.95" y1="234.4" x2="681.95" y2="220.71"/>
    </g>
    <g>
      <line class="cls-11" x1="714.81" y1="234.4" x2="714.81" y2="220.71"/>
      <line class="cls-12" x1="714.81" y1="234.4" x2="714.81" y2="220.71"/>
    </g>
    <polygon class="cls-9" points="649.48 403.17 634.01 393.04 634.01 374.46 649.48 374.46 649.48 403.17"/>
    <line class="cls-16" x1="641.1" y1="272.87" x2="641.1" y2="358.08"/>
    <line class="cls-16" x1="641.1" y1="320.02" x2="649.48" y2="320.02"/>
    <line class="cls-16" x1="649.32" y1="403.24" x2="632.95" y2="414.2"/>
    <g>
      <line class="cls-11" x1="641.74" y1="388.82" x2="655.43" y2="388.82"/>
      <line class="cls-12" x1="641.74" y1="388.82" x2="655.43" y2="388.82"/>
    </g>
    <line class="cls-16" x1="599.42" y1="264.89" x2="599.42" y2="303.61"/>
    <g>
      <polygon class="cls-15" points="540.32 230.71 543.39 233.57 534.57 233.57 534.57 234.56 543.39 234.56 540.32 237.42 541 238.15 545.39 234.07 541 229.98 540.32 230.71"/>
      <polygon class="cls-17" points="540.32 230.71 543.39 233.57 534.57 233.57 534.57 234.56 543.39 234.56 540.32 237.42 541 238.15 545.39 234.07 541 229.98 540.32 230.71"/>
    </g>
    <polyline class="cls-9" points="510.15 173.02 510.15 194.06 489.39 194.06"/>
    <line class="cls-9" x1="489.39" y1="173.02" x2="489.39" y2="201.02"/>
    <g>
      <g>
        <path class="cls-30" d="M494.84,191.45c-.05.09-.12.19-.21.27-.15.14-.34.2-.55.2-.4,0-.82-.25-.82-.87,0-.5.3-.88.81-.88.32,0,.53.16.63.3.1.15.16.4.16.62h-1.3c0,.35.24.57.53.57.14,0,.25-.04.34-.12.08-.06.14-.15.17-.23l.24.13ZM494.56,190.86c-.05-.26-.25-.43-.49-.43s-.45.18-.49.43h.98Z"/>
        <path class="cls-30" d="M495.59,188.95v2.93s-.29,0-.29,0v-2.93s.29,0,.29,0Z"/>
        <path class="cls-30" d="M497.61,191.45c-.05.09-.12.19-.21.27-.15.14-.34.2-.55.2-.4,0-.82-.25-.82-.87,0-.5.3-.88.81-.88.32,0,.53.16.63.3.1.15.16.41.16.63h-1.3c0,.35.24.57.53.57.14,0,.25-.04.34-.12.08-.06.14-.15.17-.23l.24.13ZM497.33,190.86c-.05-.26-.25-.43-.49-.43-.25,0-.45.19-.49.43h.98Z"/>
        <path class="cls-30" d="M498.15,190.21l.5,1.12.5-1.12h.32l-.82,1.77-.82-1.77h.32Z"/>
        <path class="cls-30" d="M501.05,190.21h.29v1.67s-.29,0-.29,0v-.23c-.1.12-.28.28-.57.28-.42,0-.81-.3-.81-.88,0-.57.38-.87.81-.87.32,0,.49.17.57.28v-.24ZM499.96,191.04c0,.36.2.63.55.63.35,0,.55-.29.55-.62,0-.43-.3-.62-.55-.62-.29,0-.55.21-.55.61Z"/>
        <path class="cls-30" d="M502.18,190.47v1.4s-.29,0-.29,0v-1.4h-.18v-.26h.18v-.6h.29v.6h.29v.26h-.29Z"/>
        <path class="cls-30" d="M502.64,191.04c0-.5.37-.88.88-.88s.88.37.88.88c0,.51-.38.88-.88.88s-.88-.37-.88-.87ZM502.93,191.04c0,.41.29.62.59.62s.59-.21.58-.62c0-.41-.28-.62-.59-.62s-.59.22-.59.62Z"/>
        <path class="cls-30" d="M504.85,190.2h.29v.18s.15-.22.38-.22c.09,0,.18.03.26.07l-.14.26c-.06-.04-.12-.06-.17-.06-.12,0-.19.05-.23.1-.05.06-.1.18-.1.45v.88s-.29,0-.29,0v-1.67Z"/>
      </g>
      <g>
        <path class="cls-31" d="M497.85,182.92c.21,0,.39-.17.39-.39s-.18-.39-.39-.39-.39.17-.39.39.17.39.39.39"/>
        <polygon class="cls-31" points="497.59 184.47 497.45 183.48 498.24 183.48 498.1 184.47 498.54 184.47 498.73 183.06 496.97 183.06 497.16 184.47 497.59 184.47"/>
        <polygon class="cls-31" points="497.85 184.61 497.3 184.61 496.92 186.78 497.47 186.78 497.85 184.61"/>
        <polygon class="cls-31" points="497.85 184.61 498.22 186.78 498.78 186.78 498.39 184.61 497.85 184.61"/>
        <path class="cls-31" d="M499.77,182.92c.22,0,.39-.17.39-.39s-.17-.39-.39-.39-.39.17-.39.39.17.39.39.39"/>
        <polygon class="cls-31" points="499.5 184.47 499.37 183.48 500.16 183.48 500.01 184.47 500.45 184.47 500.64 183.06 498.88 183.06 499.08 184.47 499.5 184.47"/>
        <polygon class="cls-31" points="499.76 184.61 499.22 184.61 498.83 186.78 499.38 186.78 499.76 184.61"/>
        <polygon class="cls-31" points="499.76 184.61 500.14 186.78 500.69 186.78 500.3 184.61 499.76 184.61"/>
        <path class="cls-31" d="M501.68,182.92c.22,0,.39-.17.39-.39s-.17-.39-.39-.39-.39.17-.39.39.17.39.39.39"/>
        <polygon class="cls-31" points="501.41 184.47 501.28 183.48 502.07 183.48 501.92 184.47 502.36 184.47 502.56 183.06 500.79 183.06 500.99 184.47 501.41 184.47"/>
        <polygon class="cls-31" points="501.68 184.61 501.13 184.61 500.75 186.78 501.3 186.78 501.68 184.61"/>
        <polygon class="cls-31" points="501.68 184.61 502.05 186.78 502.6 186.78 502.22 184.61 501.68 184.61"/>
        <path class="cls-31" d="M495.78,188.17h7.98v-7.98h-7.98v7.98ZM502.92,187.33h-6.3v-6.3h6.3v6.3Z"/>
        <polygon class="cls-31" points="501.31 179.77 502.16 179.77 502.16 176.85 503.48 178.17 503.48 176.97 501.73 175.23 499.99 176.97 499.99 178.17 501.31 176.85 501.31 179.77"/>
        <polygon class="cls-31" points="499.43 178.03 499.43 176.83 498.11 178.16 498.11 175.23 497.27 175.23 497.27 178.16 495.94 176.83 495.94 178.03 497.69 179.77 499.43 178.03"/>
      </g>
    </g>
    <rect class="cls-16" x="645.11" y="222.68" width="26.04" height="19.46"/>
    <polyline class="cls-9" points="349.09 117.55 349.05 137.61 362.33 137.61 362.33 125.53"/>
    <line class="cls-9" x1="349.05" y1="135.2" x2="362.33" y2="135.2"/>
    <line class="cls-9" x1="349.05" y1="132.78" x2="362.33" y2="132.78"/>
    <line class="cls-9" x1="349.05" y1="130.36" x2="362.33" y2="130.36"/>
    <line class="cls-9" x1="349.05" y1="127.95" x2="362.33" y2="127.95"/>
    <polyline class="cls-9" points="349.09 125.53 355.75 125.53 355.75 135.2"/>
    <polyline class="cls-9" points="362.33 137.61 370 137.61 370 117.55 349.09 117.55"/>
    <polyline class="cls-7" points="349.09 117.55 349.09 137.61 370 137.61"/>
    <line class="cls-16" x1="497.71" y1="137.2" x2="511.32" y2="137.2"/>
    <line class="cls-16" x1="525.4" y1="93.44" x2="525.4" y2="107.85"/>
    <line class="cls-8" x1="632.62" y1="242.14" x2="647.83" y2="242.14"/>
    <line class="cls-8" x1="735.15" y1="242.14" x2="671.15" y2="242.14"/>
    <line class="cls-8" x1="691.91" y1="225.61" x2="691.91" y2="242.14"/>
    <g>
      <polygon class="cls-15" points="540.32 177.13 543.39 179.98 534.57 179.98 534.57 180.98 543.39 180.98 540.32 183.83 541 184.56 545.39 180.48 541 176.39 540.32 177.13"/>
      <polygon class="cls-17" points="540.32 177.13 543.39 179.98 534.57 179.98 534.57 180.98 543.39 180.98 540.32 183.83 541 184.56 545.39 180.48 541 176.39 540.32 177.13"/>
    </g>
    <g>
      <polygon class="cls-15" points="521.87 203.62 518.8 200.77 527.62 200.77 527.62 199.77 518.79 199.77 521.87 196.92 521.18 196.18 516.79 200.27 521.18 204.35 521.87 203.62"/>
      <polygon class="cls-17" points="521.87 203.62 518.8 200.77 527.62 200.77 527.62 199.77 518.79 199.77 521.87 196.92 521.18 196.18 516.79 200.27 521.18 204.35 521.87 203.62"/>
    </g>
    <g>
      <polygon class="cls-15" points="440.82 255.7 437.76 252.85 446.57 252.85 446.57 251.85 437.75 251.85 440.82 249 440.14 248.27 435.75 252.35 440.14 256.43 440.82 255.7"/>
      <polygon class="cls-17" points="440.82 255.7 437.76 252.85 446.57 252.85 446.57 251.85 437.75 251.85 440.82 249 440.14 248.27 435.75 252.35 440.14 256.43 440.82 255.7"/>
    </g>
    <g>
      <polygon class="cls-15" points="600.52 276.06 603.59 278.91 594.77 278.91 594.77 279.91 603.59 279.91 600.52 282.77 601.2 283.5 605.59 279.41 601.2 275.33 600.52 276.06"/>
      <polygon class="cls-17" points="600.52 276.06 603.59 278.91 594.77 278.91 594.77 279.91 603.59 279.91 600.52 282.77 601.2 283.5 605.59 279.41 601.2 275.33 600.52 276.06"/>
    </g>
    <g>
      <polygon class="cls-15" points="487.65 116.76 490.5 113.69 490.5 122.51 491.5 122.51 491.5 113.69 494.35 116.76 495.08 116.08 491 111.69 486.92 116.08 487.65 116.76"/>
      <polygon class="cls-17" points="487.65 116.76 490.5 113.69 490.5 122.51 491.5 122.51 491.5 113.69 494.35 116.76 495.08 116.08 491 111.69 486.92 116.08 487.65 116.76"/>
    </g>
    <g>
      <polygon class="cls-15" points="381.65 242.5 378.8 245.57 378.8 236.75 377.8 236.75 377.8 245.57 374.95 242.5 374.22 243.18 378.3 247.57 382.39 243.18 381.65 242.5"/>
      <polygon class="cls-17" points="381.65 242.5 378.8 245.57 378.8 236.75 377.8 236.75 377.8 245.57 374.95 242.5 374.22 243.18 378.3 247.57 382.39 243.18 381.65 242.5"/>
    </g>
    <g>
      <polygon class="cls-15" points="328.36 242.5 325.51 245.57 325.51 236.75 324.51 236.75 324.51 245.57 321.66 242.5 320.93 243.18 325.01 247.57 329.09 243.18 328.36 242.5"/>
      <polygon class="cls-17" points="328.36 242.5 325.51 245.57 325.51 236.75 324.51 236.75 324.51 245.57 321.66 242.5 320.93 243.18 325.01 247.57 329.09 243.18 328.36 242.5"/>
    </g>
    <g>
      <polygon class="cls-15" points="368.96 126.16 365.89 123.31 374.71 123.31 374.71 122.31 365.89 122.31 368.96 119.46 368.28 118.73 363.88 122.81 368.28 126.9 368.96 126.16"/>
      <polygon class="cls-17" points="368.96 126.16 365.89 123.31 374.71 123.31 374.71 122.31 365.89 122.31 368.96 119.46 368.28 118.73 363.88 122.81 368.28 126.9 368.96 126.16"/>
    </g>
    <g>
      <polygon class="cls-15" points="238.27 77.93 241.34 80.79 232.52 80.79 232.52 81.79 241.35 81.79 238.27 84.64 238.96 85.37 243.35 81.29 238.96 77.2 238.27 77.93"/>
      <polygon class="cls-17" points="238.27 77.93 241.34 80.79 232.52 80.79 232.52 81.79 241.35 81.79 238.27 84.64 238.96 85.37 243.35 81.29 238.96 77.2 238.27 77.93"/>
    </g>
    <g>
      <g>
        <path class="cls-29" d="M579.8,248.16c0,.66-.54,1.2-1.2,1.2s-1.2-.54-1.2-1.2.54-1.2,1.2-1.2,1.2.54,1.2,1.2"/>
        <polygon class="cls-29" points="581.44 261.2 580.26 254.55 578.6 254.55 579.78 261.2 581.44 261.2"/>
        <polygon class="cls-29" points="575.87 249.8 576.48 254.11 577.8 254.11 577.38 251.11 579.82 251.11 579.4 254.11 580.72 254.11 581.33 249.8 575.87 249.8"/>
        <polygon class="cls-29" points="575.77 261.2 576.94 254.55 578.6 254.55 577.43 261.2 575.77 261.2"/>
      </g>
      <g>
        <path class="cls-30" d="M573.97,264.19v2.06s-.42,0-.42,0v-2.06h-.26v-.39h.26v-.89s.42,0,.42,0v.89h.43v.39h-.42Z"/>
        <path class="cls-30" d="M574.65,265.04c0-.74.55-1.29,1.3-1.29.75,0,1.3.55,1.3,1.29s-.55,1.29-1.3,1.29c-.74,0-1.3-.54-1.3-1.29ZM575.09,265.04c0,.6.43.91.86.91.44,0,.86-.31.86-.91s-.41-.92-.86-.92c-.45,0-.86.32-.86.92Z"/>
        <path class="cls-30" d="M578.11,262.57c.17,0,.3.14.3.3s-.14.3-.3.3-.3-.14-.3-.3.14-.3.3-.3ZM578.32,263.8v2.45s-.42,0-.42,0v-2.45s.42,0,.42,0Z"/>
        <path class="cls-30" d="M579.55,261.95v4.3s-.42,0-.42,0v-4.3s.42,0,.42,0Z"/>
        <path class="cls-30" d="M582.53,265.62c-.07.14-.18.28-.3.4-.22.2-.5.3-.81.3-.59,0-1.21-.37-1.21-1.28,0-.73.45-1.3,1.19-1.3.48,0,.78.24.93.45.15.22.24.6.23.92h-1.91c0,.51.36.83.78.83.2,0,.36-.06.5-.18.11-.09.2-.22.25-.34l.35.2ZM582.11,264.75c-.07-.38-.36-.64-.72-.64-.36,0-.66.27-.72.64h1.44Z"/>
        <path class="cls-30" d="M583.64,264.19v2.06s-.42,0-.42,0v-2.06h-.26v-.39h.26v-.89s.42,0,.42,0v.89h.43v.39h-.42Z"/>
      </g>
    </g>
    <g>
      <path class="cls-23" d="M680.69,202.27c.73,0,1.33-.6,1.33-1.33s-.59-1.33-1.33-1.33-1.33.6-1.33,1.33.6,1.33,1.33,1.33"/>
      <polygon class="cls-23" points="685.87 206.99 680.39 206.99 680.62 208.8 684.27 208.8 684.71 212.4 686.51 212.17 685.87 206.99"/>
      <path class="cls-23" d="M681.62,212.22c-1.67,0-3.02-1.36-3.02-3.02,0-1.02.5-1.92,1.27-2.47l-.16-1.31c-1.38.7-2.32,2.13-2.32,3.78,0,2.34,1.89,4.23,4.23,4.23.99,0,1.9-.34,2.62-.91l-.19-1.53c-.56.75-1.44,1.23-2.44,1.23"/>
      <path class="cls-23" d="M681.71,202.82h-1.82l.45,3.69h1.82l-.14-1.17c.9.66,2.01,1.05,3.21,1.05v-1.45c-1.52,0-2.84-.85-3.51-2.1v-.02Z"/>
      <g>
        <path class="cls-30" d="M677.39,216.65v2.06s-.42,0-.42,0v-2.06h-.26v-.39h.26v-.89s.42,0,.42,0v.89h.43v.39h-.42Z"/>
        <path class="cls-30" d="M678.07,217.49c0-.74.55-1.29,1.3-1.29.75,0,1.3.55,1.3,1.29s-.55,1.29-1.3,1.29c-.74,0-1.3-.54-1.3-1.29ZM678.5,217.49c0,.6.43.91.86.91.44,0,.86-.31.86-.91s-.41-.92-.86-.92c-.45,0-.86.32-.86.92Z"/>
        <path class="cls-30" d="M681.53,215.03c.17,0,.3.14.3.3s-.14.3-.3.3-.3-.14-.3-.3.14-.3.3-.3ZM681.74,216.26v2.45s-.42,0-.42,0v-2.45s.42,0,.42,0Z"/>
        <path class="cls-30" d="M682.97,214.4v4.3s-.42,0-.42,0v-4.3s.42,0,.42,0Z"/>
        <path class="cls-30" d="M685.95,218.08c-.07.14-.18.28-.3.4-.22.2-.5.3-.81.3-.59,0-1.21-.37-1.21-1.28,0-.73.45-1.3,1.19-1.3.48,0,.78.24.93.45.15.22.24.6.23.92h-1.91c0,.51.36.83.78.83.2,0,.36-.06.5-.18.11-.09.2-.22.25-.34l.35.2ZM685.53,217.21c-.07-.38-.36-.64-.72-.64-.36,0-.66.27-.72.64h1.44Z"/>
        <path class="cls-30" d="M687.06,216.64v2.06s-.42,0-.42,0v-2.06h-.26v-.39h.26v-.89s.42,0,.42,0v.89h.43v.39h-.42Z"/>
      </g>
    </g>
    <g>
      <g>
        <path class="cls-29" d="M716,200.72c0,.66-.54,1.2-1.2,1.2s-1.2-.54-1.2-1.2.54-1.2,1.2-1.2,1.2.54,1.2,1.2"/>
        <polygon class="cls-29" points="717.64 213.75 716.47 207.1 714.8 207.1 715.98 213.75 717.64 213.75"/>
        <polygon class="cls-29" points="712.08 202.35 712.68 206.66 714.01 206.66 713.59 203.66 716.03 203.66 715.6 206.66 716.93 206.66 717.53 202.35 712.08 202.35"/>
        <polygon class="cls-29" points="711.97 213.75 713.14 207.1 714.8 207.1 713.63 213.75 711.97 213.75"/>
      </g>
      <g>
        <path class="cls-30" d="M710.18,216.75v2.06s-.42,0-.42,0v-2.06h-.26v-.39h.26v-.89s.42,0,.42,0v.89h.43v.39h-.42Z"/>
        <path class="cls-30" d="M710.85,217.59c0-.74.55-1.29,1.3-1.29.75,0,1.3.55,1.3,1.29s-.55,1.29-1.3,1.29c-.74,0-1.3-.54-1.3-1.29ZM711.29,217.59c0,.6.43.91.86.91.44,0,.86-.31.86-.91s-.41-.92-.86-.92c-.45,0-.86.32-.86.92Z"/>
        <path class="cls-30" d="M714.31,215.13c.17,0,.3.14.3.3s-.14.3-.3.3-.3-.14-.3-.3.14-.3.3-.3ZM714.53,216.35v2.45s-.42,0-.42,0v-2.45s.42,0,.42,0Z"/>
        <path class="cls-30" d="M715.76,214.5v4.3s-.42,0-.42,0v-4.3s.42,0,.42,0Z"/>
        <path class="cls-30" d="M718.73,218.18c-.07.14-.18.28-.3.4-.22.2-.5.3-.81.3-.59,0-1.21-.37-1.21-1.28,0-.73.45-1.3,1.19-1.3.48,0,.78.24.93.45.15.22.24.6.23.92h-1.91c0,.51.36.83.78.83.2,0,.36-.06.5-.18.11-.09.2-.22.25-.34l.35.2ZM718.31,217.31c-.07-.38-.36-.64-.72-.64-.36,0-.66.27-.72.64h1.44Z"/>
        <path class="cls-30" d="M719.84,216.74v2.06s-.42,0-.42,0v-2.06h-.26v-.39h.26v-.89s.42,0,.42,0v.89h.43v.39h-.42Z"/>
      </g>
    </g>
    <g>
      <g>
        <path class="cls-30" d="M657.71,395.85v2.06s-.42,0-.42,0v-2.06h-.26v-.39h.26v-.88s.42,0,.42,0v.89h.43v.39h-.42Z"/>
        <path class="cls-30" d="M658.38,396.69c0-.74.55-1.29,1.3-1.29s1.3.55,1.3,1.29-.55,1.29-1.3,1.29c-.74,0-1.3-.54-1.3-1.29ZM658.82,396.69c0,.6.43.91.86.91s.86-.31.86-.91-.41-.92-.86-.92c-.45,0-.86.32-.86.92Z"/>
        <path class="cls-30" d="M661.84,394.23c.17,0,.3.13.3.3s-.14.3-.3.3-.3-.14-.3-.3.14-.3.3-.3ZM662.06,395.46v2.45s-.42,0-.42,0v-2.45s.42,0,.42,0Z"/>
        <path class="cls-30" d="M663.28,393.6v4.3s-.42,0-.42,0v-4.3s.42,0,.42,0Z"/>
        <path class="cls-30" d="M666.26,397.28c-.07.13-.18.28-.3.39-.22.2-.5.3-.81.3-.59,0-1.21-.37-1.21-1.28,0-.73.45-1.3,1.19-1.3.48,0,.78.23.93.45.15.22.24.6.23.92h-1.91c0,.51.36.83.78.83.2,0,.36-.06.5-.18.11-.09.2-.22.25-.34l.35.2ZM665.84,396.41c-.07-.38-.36-.64-.72-.64s-.66.27-.72.64h1.44Z"/>
        <path class="cls-30" d="M667.37,395.84v2.06s-.42,0-.42,0v-2.06h-.26v-.39h.26v-.89s.42,0,.42,0v.88h.43v.39h-.42Z"/>
      </g>
      <g>
        <path class="cls-28" d="M662.33,380.92c.67,0,1.21-.54,1.21-1.21s-.54-1.21-1.21-1.21-1.21.54-1.21,1.21.55,1.21,1.21,1.21"/>
        <path class="cls-28" d="M666.53,387.29l-.85-1.02-1.74-2.07.5-2.84h-1.34l-.57,3.22,1.94,2.32c-.67.26-1.39.4-2.15.4s-1.48-.15-2.15-.4l1.94-2.32-.57-3.22h-1.34l.5,2.84-1.73,2.07-.85,1.02c.86.61,1.85,1.03,2.93,1.22l.61,4.35h1.32l.61-4.35c1.08-.19,2.07-.61,2.93-1.22"/>
      </g>
    </g>
    <g>
      <g>
        <path class="cls-30" d="M341.62,281.71v2.06s-.42,0-.42,0v-2.06h-.26v-.39h.26v-.89s.42,0,.42,0v.89h.43v.39h-.42Z"/>
        <path class="cls-30" d="M342.29,282.55c0-.74.55-1.29,1.3-1.29.75,0,1.3.55,1.3,1.29s-.55,1.29-1.3,1.29c-.74,0-1.3-.54-1.3-1.29ZM342.73,282.55c0,.6.43.91.86.91.44,0,.86-.31.86-.91s-.41-.92-.86-.92c-.45,0-.86.32-.86.92Z"/>
        <path class="cls-30" d="M345.76,280.09c.17,0,.3.14.3.3s-.14.3-.3.3-.3-.14-.3-.3.14-.3.3-.3ZM345.97,281.32v2.45s-.42,0-.42,0v-2.45s.42,0,.42,0Z"/>
        <path class="cls-30" d="M347.2,279.46v4.3s-.42,0-.42,0v-4.3s.42,0,.42,0Z"/>
        <path class="cls-30" d="M350.18,283.14c-.07.14-.18.28-.3.4-.22.2-.5.3-.81.3-.59,0-1.21-.37-1.21-1.28,0-.73.45-1.3,1.19-1.3.48,0,.78.24.93.45.15.22.24.6.23.92h-1.91c0,.51.36.83.78.83.2,0,.36-.06.5-.18.11-.09.2-.22.25-.34l.35.2ZM349.76,282.27c-.07-.38-.36-.64-.72-.64-.36,0-.66.27-.72.64h1.44Z"/>
        <path class="cls-30" d="M351.28,281.71v2.06s-.42,0-.42,0v-2.06h-.26v-.39h.26v-.89s.42,0,.42,0v.89h.43v.39h-.42Z"/>
      </g>
      <g>
        <path class="cls-28" d="M346.25,266.79c.67,0,1.21-.54,1.21-1.21s-.54-1.21-1.21-1.21-1.21.54-1.21,1.21.55,1.21,1.21,1.21"/>
        <path class="cls-28" d="M350.44,273.16l-.85-1.02-1.74-2.07.5-2.84h-1.34l-.57,3.22,1.94,2.32c-.67.26-1.39.4-2.15.4s-1.48-.15-2.15-.4l1.94-2.32-.57-3.22h-1.34l.5,2.84-1.73,2.07-.85,1.02c.86.61,1.85,1.03,2.93,1.22l.61,4.35h1.32l.61-4.35c1.08-.19,2.07-.61,2.93-1.22"/>
      </g>
    </g>
    <g>
      <g>
        <path class="cls-29" d="M366.9,275.24c0,.66-.54,1.2-1.2,1.2s-1.2-.54-1.2-1.2.54-1.2,1.2-1.2,1.2.54,1.2,1.2"/>
        <polygon class="cls-29" points="368.53 288.28 367.36 281.63 365.69 281.63 366.87 288.28 368.53 288.28"/>
        <polygon class="cls-29" points="362.97 276.88 363.57 281.19 364.9 281.19 364.48 278.19 366.92 278.19 366.49 281.19 367.82 281.19 368.42 276.88 362.97 276.88"/>
        <polygon class="cls-29" points="362.86 288.28 364.04 281.63 365.7 281.63 364.52 288.28 362.86 288.28"/>
      </g>
      <g>
        <path class="cls-30" d="M361.07,291.27v2.06s-.42,0-.42,0v-2.06h-.26v-.39h.26v-.89s.42,0,.42,0v.89h.43v.39h-.42Z"/>
        <path class="cls-30" d="M361.74,292.12c0-.74.55-1.29,1.3-1.29.75,0,1.3.55,1.3,1.29s-.55,1.29-1.3,1.29c-.74,0-1.3-.54-1.3-1.29ZM362.18,292.12c0,.6.43.91.86.91.44,0,.86-.31.86-.91s-.41-.92-.86-.92c-.45,0-.86.32-.86.92Z"/>
        <path class="cls-30" d="M365.2,289.65c.17,0,.3.14.3.3s-.14.3-.3.3-.3-.14-.3-.3.14-.3.3-.3ZM365.42,290.88v2.45s-.42,0-.42,0v-2.45s.42,0,.42,0Z"/>
        <path class="cls-30" d="M366.65,289.03v4.3s-.42,0-.42,0v-4.3s.42,0,.42,0Z"/>
        <path class="cls-30" d="M369.62,292.7c-.07.14-.18.28-.3.4-.22.2-.5.3-.81.3-.59,0-1.21-.37-1.21-1.28,0-.73.45-1.3,1.19-1.3.48,0,.78.24.93.45.15.22.24.6.23.92h-1.91c0,.51.36.83.78.83.2,0,.36-.06.5-.18.11-.09.2-.22.25-.34l.35.2ZM369.21,291.83c-.07-.38-.36-.64-.72-.64-.36,0-.66.27-.72.64h1.44Z"/>
        <path class="cls-30" d="M370.73,291.27v2.06s-.42,0-.42,0v-2.06h-.26v-.39h.26v-.89s.42,0,.42,0v.89h.43v.39h-.42Z"/>
      </g>
    </g>
    <g>
      <path class="cls-31" d="M514.16,166.94c-.15-.15-.38-.33-.63-.45-.25-.12-.55-.19-.83-.19-1.11,0-1.93.89-1.93,2,0,1.3,1.06,1.96,1.94,1.96.32,0,.64-.09.89-.22.27-.14.47-.32.55-.4v.66c-.53.38-1.09.47-1.45.47-1.43,0-2.48-1.08-2.49-2.47,0-1.43,1.07-2.5,2.51-2.5.29,0,.84.04,1.42.48v.66Z"/>
      <path class="cls-31" d="M516.33,167.28c-.12.36-.27.81-.41,1.16.3.36.36.68.36.95,0,.23-.05.42-.16.5-.06.04-.13.07-.22.08-.08,0-.18,0-.27,0,0-.08-.04-.2-.08-.29.09,0,.17,0,.23,0,.06,0,.1-.01.14-.03.06-.05.08-.18.08-.31,0-.23-.08-.54-.37-.88.11-.32.23-.72.32-1.02h-.54v3.55s-.29,0-.29,0v-3.85s.94,0,.94,0h.04s.22.11.22.11ZM517.59,168.57c-.44.11-.89.23-1.25.31l-.09-.28c.09-.02.18-.04.29-.06v-1.52s.3,0,.3,0v.53s.69,0,.69,0v.27h-.69v.65c.23-.05.48-.11.73-.17l.03.26ZM517.74,168.79c-.05.13-.1.26-.15.38h1.16s0,1.82,0,1.82h-.32v-.15h-1.51v.17h-.3v-1.84s.66,0,.66,0c.05-.15.11-.32.14-.45l.33.07ZM518.43,169.45h-1.51s0,.42,0,.42h1.51v-.42ZM518.43,170.57v-.44s-1.51,0-1.51,0v.44h1.51ZM518.58,168.54c.11,0,.13-.05.14-.42.07.05.19.1.27.12-.03.46-.12.57-.38.57h-.5c-.33,0-.41-.08-.41-.41v-1.37s.3,0,.3,0v.65c.25-.11.51-.25.66-.38l.23.22c-.25.16-.59.31-.89.43v.46c0,.11.02.13.15.13h.43Z"/>
      <path class="cls-31" d="M520.01,170.26v.75h-.31v-.69s-.31.05-.31.05l-.06-.32.36-.06v-2.69s.18.06.18.06c.39-.11.81-.25,1.04-.39l.28.23c-.33.16-.78.3-1.19.4v.51h1.02s0,.3,0,.3h-1.02v.54h1.05s0,.3,0,.3h-1.05s0,.67,0,.67c.36-.06.77-.13,1.17-.2l.02.31-1.19.21ZM523.21,169c-.15.52-.41.93-.74,1.25.27.22.59.38.97.48-.08.06-.17.19-.22.28-.38-.12-.72-.3-1-.54-.34.25-.72.43-1.14.56-.04-.08-.12-.22-.18-.29.39-.1.77-.27,1.08-.5-.24-.27-.42-.59-.56-.95l.22-.06h-.4s0-.3,0-.3h1.69s.06-.01.06-.01l.21.08ZM521.8,167.79c0,.36-.09.79-.53,1.07-.04-.06-.16-.18-.22-.23.39-.24.45-.56.45-.85v-.62s1.3,0,1.3,0v1.08c0,.08,0,.13.03.15.02.01.04.02.07.02h.13s.08,0,.09-.01c.02-.01.04-.04.05-.1,0-.07.02-.2.02-.38.06.05.17.1.25.12,0,.17-.02.37-.04.44-.03.08-.07.12-.13.15-.05.03-.14.04-.21.04h-.23c-.08,0-.19-.02-.24-.08-.06-.05-.09-.13-.09-.37v-.77s-.7,0-.7,0v.34ZM521.72,169.23c.12.31.29.58.51.81.23-.23.42-.49.56-.81h-1.07Z"/>
    </g>
    <g>
      <path class="cls-30" d="M384.48,234.39c.27,0,.75.02,1.1.3.15.12.43.41.43.99,0,.24-.05.66-.47.94.67.17.92.75.92,1.21,0,.46-.23.83-.49,1.04-.38.3-.82.32-1.15.32h-1.2s0-4.8,0-4.8h.86ZM384.15,236.5h.4c.28,0,.94-.06.94-.8,0-.79-.78-.81-.93-.81h-.42v1.61ZM384.15,238.69h.61c.31,0,.61-.02.84-.2.19-.14.32-.38.32-.66,0-.38-.22-.6-.41-.71-.18-.1-.43-.14-.81-.14h-.55v1.71Z"/>
      <path class="cls-30" d="M388.62,235.8c-.12.36-.27.81-.41,1.16.3.36.36.68.36.95,0,.23-.05.42-.16.5-.06.04-.13.07-.22.08-.08,0-.18,0-.27,0,0-.08-.04-.2-.08-.29.09,0,.17,0,.23,0,.06,0,.1-.01.14-.03.06-.05.08-.18.08-.31,0-.23-.08-.54-.37-.88.11-.32.23-.72.32-1.02h-.54s0,3.55,0,3.55h-.29v-3.85s.94,0,.94,0h.04s.22.12.22.12ZM389.88,237.09c-.44.11-.89.23-1.25.31l-.09-.28c.09-.02.18-.04.29-.06v-1.52s.3,0,.3,0v.53h.69v.27h-.69v.65c.23-.05.48-.11.73-.17l.03.26ZM390.03,237.31c-.05.13-.1.26-.15.38h1.16s0,1.82,0,1.82h-.32v-.15h-1.51v.16h-.3s0-1.84,0-1.84h.66c.05-.15.11-.32.14-.45l.33.07ZM390.72,237.96h-1.51s0,.42,0,.42h1.51v-.42ZM390.72,239.08v-.44h-1.51s0,.44,0,.44h1.51ZM390.87,237.05c.11,0,.13-.05.14-.42.07.05.19.1.27.12-.03.46-.12.57-.38.57h-.5c-.33,0-.41-.08-.41-.41v-1.37h.3v.65c.25-.11.51-.25.66-.38l.23.22c-.25.17-.59.32-.89.43v.46c0,.12.02.13.15.13h.43Z"/>
      <path class="cls-30" d="M392.3,238.77v.75h-.31v-.69s-.31.05-.31.05l-.06-.32.36-.06v-2.69s.18.06.18.06c.39-.11.81-.25,1.04-.39l.28.23c-.33.16-.78.3-1.19.4v.51h1.02v.3h-1.02v.54h1.05v.3h-1.05v.67c.36-.06.77-.13,1.17-.2l.02.31-1.19.21ZM395.5,237.51c-.15.52-.41.93-.74,1.25.27.22.59.38.97.48-.08.06-.17.19-.22.28-.38-.12-.72-.3-1-.54-.34.25-.72.43-1.14.56-.04-.08-.12-.22-.18-.29.39-.1.77-.27,1.08-.5-.24-.27-.42-.59-.56-.95l.22-.06h-.4v-.3h1.7s.06-.01.06-.01l.21.08ZM394.09,236.31c0,.36-.09.79-.53,1.07-.04-.06-.16-.18-.22-.23.39-.24.45-.56.45-.85v-.62h1.3s0,1.08,0,1.08c0,.08,0,.13.03.15.02.01.04.02.07.02h.13s.08,0,.09-.01c.02-.01.04-.04.05-.1,0-.07.02-.2.02-.38.06.05.17.1.25.12,0,.17-.02.37-.04.44-.03.08-.07.12-.13.15-.05.03-.14.04-.21.04h-.23c-.08,0-.19-.02-.24-.08-.06-.05-.09-.13-.09-.37v-.77h-.7v.34ZM394.01,237.74c.12.31.29.58.51.81.24-.23.42-.49.56-.81h-1.07Z"/>
    </g>
    <g>
      <path class="cls-31" d="M498.32,139.05h.98c.48,0,1.17.05,1.77.56.44.37.82.98.82,1.84,0,1.01-.5,1.55-.84,1.84-.44.37-.9.55-1.76.56h-.97s0-4.8,0-4.8ZM498.86,143.35h.47c.38,0,.91-.04,1.38-.43.36-.3.65-.78.65-1.46,0-1.15-.81-1.9-2.03-1.9h-.47s0,3.8,0,3.8Z"/>
      <path class="cls-31" d="M504.06,140.45c-.12.36-.27.81-.41,1.16.3.36.36.68.36.95,0,.23-.05.42-.16.5-.06.04-.13.07-.22.08-.08,0-.18,0-.27,0,0-.08-.04-.2-.08-.29.09,0,.17,0,.23,0,.06,0,.1-.01.14-.03.06-.05.08-.18.08-.31,0-.23-.08-.54-.37-.88.11-.32.23-.72.32-1.02h-.54v3.55s-.29,0-.29,0v-3.85s.94,0,.94,0h.04s.22.11.22.11ZM505.32,141.74c-.44.11-.89.23-1.25.31l-.09-.28c.09-.02.18-.04.29-.06v-1.52s.3,0,.3,0v.53s.69,0,.69,0v.27h-.69v.65c.23-.05.48-.11.73-.17l.03.26ZM505.47,141.96c-.05.13-.1.26-.15.38h1.16s0,1.82,0,1.82h-.32v-.15h-1.51v.17h-.3v-1.84s.66,0,.66,0c.05-.15.11-.32.14-.45l.33.07ZM506.16,142.61h-1.51s0,.42,0,.42h1.51v-.42ZM506.16,143.73v-.44s-1.51,0-1.51,0v.44h1.51ZM506.31,141.7c.11,0,.13-.05.14-.42.07.05.19.1.27.12-.03.46-.12.57-.38.57h-.5c-.33,0-.41-.08-.41-.41v-1.37s.3,0,.3,0v.65c.25-.11.51-.25.66-.38l.23.22c-.25.16-.59.31-.89.43v.46c0,.11.02.13.15.13h.43Z"/>
      <path class="cls-31" d="M507.74,143.42v.75h-.31v-.69s-.31.05-.31.05l-.06-.32.36-.06v-2.69s.18.06.18.06c.39-.11.81-.25,1.04-.39l.28.23c-.33.16-.78.3-1.19.4v.51h1.02s0,.3,0,.3h-1.02v.54h1.05s0,.3,0,.3h-1.05s0,.67,0,.67c.36-.06.77-.13,1.17-.2l.02.31-1.19.21ZM510.94,142.16c-.15.52-.41.93-.74,1.25.27.22.59.38.97.48-.08.06-.17.19-.22.28-.38-.12-.72-.3-1-.54-.34.25-.72.43-1.14.56-.04-.08-.12-.22-.18-.29.39-.1.77-.27,1.08-.5-.24-.27-.42-.59-.56-.95l.22-.06h-.4s0-.3,0-.3h1.69s.06-.01.06-.01l.21.08ZM509.53,140.96c0,.36-.09.79-.53,1.07-.04-.06-.16-.18-.22-.23.39-.24.45-.56.45-.85v-.62s1.3,0,1.3,0v1.08c0,.08,0,.13.03.15.02.01.04.02.07.02h.13s.08,0,.09-.01c.02-.01.04-.04.05-.1,0-.07.02-.2.02-.38.06.05.17.1.25.12,0,.17-.02.37-.04.44-.03.08-.07.12-.13.15-.05.03-.14.04-.21.04h-.23c-.08,0-.19-.02-.24-.08-.06-.05-.09-.13-.09-.37v-.77s-.7,0-.7,0v.34ZM509.45,142.39c.12.31.29.58.51.81.23-.23.42-.49.56-.81h-1.07Z"/>
    </g>
    <g>
      <path class="cls-31" d="M375.14,132.9h-1.96s0,1.43,0,1.43h1.9s0,.5,0,.5h-1.9s0,1.87,0,1.87h1.96s0,.5,0,.5h-2.49s0-4.8,0-4.8h2.49s0,.5,0,.5Z"/>
      <path class="cls-31" d="M377.3,133.8c-.12.36-.27.81-.41,1.16.3.36.36.68.36.95,0,.23-.05.42-.16.5-.06.04-.13.07-.22.08-.08,0-.18,0-.27,0,0-.08-.04-.2-.08-.29.09,0,.17,0,.23,0,.06,0,.1-.01.14-.03.06-.05.08-.18.08-.31,0-.23-.08-.54-.37-.88.11-.32.23-.72.32-1.02h-.54s0,3.55,0,3.55h-.29v-3.85s.94,0,.94,0h.04s.22.12.22.12ZM378.56,135.09c-.44.11-.89.23-1.25.31l-.09-.28c.09-.02.18-.04.29-.06v-1.52s.3,0,.3,0v.53s.69,0,.69,0v.27h-.69v.65c.23-.05.48-.11.73-.17l.03.26ZM378.72,135.31c-.05.13-.1.26-.15.38h1.16s0,1.82,0,1.82h-.32v-.15h-1.51v.16h-.3s0-1.84,0-1.84h.66c.05-.15.11-.32.14-.45l.33.07ZM379.41,135.96h-1.51s0,.42,0,.42h1.51v-.42ZM379.41,137.08v-.44s-1.51,0-1.51,0v.44h1.51ZM379.56,135.06c.11,0,.13-.05.14-.42.07.05.19.1.27.12-.03.46-.12.57-.38.57h-.5c-.33,0-.41-.08-.41-.41v-1.37s.3,0,.3,0v.65c.25-.11.51-.25.66-.38l.23.22c-.25.16-.59.31-.89.43v.46c0,.11.02.13.15.13h.43Z"/>
      <path class="cls-31" d="M380.98,136.78v.75h-.31s0-.69,0-.69l-.3.05-.06-.32.36-.06v-2.69s.18.06.18.06c.39-.11.81-.25,1.04-.39l.28.23c-.33.16-.78.3-1.19.4v.51h1.02s0,.3,0,.3h-1.02v.54h1.05s0,.3,0,.3h-1.05s0,.67,0,.67c.36-.06.77-.13,1.17-.2l.02.31-1.19.21ZM384.19,135.52c-.15.52-.41.93-.74,1.25.27.22.59.38.97.48-.08.06-.17.19-.22.28-.38-.12-.72-.3-1-.54-.34.25-.72.43-1.14.56-.04-.08-.12-.22-.18-.29.39-.1.77-.27,1.08-.5-.24-.27-.42-.59-.56-.95l.22-.06h-.4v-.3h1.69s.06-.01.06-.01l.21.08ZM382.78,134.31c0,.36-.09.79-.53,1.07-.04-.06-.16-.18-.22-.23.39-.24.45-.56.45-.85v-.62s1.3,0,1.3,0v1.08c0,.08,0,.13.03.15.02.01.04.02.07.02h.13s.08,0,.09-.01c.02-.01.04-.04.05-.1,0-.07.02-.2.02-.38.06.05.17.1.25.12,0,.17-.02.37-.04.44-.03.08-.07.12-.13.15-.05.03-.14.04-.21.04h-.23c-.08,0-.19-.02-.24-.08-.06-.05-.09-.13-.09-.37v-.77s-.7,0-.7,0v.34ZM382.7,135.75c.12.31.29.58.51.81.23-.23.42-.49.56-.81h-1.07Z"/>
    </g>
    <g id="_講堂_ラムネホール_" data-name="講堂（ラムネホール）">
      <polygon class="cls-13" points="768.44 403.17 649.48 403.17 649.48 273.15 682.93 254.9 734.96 254.9 768.41 273.16 768.44 403.17"/>
      <g>
        <path class="cls-17" d="M682.27,311.46h2v.37h-2v-.37ZM684.13,315.65h-1.24v.27h-.38v-2h1.62v1.73ZM684.11,312.64h-1.58v-.35h1.58v.35ZM682.53,313.1h1.58v.35h-1.58v-.35ZM684.09,311.02h-1.53v-.36h1.53v.36ZM682.89,314.28v1h.86v-1h-.86ZM687.77,314.99h-.33v.5c0,.21-.05.32-.21.38-.16.06-.42.07-.82.07-.02-.11-.07-.26-.11-.36.29,0,.56,0,.63,0,.08,0,.1-.02.1-.09v-.49h-1.98v.94h-.39v-.94h-.36v-.36h.36v-1.52h1.18v-.34h-1.53v-.35h.87v-.4h-.59v-.33h.59v-.38h-.71v-.34h.71v-.5h.41v.5h.95v-.5h.4v.5h.74v.34h-.74v.38h.62v.33h-.62v.4h.83v.35h-1.55v.34h1.23v1.52h.33v.36ZM685.05,313.44v.44h.79v-.44h-.79ZM685.05,314.63h.79v-.43h-.79v.43ZM685.59,311.68h.95v-.38h-.95v.38ZM685.59,312.41h.95v-.4h-.95v.4ZM686.21,313.44v.44h.82v-.44h-.82ZM687.03,314.63v-.43h-.82v.43h.82Z"/>
        <path class="cls-17" d="M693.62,315.37v.4h-5.2v-.4h2.36v-.72h-1.84v-.39h1.84v-.59h-1.42v-1.38h3.31v1.38h-1.46v.59h1.94v.39h-1.94v.72h2.4ZM688.88,312.72h-.41v-1.31h1.03c-.11-.22-.31-.51-.49-.73l.39-.16c.22.24.45.56.55.79l-.22.1h1.05v-.95h.44v.95h1.1l-.26-.1c.18-.22.41-.57.55-.81l.46.16c-.19.27-.41.55-.61.75h1.12v1.31h-.43v-.91h-4.27v.91ZM689.79,313.31h2.45v-.67h-2.45v.67Z"/>
        <path class="cls-17" d="M699.38,310.34l.36.19c-.69.71-1.12,1.6-1.12,2.67s.43,1.95,1.12,2.67l-.36.19c-.72-.73-1.19-1.69-1.19-2.85s.47-2.12,1.19-2.85Z"/>
        <path class="cls-17" d="M705.21,312.76c-.16.59-.43,1.22-.88,1.7-.63.69-1.38,1.04-2.15,1.25l-.37-.43c.85-.17,1.6-.56,2.11-1.1.37-.38.61-.89.71-1.33h-3.18c-.14,0-.37,0-.59.02v-.5c.22.02.43.04.59.04h3.16c.14,0,.26-.01.33-.05l.34.22c-.03.05-.07.13-.08.17ZM701.94,311.03h2.36c.19,0,.4,0,.55-.03v.5c-.14-.01-.35-.02-.55-.02h-2.35c-.19,0-.38,0-.54.02v-.5c.16.02.35.03.54.03Z"/>
        <path class="cls-17" d="M708.94,311.56c-.17.56-.77,2.41-1.07,3.18.88-.08,2.03-.21,2.69-.3-.24-.47-.51-.94-.73-1.23l.45-.2c.43.62,1.08,1.82,1.33,2.44l-.5.23c-.08-.22-.19-.49-.33-.79-.92.12-2.93.34-3.74.41-.15.01-.32.04-.5.07l-.09-.56c.18,0,.38,0,.56,0,.09,0,.19-.01.3-.02.33-.83.95-2.75,1.12-3.33.07-.28.1-.42.11-.58l.6.12c-.06.15-.13.31-.2.56Z"/>
        <path class="cls-17" d="M715.3,311.2v.38h.99c.14,0,.28,0,.38-.04l.31.3c-.11.11-.24.25-.34.36-.3.36-.8.86-1.35,1.25,0,.49,0,1.21,0,1.61,0,.21.02.47.03.66h-.55c.02-.17.04-.45.04-.66,0-.35,0-.9,0-1.31-.56.32-1.22.59-2.03.83l-.29-.44c1.13-.27,1.88-.67,2.43-1.02.53-.34,1.01-.82,1.22-1.1h-2.49c-.21,0-.55.01-.74.02v-.5c.19.02.53.03.73.03h1.18v-.38c0-.17,0-.4-.03-.53h.55c-.02.13-.04.36-.04.53ZM715.81,313.75l.31-.35c.56.3.89.49,1.45.87l-.31.41c-.52-.38-.88-.62-1.45-.92Z"/>
        <path class="cls-17" d="M718.92,314.84l-.41-.28c.4-.37.91-1.08,1.15-1.56l.42.2c-.25.51-.81,1.28-1.15,1.64ZM721.35,311.2v.62h1.58c.14,0,.34-.01.49-.03v.5c-.16-.01-.34-.02-.49-.02h-1.59v2.91c0,.31-.15.47-.52.47-.25,0-.61-.01-.85-.04l-.04-.47c.26.05.53.07.69.07s.23-.07.23-.23v-2.7h-1.66c-.19,0-.35,0-.52.02v-.51c.17.02.32.04.51.04h1.67v-.62c0-.13-.02-.34-.04-.43h.56c-.01.08-.04.3-.04.43ZM723.61,314.56l-.44.25c-.23-.47-.68-1.22-1-1.59l.41-.22c.32.38.8,1.14,1.04,1.57Z"/>
        <path class="cls-17" d="M725.46,312.91h3.29c.3,0,.52-.02.65-.03v.59c-.12,0-.37-.03-.64-.03h-3.29c-.33,0-.65.01-.83.03v-.59c.18.01.5.03.83.03Z"/>
        <path class="cls-17" d="M731.46,313.84c.17-.55.18-1.75.18-2.41,0-.18-.02-.31-.04-.44h.55c0,.07-.03.25-.03.43,0,.67-.02,1.95-.19,2.55-.18.64-.56,1.23-1.07,1.65l-.45-.31c.5-.36.86-.89,1.04-1.47ZM733.2,315.01v-3.59c0-.23-.03-.4-.04-.44h.55s-.02.22-.02.44v3.46c.55-.25,1.29-.8,1.75-1.48l.28.41c-.52.7-1.35,1.32-2.04,1.66-.1.05-.16.1-.2.14l-.32-.26c.02-.1.04-.22.04-.34Z"/>
        <path class="cls-17" d="M736.65,316.05l-.36-.19c.69-.71,1.12-1.6,1.12-2.67s-.43-1.96-1.12-2.67l.36-.19c.72.73,1.19,1.68,1.19,2.85s-.47,2.12-1.19,2.85Z"/>
      </g>
    </g>
    <g id="_ポアトラホール_食堂" data-name="ポアトラホール、食堂">
      <polyline class="cls-9" points="599.42 264.89 599.42 242.08 538.61 242.08 538.61 155.38 632.28 155.38 632.26 187.86 648.82 187.86 648.82 201.17 671.29 201.17 671.29 225.61 735.15 225.61 735.15 242.14 740.56 242.14"/>
      <g>
        <path class="cls-17" d="M562.7,180.31l-.41-.28c.4-.37.91-1.08,1.14-1.57l.42.2c-.25.52-.82,1.28-1.15,1.64ZM565.13,176.68v.61h1.58c.14,0,.34-.01.49-.03v.5c-.16-.01-.34-.01-.49-.01h-1.59v2.9c0,.32-.16.48-.52.48-.25,0-.61-.02-.85-.04l-.04-.48c.26.05.53.07.69.07s.23-.07.23-.23v-2.7h-1.67c-.18,0-.35,0-.51.02v-.5c.17.02.32.03.51.03h1.67v-.62c0-.13-.02-.34-.04-.43h.56c-.02.08-.04.3-.04.43ZM567.39,180.03l-.44.25c-.23-.47-.68-1.22-1-1.59l.41-.22c.32.38.8,1.13,1.04,1.56ZM566.82,175.78c.37,0,.66.3.66.66s-.29.65-.66.65-.65-.29-.65-.65.29-.66.65-.66ZM566.82,176.82c.22,0,.39-.17.39-.38s-.17-.38-.39-.38-.38.17-.38.38.17.38.38.38Z"/>
        <path class="cls-17" d="M573.34,177.03c-.24.41-.81,1.18-1.49,1.66l-.4-.32c.55-.32,1.12-.97,1.31-1.34h-3.42c-.22,0-.45.01-.68.04v-.55c.21.03.46.05.68.05h3.44c.11,0,.33-.02.42-.04l.29.28c-.04.06-.12.15-.16.22ZM569.44,181.09l-.44-.36c.17-.05.37-.15.54-.27.93-.57,1.06-1.42,1.06-2.42,0-.14,0-.28-.02-.43h.54c0,1.62-.14,2.72-1.67,3.48Z"/>
        <path class="cls-17" d="M575.94,176.85c0-.17-.01-.44-.05-.62h.59c-.02.19-.04.44-.04.62v.98c.79.24,1.93.67,2.56.99l-.2.51c-.65-.35-1.69-.76-2.36-.97,0,.9,0,1.81,0,1.98,0,.19.01.51.04.71h-.58c.03-.19.04-.49.04-.71v-3.49Z"/>
        <path class="cls-17" d="M585.11,178.16c-.16.59-.43,1.22-.88,1.7-.63.69-1.38,1.04-2.15,1.25l-.37-.43c.85-.17,1.6-.56,2.11-1.1.37-.38.61-.89.71-1.33h-3.18c-.14,0-.37,0-.59.02v-.5c.22.02.43.04.59.04h3.16c.14,0,.26-.01.33-.05l.34.22c-.03.05-.07.13-.08.17ZM581.84,176.43h2.36c.19,0,.4,0,.55-.03v.5c-.14-.01-.35-.02-.55-.02h-2.35c-.19,0-.38,0-.54.02v-.5c.16.02.35.03.54.03Z"/>
        <path class="cls-17" d="M586.82,180.23l-.41-.28c.4-.37.91-1.08,1.15-1.56l.42.2c-.25.51-.81,1.28-1.15,1.64ZM589.25,176.59v.62h1.58c.14,0,.34-.01.49-.03v.5c-.16-.01-.34-.02-.49-.02h-1.59v2.91c0,.31-.15.47-.52.47-.25,0-.61-.01-.85-.04l-.04-.47c.26.05.53.07.69.07s.23-.07.23-.23v-2.7h-1.66c-.19,0-.35,0-.52.02v-.51c.17.02.32.04.51.04h1.67v-.62c0-.13-.02-.34-.04-.43h.56c-.01.08-.04.3-.04.43ZM591.51,179.96l-.44.25c-.23-.47-.68-1.22-1-1.59l.41-.22c.32.38.8,1.14,1.04,1.57Z"/>
        <path class="cls-17" d="M593.36,178.3h3.29c.3,0,.52-.02.65-.03v.59c-.12,0-.37-.03-.64-.03h-3.29c-.33,0-.65.01-.83.03v-.59c.18.01.5.03.83.03Z"/>
        <path class="cls-17" d="M599.36,179.24c.17-.55.18-1.75.18-2.41,0-.18-.02-.31-.04-.44h.55c0,.07-.03.25-.03.43,0,.67-.02,1.95-.19,2.55-.18.64-.56,1.23-1.07,1.65l-.45-.31c.5-.36.86-.89,1.04-1.47ZM601.1,180.41v-3.59c0-.23-.03-.4-.04-.44h.55s-.02.22-.02.44v3.46c.55-.25,1.29-.8,1.75-1.48l.28.41c-.52.7-1.35,1.32-2.04,1.66-.1.05-.16.1-.2.14l-.32-.26c.02-.1.04-.22.04-.34Z"/>
      </g>
      <g>
        <path class="cls-17" d="M590.13,219.42c-.4.29-.92.59-1.37.82.46.27,1.04.45,1.7.55-.1.09-.21.27-.27.38-1.29-.22-2.24-.78-2.75-1.73h-.94v1.17l1.54-.14v.4c-.93.1-1.91.2-2.59.26l-.07-.41c.2-.02.43-.04.68-.06v-3.17c-.26.16-.53.31-.8.43-.05-.1-.17-.26-.26-.36,1.01-.44,2.02-1.19,2.5-1.85h.44c.65.75,1.69,1.44,2.62,1.79-.1.11-.21.27-.29.39-.26-.11-.53-.26-.8-.41v1.95c.12-.08.23-.17.33-.24l.34.26ZM589.27,217.33c-.59-.37-1.16-.82-1.53-1.24-.33.4-.86.85-1.45,1.24h1.24v-.59h.45v.59h1.3ZM586.5,218.2h2.52v-.5h-2.52v.5ZM586.5,219.07h2.52v-.53h-2.52v.53ZM587.89,219.44c.14.22.32.41.55.58.31-.16.68-.37.98-.58h-1.53Z"/>
        <path class="cls-17" d="M596.37,220.61v.4h-5.2v-.4h2.36v-.72h-1.84v-.39h1.84v-.59h-1.42v-1.38h3.31v1.38h-1.46v.59h1.94v.39h-1.94v.72h2.4ZM591.63,217.96h-.41v-1.31h1.03c-.11-.22-.31-.51-.49-.73l.39-.16c.22.24.45.56.55.79l-.22.1h1.05v-.95h.44v.95h1.1l-.26-.1c.18-.22.41-.57.55-.81l.46.16c-.19.27-.41.55-.61.75h1.12v1.31h-.43v-.91h-4.27v.91ZM592.54,218.55h2.45v-.67h-2.45v.67Z"/>
      </g>
    </g>
    <g>
      <polyline class="cls-16" points="599.42 303.61 599.42 323.41 599.42 364.92 661.95 456.8 732.87 456.8 768.44 403.17 768.41 273.16 734.96 254.9"/>
      <g>
        <path class="cls-17" d="M689.11,427.8c-.19.87-.54,1.94-1.08,2.61-.11-.08-.3-.19-.42-.23.53-.63.86-1.66,1.01-2.46l.49.09ZM690.66,426.32v4.77c0,.33-.09.46-.3.54-.22.07-.59.08-1.14.08-.03-.13-.11-.34-.19-.46.44.02.87.01.98,0,.13,0,.17-.04.17-.16v-4.77h.47ZM692.03,427.67c.53.84,1.03,1.93,1.18,2.64l-.47.2c-.14-.71-.62-1.82-1.13-2.68l.42-.16Z"/>
        <path class="cls-17" d="M693.64,427.23h2v.37h-2v-.37ZM695.51,431.43h-1.24v.27h-.38v-2h1.62v1.73ZM695.49,428.42h-1.58v-.35h1.58v.35ZM693.9,428.88h1.58v.35h-1.58v-.35ZM695.46,426.8h-1.53v-.36h1.53v.36ZM694.27,430.06v1h.86v-1h-.86ZM699.15,430.76h-.33v.5c0,.21-.05.32-.21.38-.16.06-.42.07-.82.07-.02-.11-.07-.26-.11-.36.29,0,.56,0,.63,0,.08,0,.1-.02.1-.09v-.49h-1.98v.94h-.39v-.94h-.36v-.36h.36v-1.52h1.18v-.34h-1.53v-.35h.87v-.4h-.59v-.33h.59v-.38h-.71v-.34h.71v-.5h.41v.5h.95v-.5h.4v.5h.74v.34h-.74v.38h.62v.33h-.62v.4h.83v.35h-1.55v.34h1.23v1.52h.33v.36ZM696.43,429.22v.44h.79v-.44h-.79ZM696.43,430.4h.79v-.43h-.79v.43ZM696.96,427.46h.95v-.38h-.95v.38ZM696.96,428.19h.95v-.4h-.95v.4ZM697.59,429.22v.44h.82v-.44h-.82ZM698.41,430.4v-.43h-.82v.43h.82Z"/>
        <path class="cls-17" d="M705,431.14v.4h-5.2v-.4h2.36v-.72h-1.84v-.39h1.84v-.59h-1.42v-1.38h3.31v1.38h-1.46v.59h1.94v.39h-1.94v.72h2.4ZM700.26,428.49h-.41v-1.31h1.03c-.11-.22-.31-.51-.49-.73l.39-.16c.22.24.45.56.55.79l-.22.1h1.05v-.95h.44v.95h1.1l-.26-.1c.18-.22.41-.57.55-.81l.46.16c-.19.27-.41.55-.61.75h1.12v1.31h-.43v-.91h-4.27v.91ZM701.17,429.08h2.45v-.67h-2.45v.67Z"/>
      </g>
    </g>
    <g>
      <path class="cls-17" d="M272.25,78.8c-.17.28-.37.54-.56.74-.08-.06-.26-.19-.37-.24.38-.35.71-.88.9-1.4l.42.11c-.05.15-.12.29-.19.44h1.57v.36h-1.1c.1.19.18.4.22.55l-.38.16c-.04-.19-.16-.47-.27-.7h-.23ZM276.6,81.46s0,.11-.01.18c-.08.83-.17,1.19-.32,1.34-.1.1-.21.14-.38.14-.16.01-.44.01-.75,0,0-.12-.05-.3-.12-.41.29.02.58.02.68.02.1,0,.16,0,.21-.04.08-.08.15-.32.21-.86h-1.81v1.55h-.43v-1.41c-.58.58-1.45,1.06-2.22,1.31-.07-.11-.19-.26-.28-.35.74-.2,1.56-.62,2.1-1.1h-1.18c-.02.07-.04.14-.06.2l-.43-.07c.12-.38.28-.98.37-1.45h1.7v-.61h-1.99v-.38h4.35v1.36h-1.94v.55h2.29ZM272.55,80.91c-.04.19-.09.37-.13.55h1.47v-.55h-1.34ZM276.8,78.44v.36h-1.33c.14.19.28.4.34.56l-.39.16c-.07-.2-.25-.48-.43-.71h-.43c-.19.28-.4.52-.62.71-.08-.07-.26-.2-.36-.26.41-.33.78-.83.97-1.36l.43.11c-.06.15-.13.29-.2.44h2.02ZM274.31,80.53h1.5v-.61h-1.5v.61Z"/>
      <path class="cls-17" d="M279.13,82.48h.98v-3.28h-.78v-.35c.39-.07.67-.17.91-.32h.42v3.95h.88v.46h-2.41v-.46Z"/>
      <path class="cls-17" d="M285.37,78.07c-.14.43-.33.86-.53,1.26v4.05h-.43v-3.32c-.16.25-.34.49-.51.69-.05-.1-.18-.34-.26-.44.53-.58,1.01-1.48,1.31-2.38l.41.13ZM287.63,79.55c.35,1,.97,2,1.62,2.52-.11.08-.26.23-.33.35-.63-.58-1.21-1.58-1.57-2.63v2.08h.96v.41h-.96v1.07h-.43v-1.07h-.98v-.41h.98v-2.04c-.38,1.04-.96,2.02-1.59,2.6-.08-.1-.22-.26-.32-.34.65-.53,1.28-1.54,1.64-2.55h-1.41v-.43h1.68v-1.18h.43v1.18h1.79v.43h-1.5Z"/>
      <path class="cls-17" d="M295.05,78.9h-1.57c.53.34,1.18.84,1.51,1.19l-.37.26c-.1-.12-.25-.26-.41-.4-1.5.06-3.1.1-4.15.12l-.02-.41h.83c.17-.24.37-.52.5-.76h-1.57v-.4h2.38v-.58h.45v.58h2.41v.4ZM294.23,82.92c0,.24-.06.35-.25.41-.19.06-.5.07-.98.07-.02-.11-.09-.26-.14-.37.35,0,.7,0,.8,0,.09,0,.12-.03.12-.11v-.52h-2.67v.99h-.44v-2.95h3.56v2.48ZM291.11,80.81v.46h2.67v-.46h-2.67ZM293.78,82.07v-.47h-2.67v.47h2.67ZM291.95,78.9c-.18.25-.39.51-.59.74.74-.01,1.58-.03,2.42-.05-.22-.17-.44-.34-.65-.47l.34-.22h-1.52Z"/>
      <path class="cls-17" d="M297.44,81.65c.32.42.64.98.76,1.35l-.38.18c-.05-.15-.12-.33-.22-.52-.63.18-1.28.37-1.78.5l-.14-.41.41-.1v-3.12c-.08.07-.16.14-.25.22-.06-.09-.19-.23-.28-.28.58-.45.97-1.06,1.19-1.54h.43c.37.31.79.74.98,1.04l-.29.33c-.17-.28-.52-.7-.85-1-.2.37-.5.8-.91,1.19h.75v-.57h.38v.57h.67v1.94h-1.43v1.12c.29-.07.61-.15.93-.23-.1-.18-.22-.35-.33-.51l.35-.16ZM296.5,79.82v.47h1.03v-.47h-1.03ZM297.53,81.09v-.48h-1.03v.48h1.03ZM298.96,81.01v.5h2.01v1.83h-.41v-.26h-1.6v.31h-.41v-3.82h-.37v-1.01h1.22v-.65h.43v.65h1.28v1.01h-.39v1.43h-1.76ZM298.59,78.94v.58h2.1v-.58h-2.1ZM300.32,79.89h-1.35v.75h1.35v-.75ZM298.96,81.88v.82h1.6v-.82h-1.6Z"/>
    </g>
    <g id="_第2体育館" data-name="第2体育館">
      <rect class="cls-16" x="113.36" y=".13" width="47.36" height="33.07"/>
      <g>
        <path class="cls-17" d="M120.37,13.86c-.2.33-.43.63-.66.86-.09-.07-.3-.22-.43-.28.44-.41.83-1.02,1.05-1.64l.49.13c-.06.17-.14.34-.22.51h1.83v.42h-1.28c.11.22.21.47.25.64l-.45.18c-.05-.22-.18-.55-.31-.82h-.27ZM125.44,16.97s0,.13-.01.21c-.1.97-.2,1.39-.37,1.57-.12.12-.25.16-.44.17-.18.01-.52.01-.88,0,0-.15-.06-.35-.14-.48.34.03.67.03.8.03.12,0,.19,0,.25-.05.1-.1.17-.38.25-1h-2.11v1.81h-.5v-1.65c-.67.67-1.69,1.24-2.59,1.53-.08-.13-.22-.31-.33-.41.86-.24,1.82-.73,2.46-1.28h-1.38c-.03.08-.05.17-.07.24l-.5-.08c.14-.45.32-1.15.43-1.7h1.98v-.71h-2.33v-.44h5.08v1.59h-2.26v.64h2.67ZM120.71,16.33c-.05.22-.1.43-.15.64h1.72v-.64h-1.57ZM125.68,13.44v.42h-1.55c.17.22.32.47.4.65l-.46.18c-.08-.23-.29-.56-.5-.83h-.5c-.22.32-.47.61-.72.83-.09-.08-.3-.24-.42-.3.48-.38.91-.97,1.13-1.59l.5.13c-.07.17-.15.34-.24.51h2.35ZM122.78,15.88h1.75v-.71h-1.75v.71Z"/>
        <path class="cls-17" d="M128.09,18.32c1.61-1.41,2.35-2.43,2.35-3.31,0-.59-.31-1.02-.95-1.02-.42,0-.78.26-1.06.6l-.37-.36c.42-.46.86-.76,1.51-.76.92,0,1.49.6,1.49,1.52,0,1.02-.81,2.07-2.01,3.21.27-.02.58-.05.84-.05h1.42v.55h-3.23v-.38Z"/>
        <path class="cls-17" d="M135.68,13.01c-.17.5-.39,1-.62,1.48v4.73h-.5v-3.87c-.19.29-.39.57-.6.81-.06-.12-.21-.39-.3-.51.62-.68,1.18-1.72,1.53-2.78l.48.15ZM138.32,14.74c.41,1.17,1.13,2.33,1.89,2.94-.13.09-.3.27-.39.41-.74-.67-1.41-1.85-1.83-3.07v2.43h1.13v.48h-1.13v1.25h-.5v-1.25h-1.14v-.48h1.14v-2.38c-.45,1.21-1.12,2.36-1.86,3.03-.09-.12-.26-.3-.38-.39.76-.62,1.49-1.79,1.92-2.98h-1.65v-.5h1.96v-1.38h.5v1.38h2.09v.5h-1.75Z"/>
        <path class="cls-17" d="M146.98,13.98h-1.83c.62.39,1.38.98,1.76,1.39l-.43.31c-.12-.14-.29-.3-.48-.47-1.76.07-3.62.12-4.85.14l-.02-.48h.97c.2-.28.43-.61.59-.89h-1.83v-.47h2.78v-.68h.53v.68h2.81v.47ZM146.02,18.67c0,.28-.07.41-.29.48-.22.07-.58.08-1.14.08-.03-.13-.1-.31-.17-.43.41,0,.81,0,.93,0,.11,0,.14-.04.14-.13v-.6h-3.12v1.16h-.52v-3.45h4.16v2.89ZM142.37,16.21v.54h3.12v-.54h-3.12ZM145.49,17.68v-.55h-3.12v.55h3.12ZM143.35,13.98c-.21.29-.46.6-.69.87.86-.01,1.85-.04,2.83-.06-.25-.2-.52-.39-.76-.55l.39-.26h-1.77Z"/>
        <path class="cls-17" d="M149.76,17.19c.37.49.74,1.14.88,1.58l-.44.21c-.06-.17-.14-.39-.25-.61-.74.21-1.5.43-2.08.58l-.16-.48.48-.11v-3.65c-.09.08-.19.17-.29.25-.07-.1-.22-.27-.33-.33.67-.53,1.13-1.24,1.39-1.79h.5c.43.36.92.86,1.15,1.22l-.34.39c-.2-.32-.6-.82-.99-1.16-.24.43-.58.93-1.06,1.39h.88v-.67h.45v.67h.78v2.26h-1.67v1.31c.34-.08.71-.17,1.09-.27-.12-.21-.25-.41-.38-.59l.41-.19ZM148.65,15.06v.55h1.21v-.55h-1.21ZM149.86,16.54v-.56h-1.21v.56h1.21ZM151.53,16.44v.59h2.35v2.14h-.48v-.3h-1.87v.36h-.48v-4.46h-.43v-1.18h1.42v-.76h.5v.76h1.5v1.18h-.46v1.67h-2.06ZM151.1,14.02v.68h2.46v-.68h-2.46ZM153.11,15.14h-1.58v.88h1.58v-.88ZM151.53,17.46v.96h1.87v-.96h-1.87Z"/>
      </g>
    </g>
    <g>
      <polyline class="cls-9" points="60.26 .13 60.26 33.2 61.43 33.2 107.63 33.2"/>
      <g id="_武道場" data-name="武道場">
        <rect class="cls-9" x="60.26" y=".13" width="47.37" height="33.07"/>
        <line class="cls-7" x1="60.26" y1=".13" x2="107.63" y2=".13"/>
        <g>
          <path class="cls-17" d="M77.02,19.06c.46-.08.93-.17,1.4-.26l.04.48c-1.32.25-2.75.51-3.75.69l-.13-.5.63-.1v-2.73h.48v2.65l.82-.15v-3.03h.5v.97h1.2v.47h-1.2v1.51ZM79.01,15.86c.15,2.2.6,3.71,1.24,3.71.17,0,.26-.39.29-1.32.12.11.3.22.44.27-.09,1.21-.27,1.55-.78,1.55-1.04,0-1.53-1.8-1.7-4.22h-3.84v-.49h3.82c-.03-.53-.05-1.09-.05-1.66h.52c0,.59,0,1.14.04,1.66h1.87v.49h-1.84ZM77.88,14.57h-2.65v-.47h2.65v.47ZM80.34,15.11c-.22-.29-.67-.72-1.05-1.02l.36-.27c.38.28.85.7,1.06.99l-.38.3Z"/>
          <path class="cls-17" d="M83.11,18.66c.33.51.94.75,1.74.79.76.03,2.32,0,3.14-.05-.06.13-.15.37-.17.53-.76.03-2.2.04-2.97.01-.91-.04-1.53-.29-1.98-.83-.34.29-.69.59-1.06.9l-.28-.53c.32-.21.71-.5,1.06-.8v-1.77h-.97v-.49h1.48v2.23ZM82.89,15.27c-.22-.34-.74-.8-1.19-1.11l.38-.32c.45.29.97.74,1.22,1.08l-.41.34ZM85.2,15.56c.04-.17.08-.37.1-.55h-1.86v-.43h1.18c-.09-.22-.27-.5-.44-.71l.4-.15c.22.22.43.55.52.79l-.18.08h1.14c.17-.25.38-.64.49-.89l.52.13c-.15.26-.32.54-.48.76h1.27v.43h-2c-.06.19-.13.38-.2.55h1.65v3.31h-3.32v-3.31h1.2ZM86.81,15.95h-2.32v.58h2.32v-.58ZM86.81,16.91h-2.32v.58h2.32v-.58ZM86.81,17.87h-2.32v.59h2.32v-.59Z"/>
          <path class="cls-17" d="M90.78,17.79c-.71.36-1.47.73-2.06,1.01l-.2-.51c.27-.11.6-.25.95-.41v-2.19h-.82v-.49h.82v-1.46h.48v1.46h.76v.49h-.76v1.97l.71-.32.11.46ZM92.08,16.98c-.09.17-.19.34-.3.49h3.01s0,.14-.02.21c-.11,1.44-.22,1.99-.41,2.19-.11.12-.23.15-.39.18-.15,0-.41,0-.69,0,0-.13-.05-.31-.12-.42.26.02.49.03.6.03.1,0,.16,0,.21-.08.12-.13.22-.57.32-1.67h-.55c-.28.83-.83,1.74-1.43,2.19-.08-.11-.25-.22-.37-.3.57-.38,1.08-1.13,1.37-1.89h-.68c-.37.72-1.06,1.48-1.7,1.89-.08-.11-.22-.24-.34-.32.58-.31,1.2-.95,1.58-1.57h-.71c-.28.32-.6.59-.91.8-.07-.08-.25-.25-.36-.32.55-.33,1.06-.83,1.39-1.4h-.98v-.44h4.38v.44h-2.88ZM94.46,16.15h-3.2v-2.26h3.2v2.26ZM93.98,14.28h-2.24v.55h2.24v-.55ZM93.98,15.2h-2.24v.56h2.24v-.56Z"/>
        </g>
      </g>
    </g>
    <text/>
    <g>
      <rect class="cls-16" x="480.05" y="200.02" width="7" height=".84"/>
      <polyline class="cls-5" points="480.94 200.02 481.27 198.58 485.81 198.58 486.17 200.02"/>
      <polyline class="cls-5" points="486.24 200.86 485.9 206.19 481.23 206.19 480.87 200.86"/>
      <line class="cls-16" x1="482.35" y1="201.5" x2="482.35" y2="205.31"/>
      <line class="cls-16" x1="483.55" y1="201.5" x2="483.55" y2="205.31"/>
      <line class="cls-16" x1="484.81" y1="201.5" x2="484.81" y2="205.31"/>
      <line class="cls-5" x1="480.19" y1="199.88" x2="480.19" y2="201"/>
      <line class="cls-5" x1="486.9" y1="199.88" x2="486.9" y2="201"/>
    </g>
    <g id="_多目的室" data-name="多目的室">
      <rect class="cls-16" x="510.85" y="113.28" width="41.46" height="23.92"/>
      <g>
        <path class="cls-17" d="M523.92,123.26c-.77,1.38-2.53,2.22-4.1,2.57-.04-.12-.13-.29-.22-.39.75-.14,1.56-.41,2.25-.8-.26-.22-.68-.49-1.05-.68-.26.14-.55.28-.85.4-.07-.11-.21-.26-.31-.33,1.07-.38,1.85-.94,2.27-1.44l.5.11c-.12.14-.25.27-.4.4h1.54l.08-.02.28.18ZM524.8,125.32c-.75,1.73-2.61,2.48-4.54,2.76-.04-.11-.13-.31-.2-.4.94-.11,1.86-.35,2.63-.76-.28-.26-.74-.58-1.15-.8-.31.15-.64.29-1,.42-.05-.1-.18-.26-.27-.34,1.25-.4,2.16-1.01,2.63-1.58l.49.11c-.13.15-.28.3-.44.44h1.49l.08-.02.29.16ZM521.56,123.48c-.12.09-.25.17-.38.26.39.2.82.46,1.06.67.41-.27.77-.58,1.03-.93h-1.72ZM522.46,125.56c-.16.12-.34.23-.53.34.41.23.88.54,1.15.79.46-.3.84-.67,1.1-1.13h-1.72Z"/>
        <path class="cls-17" d="M530.2,122.97v5.07h-.46v-.41h-3.14v.41h-.44v-5.07h4.04ZM526.6,123.4v.97h3.14v-.97h-3.14ZM526.6,124.8v.98h3.14v-.98h-3.14ZM529.74,127.19v-.98h-3.14v.98h3.14Z"/>
        <path class="cls-17" d="M533.13,122.67c-.1.29-.21.62-.31.88h1v3.89h-1.67v.47h-.41v-4.37h.67c.09-.29.2-.69.24-.97l.48.09ZM533.41,123.96h-1.26v1.25h1.26v-1.25ZM533.41,127.05v-1.44h-1.26v1.44h1.26ZM536.75,123.77c-.1,2.73-.17,3.66-.41,3.95-.13.17-.27.22-.47.24-.21.02-.55.01-.89,0-.01-.13-.07-.31-.15-.44.39.04.75.04.89.04.12,0,.19-.01.25-.09.2-.21.29-1.12.37-3.51h-1.52c-.17.4-.35.77-.56,1.05-.08-.07-.27-.19-.37-.25.4-.53.73-1.36.92-2.18l.43.1c-.07.29-.16.58-.26.86h1.79v.23ZM535.42,126.47c-.18-.36-.58-.95-.91-1.38l.35-.2c.34.43.75,1,.94,1.36l-.38.23Z"/>
        <path class="cls-17" d="M542.85,127.5v.4h-5.28v-.4h2.39v-.75h-1.84v-.4h1.84v-.67c-.73.02-1.4.04-1.92.06l-.02-.41c.25,0,.53,0,.83-.01.17-.26.37-.59.51-.87h-1.1v-.4h3.94v.4h-2.33c-.17.28-.37.59-.55.86.67-.02,1.43-.04,2.18-.06-.2-.16-.41-.32-.6-.45l.32-.22c.5.32,1.11.8,1.39,1.15l-.34.25c-.09-.11-.21-.23-.35-.37-.5.02-1.01.04-1.5.05v.69h1.92v.4h-1.92v.75h2.44ZM538.07,124.15h-.43v-1.1h2.32v-.44h.45v.44h2.36v1.1h-.44v-.69h-4.26v.69Z"/>
      </g>
    </g>
    <g id="_陶芸室" data-name="陶芸室">
      <polygon class="cls-9" points="525.4 36.28 525.4 72.44 512.78 72.44 512.78 61.7 498.61 61.7 498.61 36.28 525.4 36.28"/>
      <g>
        <path class="cls-17" d="M504.61,47.46c-.2.57-.46,1.28-.69,1.83.5.57.62,1.06.62,1.49,0,.38-.08.67-.27.8-.1.06-.22.11-.36.13-.14.01-.3.01-.47.01,0-.13-.05-.33-.13-.46.16.01.29.01.41.01.08,0,.16-.03.22-.06.1-.08.13-.27.13-.48,0-.37-.12-.84-.62-1.38.2-.5.41-1.13.55-1.6h-.9v5.62h-.46v-6.09h1.55l.08-.02.34.2ZM508.6,48.17c-.06,3.49-.1,4.6-.33,4.92-.13.2-.27.26-.48.28-.21.02-.56.01-.9,0-.01-.13-.06-.33-.14-.45.36.03.69.03.84.03.11,0,.18-.02.25-.12.18-.22.24-1.34.28-4.47h-2.86c-.21.39-.46.74-.7,1.02-.08-.07-.27-.2-.38-.26.5-.52.92-1.31,1.18-2.12l.45.11c-.09.27-.2.53-.32.79h3.11v.27ZM505.32,52.12v.47h-.39v-1.72h.39v.85h.69v-1.13h-1.23v-.39h1.23v-.71h-.42c-.13.2-.27.4-.43.59-.08-.09-.22-.2-.34-.24.38-.4.64-.92.79-1.33l.42.07c-.07.17-.14.34-.23.52h1.73v.39h-1.1v.71h1.25v.39h-1.25v1.13h.65v-.85h.4v1.52h-.4v-.28h-1.76Z"/>
        <path class="cls-17" d="M511.95,50.95c-.25.55-.56,1.21-.84,1.7.97-.04,2.12-.1,3.24-.16-.31-.36-.69-.74-1.04-1.04l.43-.25c.68.57,1.45,1.39,1.79,1.96l-.47.29c-.08-.15-.2-.32-.34-.5-1.81.12-3.75.23-5.02.3l-.06-.54.89-.04c.27-.48.57-1.17.77-1.73h-1.89v-.48h6.25v.48h-3.71ZM511.05,48.14h-1.58v-.48h1.58v-.68h.51v.68h1.91v-.68h.52v.68h1.6v.48h-1.6v.64h-.52v-.64h-1.91v.64h-.51v-.64ZM510.16,49.12h4.78v.47h-4.78v-.47Z"/>
        <path class="cls-17" d="M522.63,52.71v.47h-6.16v-.47h2.79v-.88h-2.15v-.46h2.15v-.78c-.85.03-1.63.05-2.25.07l-.03-.48c.29,0,.62,0,.97-.01.2-.3.43-.69.6-1.02h-1.29v-.46h4.6v.46h-2.72c-.2.33-.43.69-.64,1,.78-.02,1.67-.04,2.54-.07-.23-.19-.48-.37-.7-.53l.37-.26c.59.37,1.3.94,1.62,1.34l-.39.29c-.11-.13-.25-.27-.41-.43-.58.02-1.18.04-1.75.06v.81h2.24v.46h-2.24v.88h2.85ZM517.05,48.8h-.5v-1.29h2.7v-.52h.53v.52h2.76v1.29h-.52v-.81h-4.97v.81Z"/>
      </g>
    </g>
    <g id="_技術室" data-name="技術室">
      <polygon class="cls-16" points="443.91 78.17 443.91 99 425.19 99 425.19 117.55 484.26 117.55 484.26 106.08 484.26 99 484.26 78.17 443.91 78.17"/>
      <g>
        <path class="cls-17" d="M449.47,97.51c-.28.08-.57.17-.84.25v1.98c0,.29-.08.43-.26.52-.17.08-.47.1-.95.09-.01-.13-.09-.34-.16-.48.34,0,.64,0,.72,0,.1,0,.14-.04.14-.13v-1.83l-.84.25-.15-.51c.28-.06.62-.15.99-.25v-1.53h-.9v-.49h.9v-1.4h.51v1.4h.77v.49h-.77v1.39c.25-.07.52-.15.77-.22l.07.48ZM453.2,96.73c-.29.96-.79,1.72-1.42,2.3.5.41,1.11.71,1.81.9-.11.11-.26.31-.34.45-.73-.22-1.35-.56-1.87-1.02-.6.46-1.27.78-1.99,1-.06-.14-.18-.36-.28-.47.68-.18,1.33-.48,1.9-.89-.49-.53-.88-1.17-1.15-1.92h.02s-.23,0-.23,0v-.48h1.5v-1.04h-1.64v-.48h1.64v-1.1h.51v1.1h1.67v.48h-1.67v1.04h1.11l.08-.02.34.15ZM450.37,97.08c.24.61.59,1.16,1.03,1.61.48-.43.88-.97,1.13-1.61h-2.16Z"/>
        <path class="cls-17" d="M457.52,95.99v4.27h-.48v-4.27h-1.05v-.42c-.17.34-.36.68-.59,1v3.8h-.48v-3.18c-.2.24-.41.46-.62.64-.06-.11-.21-.35-.31-.46.6-.49,1.19-1.23,1.55-2l.45.15h0s1.05-.01,1.05-.01v-1.43h.48v1.43h1.06v.48h-1.06ZM455.81,94.15c-.34.58-.9,1.21-1.42,1.62-.07-.11-.2-.29-.29-.38.48-.36.99-.92,1.25-1.4l.47.17ZM456.61,96.9c-.08.99-.22,1.93-.53,2.57-.08-.07-.27-.2-.38-.25.29-.59.41-1.48.46-2.39l.44.06ZM458.31,95.28c-.1-.27-.36-.67-.58-.97l.34-.17c.25.29.5.69.6.95l-.36.18ZM458.27,96.85c.18.67.34,1.5.39,2.07l-.43.08c-.03-.56-.19-1.42-.36-2.07l.4-.08ZM460.55,96.78h-.62v2.98c0,.28-.06.43-.25.53-.2.08-.51.08-1,.08-.02-.14-.08-.36-.15-.5.36.01.69.01.79.01.1,0,.13-.04.13-.13v-2.98h-.81v-.48h1.93v.48ZM460.45,94.85h-1.66v-.46h1.66v.46Z"/>
        <path class="cls-17" d="M467.45,99.7v.47h-6.16v-.47h2.79v-.88h-2.15v-.46h2.15v-.78c-.85.03-1.63.05-2.25.07l-.03-.48c.29,0,.62,0,.97-.01.2-.3.43-.69.6-1.02h-1.29v-.46h4.6v.46h-2.72c-.2.33-.43.69-.64,1,.78-.02,1.67-.04,2.54-.07-.23-.19-.48-.37-.7-.53l.37-.26c.59.37,1.3.94,1.62,1.34l-.39.29c-.11-.13-.25-.27-.41-.43-.58.02-1.18.04-1.75.06v.81h2.24v.46h-2.24v.88h2.85ZM461.87,95.79h-.5v-1.29h2.7v-.52h.53v.52h2.76v1.29h-.52v-.81h-4.97v.81Z"/>
      </g>
    </g>
    <g id="_美術室" data-name="美術室">
      <rect class="cls-9" x="425.19" y="36.28" width="59.07" height="33.72"/>
      <g>
        <path class="cls-17" d="M448.17,54.71c.46.78,1.35,1.18,2.7,1.31-.12.1-.26.33-.32.47-1.5-.19-2.42-.72-2.92-1.78h-.04c-.35.91-1.11,1.48-2.92,1.77-.04-.13-.17-.35-.27-.46,1.57-.23,2.27-.65,2.61-1.32h-2.51v-.46h2.69c.05-.2.08-.41.11-.64h-2.75v-.48h2.8v-.58h-2.18v-.46h2.18v-.57h-2.52v-.47h1.42c-.11-.25-.32-.57-.53-.8l.45-.18c.25.25.5.62.61.88l-.22.11h2.09l-.26-.09c.2-.24.46-.63.6-.89l.53.16c-.2.31-.43.6-.63.82h1.54v.47h-2.56v.57h2.25v.46h-2.25v.58h2.83v.48h-2.86c-.02.23-.06.44-.1.64h3.03v.46h-2.6Z"/>
        <path class="cls-17" d="M454.79,52.1v4.27h-.48v-4.27h-1.05v-.42c-.17.34-.36.68-.59,1v3.8h-.48v-3.18c-.2.24-.41.46-.62.64-.06-.11-.21-.35-.31-.46.6-.49,1.19-1.23,1.55-2l.45.15h0s1.05-.01,1.05-.01v-1.43h.48v1.43h1.06v.48h-1.06ZM453.08,50.26c-.34.58-.9,1.21-1.42,1.62-.07-.11-.2-.29-.29-.38.48-.36.99-.92,1.25-1.4l.47.17ZM453.88,53.01c-.08.99-.22,1.93-.53,2.57-.08-.07-.27-.2-.38-.25.29-.59.41-1.48.46-2.39l.44.06ZM455.58,51.4c-.1-.27-.36-.67-.58-.97l.34-.17c.25.29.5.69.6.95l-.36.18ZM455.53,52.97c.18.67.34,1.5.39,2.07l-.43.08c-.03-.56-.19-1.42-.36-2.07l.4-.08ZM457.82,52.89h-.62v2.98c0,.28-.06.43-.25.53-.2.08-.51.08-1,.08-.02-.14-.08-.36-.15-.5.36.01.69.01.79.01.1,0,.13-.04.13-.13v-2.98h-.81v-.48h1.93v.48ZM457.72,50.96h-1.66v-.46h1.66v.46Z"/>
        <path class="cls-17" d="M464.72,55.82v.47h-6.16v-.47h2.79v-.88h-2.15v-.46h2.15v-.78c-.85.03-1.63.05-2.25.07l-.03-.48c.29,0,.62,0,.97-.01.2-.3.43-.69.6-1.02h-1.29v-.46h4.6v.46h-2.72c-.2.33-.43.69-.64,1,.78-.02,1.67-.04,2.54-.07-.23-.19-.48-.37-.7-.53l.37-.26c.59.37,1.3.94,1.62,1.34l-.39.29c-.11-.13-.25-.27-.41-.43-.58.02-1.18.04-1.75.06v.81h2.24v.46h-2.24v.88h2.85ZM459.14,51.9h-.5v-1.29h2.7v-.52h.53v.52h2.76v1.29h-.52v-.81h-4.97v.81Z"/>
      </g>
    </g>
    <g>
      <rect class="cls-16" x="361.99" y="143.88" width="7" height=".84"/>
      <polyline class="cls-5" points="362.88 143.88 363.21 142.45 367.75 142.45 368.1 143.88"/>
      <polyline class="cls-5" points="368.18 144.72 367.84 150.06 363.17 150.06 362.8 144.72"/>
      <line class="cls-16" x1="364.29" y1="145.36" x2="364.29" y2="149.18"/>
      <line class="cls-16" x1="365.49" y1="145.36" x2="365.49" y2="149.18"/>
      <line class="cls-16" x1="366.74" y1="145.36" x2="366.74" y2="149.18"/>
      <line class="cls-5" x1="362.13" y1="143.74" x2="362.13" y2="144.86"/>
      <line class="cls-5" x1="368.84" y1="143.74" x2="368.84" y2="144.86"/>
    </g>
    <g>
      <rect class="cls-16" x="410.48" y="190.55" width="7" height=".84"/>
      <polyline class="cls-5" points="411.37 190.55 411.7 189.12 416.24 189.12 416.59 190.55"/>
      <polyline class="cls-5" points="416.67 191.39 416.32 196.73 411.65 196.73 411.29 191.39"/>
      <line class="cls-16" x1="412.78" y1="192.03" x2="412.78" y2="195.85"/>
      <line class="cls-16" x1="413.98" y1="192.03" x2="413.98" y2="195.85"/>
      <line class="cls-16" x1="415.23" y1="192.03" x2="415.23" y2="195.85"/>
      <line class="cls-5" x1="410.62" y1="190.41" x2="410.62" y2="191.53"/>
      <line class="cls-5" x1="417.32" y1="190.41" x2="417.32" y2="191.53"/>
    </g>
    <g>
      <rect class="cls-16" x="541.94" y="199.13" width="7" height=".84"/>
      <polyline class="cls-5" points="542.83 199.13 543.16 197.69 547.7 197.69 548.05 199.13"/>
      <polyline class="cls-5" points="548.13 199.97 547.79 205.3 543.11 205.3 542.75 199.97"/>
      <line class="cls-16" x1="544.24" y1="200.6" x2="544.24" y2="204.42"/>
      <line class="cls-16" x1="545.44" y1="200.6" x2="545.44" y2="204.42"/>
      <line class="cls-16" x1="546.69" y1="200.6" x2="546.69" y2="204.42"/>
      <line class="cls-5" x1="542.08" y1="198.99" x2="542.08" y2="200.11"/>
      <line class="cls-5" x1="548.78" y1="198.99" x2="548.78" y2="200.11"/>
    </g>
    <g>
      <rect class="cls-16" x="621.72" y="168.31" width="7" height=".84"/>
      <polyline class="cls-5" points="622.61 168.31 622.94 166.88 627.48 166.88 627.83 168.31"/>
      <polyline class="cls-5" points="627.91 169.15 627.57 174.49 622.89 174.49 622.53 169.15"/>
      <line class="cls-16" x1="624.02" y1="169.79" x2="624.02" y2="173.61"/>
      <line class="cls-16" x1="625.22" y1="169.79" x2="625.22" y2="173.61"/>
      <line class="cls-16" x1="626.47" y1="169.79" x2="626.47" y2="173.61"/>
      <line class="cls-5" x1="621.86" y1="168.17" x2="621.86" y2="169.29"/>
      <line class="cls-5" x1="628.56" y1="168.17" x2="628.56" y2="169.29"/>
    </g>
    <g>
      <rect class="cls-16" x="630.42" y="230.97" width="7" height=".84"/>
      <polyline class="cls-5" points="631.31 230.97 631.64 229.53 636.18 229.53 636.53 230.97"/>
      <polyline class="cls-5" points="636.61 231.81 636.27 237.14 631.59 237.14 631.23 231.81"/>
      <line class="cls-16" x1="632.72" y1="232.44" x2="632.72" y2="236.26"/>
      <line class="cls-16" x1="633.92" y1="232.44" x2="633.92" y2="236.26"/>
      <line class="cls-16" x1="635.17" y1="232.44" x2="635.17" y2="236.26"/>
      <line class="cls-5" x1="630.56" y1="230.83" x2="630.56" y2="231.95"/>
      <line class="cls-5" x1="637.26" y1="230.83" x2="637.26" y2="231.95"/>
    </g>
    <g>
      <rect class="cls-16" x="631.72" y="299.83" width="7" height=".84"/>
      <polyline class="cls-5" points="632.61 299.83 632.94 298.39 637.48 298.39 637.83 299.83"/>
      <polyline class="cls-5" points="637.91 300.67 637.57 306 632.89 306 632.53 300.67"/>
      <line class="cls-16" x1="634.02" y1="301.31" x2="634.02" y2="305.12"/>
      <line class="cls-16" x1="635.22" y1="301.31" x2="635.22" y2="305.12"/>
      <line class="cls-16" x1="636.47" y1="301.31" x2="636.47" y2="305.12"/>
      <line class="cls-5" x1="631.86" y1="299.69" x2="631.86" y2="300.81"/>
      <line class="cls-5" x1="638.56" y1="299.69" x2="638.56" y2="300.81"/>
    </g>
    <g>
      <rect class="cls-16" x="500.55" y="298.94" width="7" height=".84"/>
      <polyline class="cls-5" points="501.44 298.94 501.77 297.5 506.31 297.5 506.66 298.94"/>
      <polyline class="cls-5" points="506.74 299.78 506.4 305.11 501.73 305.11 501.36 299.78"/>
      <line class="cls-16" x1="502.85" y1="300.41" x2="502.85" y2="304.23"/>
      <line class="cls-16" x1="504.05" y1="300.41" x2="504.05" y2="304.23"/>
      <line class="cls-16" x1="505.3" y1="300.41" x2="505.3" y2="304.23"/>
      <line class="cls-5" x1="500.69" y1="298.8" x2="500.69" y2="299.92"/>
      <line class="cls-5" x1="507.39" y1="298.8" x2="507.39" y2="299.92"/>
    </g>
    <g>
      <rect class="cls-16" x="133.59" y="36.78" width="7" height=".84"/>
      <polyline class="cls-5" points="134.48 36.78 134.81 35.34 139.35 35.34 139.71 36.78"/>
      <polyline class="cls-5" points="139.78 37.62 139.44 42.95 134.77 42.95 134.41 37.62"/>
      <line class="cls-16" x1="135.89" y1="38.26" x2="135.89" y2="42.07"/>
      <line class="cls-16" x1="137.09" y1="38.26" x2="137.09" y2="42.07"/>
      <line class="cls-16" x1="138.35" y1="38.26" x2="138.35" y2="42.07"/>
      <line class="cls-5" x1="133.73" y1="36.64" x2="133.73" y2="37.76"/>
      <line class="cls-5" x1="140.44" y1="36.64" x2="140.44" y2="37.76"/>
    </g>
    <g>
      <path class="cls-24" d="M319.48,268.96c-.14.35-.3.69-.49,1v3.26s-.34,0-.34,0v-2.74c-.17.23-.34.44-.52.62-.04-.08-.14-.26-.2-.35.48-.46.94-1.17,1.21-1.89l.34.1ZM321.24,271.51c.32.5.8.99,1.26,1.24-.08.06-.19.19-.25.28-.43-.28-.89-.78-1.22-1.3v1.5s-.35,0-.35,0v-1.49c-.34.53-.82,1.01-1.28,1.28-.06-.09-.17-.22-.25-.28.49-.25,1-.72,1.33-1.23h-1.19v-.33h1.39s0-.6,0-.6h-1.04v-1.52s2.48,0,2.48,0v1.52s-1.08,0-1.08,0v.6s1.35,0,1.35,0v.33h-1.14ZM319.98,270.27h1.78s0-.88,0-.88h-1.78s0,.88,0,.88Z"/>
      <path class="cls-24" d="M323.98,268.96c-.09.3-.21.6-.34.89v3.37s-.31,0-.31,0v-2.75c-.14.23-.28.43-.42.61-.03-.08-.13-.27-.18-.36.39-.45.73-1.14.94-1.85l.32.09ZM324.92,270.61c-.06.7-.18,1.26-.37,1.7.32.4.78.52,1.39.52.15,0,1.12,0,1.32,0-.05.08-.11.23-.12.33h-1.22c-.68,0-1.17-.12-1.53-.53-.14.25-.31.44-.51.6-.05-.07-.14-.19-.21-.26.2-.14.37-.36.52-.63-.14-.25-.26-.58-.35-1l.28-.09c.06.29.13.53.22.72.12-.32.2-.69.25-1.12h-.41s-.11.23-.11.23l-.3-.07c.22-.45.48-1.05.64-1.47h-.5v-.3h.65l.06-.02.23.07c-.14.36-.35.84-.55,1.29h.42s.19.03.19.03ZM325.77,269.54h-.7s0-.28,0-.28h.7v-.38s.33,0,.33,0v.38s.86,0,.86,0v.64h.29s0,.28,0,.28h-.29v.65h-.86v.37h.92v.28h-.92v.38h1.06s0,.27,0,.27h-1.06v.55h-.33v-.55h-.92s0-.27,0-.27h.92v-.38h-.78v-.28h.78s0-.37,0-.37h-.7s0-.27,0-.27h.7v-.38h-1.02v-.28s1.02,0,1.02,0v-.36ZM326.1,269.54v.36h.55v-.36h-.55ZM326.65,270.18h-.55v.38h.55v-.38Z"/>
      <path class="cls-24" d="M331.94,272.77v.32s-4.23,0-4.23,0v-.32s1.91,0,1.91,0v-.6h-1.48s0-.32,0-.32h1.48v-.54c-.58.02-1.12.03-1.54.05l-.02-.33c.2,0,.42,0,.67,0,.14-.21.29-.47.41-.7h-.88v-.32h3.16s0,.32,0,.32h-1.86c-.13.23-.29.48-.44.69.54-.02,1.14-.03,1.74-.05-.16-.13-.33-.25-.48-.36l.25-.18c.4.25.89.64,1.12.92l-.27.2c-.07-.09-.17-.19-.28-.29-.4.01-.81.03-1.2.04v.55h1.54s0,.32,0,.32h-1.54v.6h1.96ZM328.11,270.09h-.34v-.88s1.85,0,1.85,0v-.36s.36,0,.36,0v.36s1.89,0,1.89,0v.88s-.36,0-.36,0v-.55s-3.41,0-3.41,0v.55Z"/>
    </g>
    <g>
      <path class="cls-17" d="M614.86,316.01h2v.37h-2v-.37ZM616.72,320.2h-1.24v.27h-.38v-2h1.62v1.73ZM616.7,317.19h-1.58v-.35h1.58v.35ZM615.12,317.65h1.58v.35h-1.58v-.35ZM616.67,315.57h-1.53v-.36h1.53v.36ZM615.48,318.83v1h.86v-1h-.86ZM620.36,319.53h-.33v.5c0,.21-.05.32-.21.38-.16.06-.42.07-.82.07-.02-.11-.07-.26-.11-.36.29,0,.56,0,.63,0,.08,0,.1-.02.1-.09v-.49h-1.98v.94h-.39v-.94h-.36v-.36h.36v-1.52h1.18v-.34h-1.53v-.35h.87v-.4h-.59v-.33h.59v-.38h-.71v-.34h.71v-.5h.41v.5h.95v-.5h.4v.5h.74v.34h-.74v.38h.62v.33h-.62v.4h.83v.35h-1.55v.34h1.23v1.52h.33v.36ZM617.64,317.99v.44h.79v-.44h-.79ZM617.64,319.17h.79v-.43h-.79v.43ZM618.17,316.23h.95v-.38h-.95v.38ZM618.17,316.96h.95v-.4h-.95v.4ZM618.8,317.99v.44h.82v-.44h-.82ZM619.62,319.17v-.43h-.82v.43h.82Z"/>
      <path class="cls-17" d="M626.21,319.92v.4h-5.2v-.4h2.36v-.72h-1.84v-.39h1.84v-.59h-1.42v-1.38h3.31v1.38h-1.46v.59h1.94v.39h-1.94v.72h2.4ZM621.47,317.26h-.41v-1.31h1.03c-.11-.22-.31-.51-.49-.73l.39-.16c.22.24.45.56.55.79l-.22.1h1.05v-.95h.44v.95h1.1l-.26-.1c.18-.22.41-.57.55-.81l.46.16c-.19.27-.41.55-.61.75h1.12v1.31h-.43v-.91h-4.27v.91ZM622.38,317.85h2.45v-.67h-2.45v.67Z"/>
      <path class="cls-17" d="M609.51,325.38l-.41-.28c.4-.37.91-1.08,1.15-1.56l.42.2c-.25.51-.81,1.28-1.15,1.64ZM611.94,321.74v.62h1.58c.14,0,.34-.01.49-.03v.5c-.16-.01-.34-.02-.49-.02h-1.59v2.91c0,.31-.15.47-.52.47-.25,0-.61-.01-.85-.04l-.04-.47c.26.05.53.07.69.07s.23-.07.23-.23v-2.7h-1.66c-.19,0-.35,0-.52.02v-.51c.17.02.32.04.51.04h1.67v-.62c0-.13-.02-.34-.04-.43h.56c-.01.08-.04.3-.04.43ZM614.2,325.11l-.44.25c-.23-.47-.68-1.22-1-1.59l.41-.22c.32.38.8,1.14,1.04,1.57Z"/>
      <path class="cls-17" d="M619.78,322.3c-.11.71-.23,1.56-.67,2.24-.49.77-1.31,1.38-2.27,1.69l-.41-.41c.88-.23,1.74-.75,2.23-1.52.34-.53.51-1.3.57-2.01h-3.31v1.2c0,.09,0,.24.02.38h-.54c.02-.14.02-.27.02-.38v-1.28c0-.14,0-.27-.02-.4.16.01.38.02.64.02h3.08c.13,0,.28-.01.38-.04l.37.23c-.02.06-.07.22-.08.28Z"/>
      <path class="cls-17" d="M623.74,322.73c.62-.39,1.22-.91,1.64-1.41l.4.37c-.46.47-1.01.93-1.62,1.34v2.53c0,.23.01.52.04.64h-.59c.02-.11.04-.41.04-.64v-2.22c-.63.36-1.45.72-2.28.98l-.24-.47c1.04-.28,1.96-.7,2.62-1.12Z"/>
      <path class="cls-17" d="M627.98,322.04h3.3c.18,0,.37-.02.51-.04v.53c-.15-.02-.34-.02-.51-.02h-1.44v2.76h1.76c.18,0,.34-.02.5-.04v.54c-.16-.02-.38-.02-.5-.02h-3.96c-.16,0-.34,0-.53.02v-.54c.18.02.37.04.53.04h1.69v-2.76h-1.35c-.11,0-.35,0-.5.02v-.53c.16.02.38.04.5.04Z"/>
    </g>
    <g>
      <path class="cls-17" d="M88.01,56.32c-.06.13-.13.25-.21.38h2.44c.24,0,.44-.03.58-.08l.59.36c-.07.13-.16.33-.21.48-.24.91-.79,2.12-1.59,3.11-.82,1-1.9,1.82-3.58,2.45l-.66-.59c1.66-.49,2.78-1.3,3.6-2.26.69-.82,1.25-1.99,1.43-2.81h-3.03c-.55.76-1.3,1.57-2.29,2.21l-.62-.46c1.55-.93,2.43-2.24,2.83-3.04.09-.16.22-.49.28-.72l.83.28c-.14.23-.31.54-.4.7ZM91.57,56.42l-.49.22c-.18-.36-.49-.91-.73-1.24l.48-.21c.23.32.55.86.74,1.23ZM92.58,56.05l-.49.22c-.2-.39-.5-.9-.75-1.23l.48-.21c.23.33.59.89.76,1.22Z"/>
      <path class="cls-17" d="M100.73,58.32c-.24.89-.65,1.83-1.31,2.56-.95,1.04-2.07,1.57-3.22,1.88l-.56-.64c1.28-.26,2.4-.84,3.17-1.65.55-.58.91-1.34,1.07-1.99h-4.78c-.22,0-.56,0-.88.03v-.76c.33.04.64.05.88.05h4.75c.21,0,.4-.02.5-.07l.51.32c-.04.08-.1.2-.12.26ZM95.83,55.73h3.54c.29,0,.6,0,.82-.04v.75c-.22-.02-.52-.03-.83-.03h-3.53c-.28,0-.57,0-.81.03v-.75c.23.04.52.04.81.04Z"/>
      <path class="cls-17" d="M106.76,55.86v.84h2.02c.33,0,.5-.03.62-.07l.49.31c-.04.13-.1.37-.13.54-.12.72-.38,1.85-.88,2.71-.67,1.18-1.92,2.1-3.56,2.55l-.59-.67c.31-.04.65-.14.94-.25.9-.29,1.89-.96,2.44-1.81.49-.77.77-1.85.86-2.63h-5.03v1.61c0,.16,0,.4.04.54h-.78c.02-.16.03-.41.03-.58v-1.58c0-.19,0-.5-.03-.69.26.03.52.04.84.04h1.99v-.84c0-.19,0-.4-.04-.67h.86c-.04.28-.05.49-.05.67Z"/>
      <path class="cls-17" d="M115.81,60.51c1.39-.87,2.49-2.21,3.01-3.31l.43.76c-.61,1.13-1.67,2.35-3.03,3.21-.9.57-2.03,1.12-3.54,1.4l-.48-.74c1.58-.23,2.75-.78,3.6-1.31ZM115.28,57.66l-.57.57c-.45-.47-1.58-1.43-2.24-1.88l.51-.55c.64.42,1.79,1.36,2.29,1.86Z"/>
      <path class="cls-17" d="M122.69,56.48c0-.25-.02-.66-.07-.94h.89c-.04.28-.06.67-.06.94v1.47c1.19.37,2.89,1.01,3.84,1.49l-.32.77c-.97-.53-2.53-1.13-3.53-1.44v2.96c0,.29.03.77.05,1.06h-.86c.04-.29.05-.73.05-1.06v-5.24ZM126.67,57.27l-.51.23c-.23-.47-.5-.96-.8-1.37l.5-.23c.23.33.61.94.82,1.36ZM127.78,56.79l-.5.25c-.24-.48-.53-.95-.84-1.35l.5-.23c.23.31.63.92.85,1.33Z"/>
    </g>
    <g id="_外ステージ" data-name="外ステージ">
      <path class="cls-2" d="M424.89,127.59v12.62c14.11,7.04,28.22,14.08,42.33,21.12h10.59v-33.73h-52.92Z"/>
      <g>
        <path class="cls-17" d="M448.73,140.64c.34.32.73.59,1.11.76-.08.07-.19.21-.25.3-.29-.15-.58-.36-.86-.6v1.7s-.36,0-.36,0v-2.05c-.28-.29-.53-.62-.72-.94-.35,1.51-1.07,2.47-1.98,2.98-.06-.08-.2-.21-.28-.26.57-.3,1.06-.76,1.42-1.41-.22-.21-.59-.48-.92-.68-.1.13-.21.26-.32.37-.06-.06-.21-.18-.29-.23.53-.49.93-1.28,1.15-2.14l.35.07c-.06.23-.13.45-.22.66h.9s.07-.02.07-.02l.23.09c-.02.14-.05.27-.07.4l.19-.07c.13.24.3.48.49.7v-1.83s.36,0,.36,0v2.21ZM446.42,139.5c-.11.24-.23.47-.36.67.31.18.67.42.9.63.17-.38.3-.81.39-1.3h-.94Z"/>
        <path class="cls-17" d="M453.41,139.44c-.16.41-.47.98-.81,1.41.5.43,1.09,1.06,1.4,1.44l-.34.29c-.32-.42-.83-.99-1.32-1.43-.51.55-1.16,1.08-1.87,1.4l-.31-.32c.77-.3,1.49-.88,1.98-1.43.33-.37.68-.94.8-1.34h-1.88c-.17,0-.43.02-.49.03v-.44c.07,0,.34.03.49.03h1.86c.16,0,.28-.02.36-.04l.25.19s-.09.14-.12.21Z"/>
        <path class="cls-17" d="M454.92,140.12h3.15c.1,0,.26,0,.38-.03v.4c-.11,0-.26,0-.38,0h-1.31c-.01.52-.09.96-.28,1.31-.17.32-.54.67-.95.88l-.36-.26c.38-.15.72-.43.91-.74.21-.34.26-.74.28-1.19h-1.44c-.14,0-.28,0-.42.01v-.4c.13.01.27.02.42.02ZM455.51,138.92h1.95c.13,0,.31-.01.45-.03v.4c-.14,0-.31-.01-.45-.01h-1.94c-.16,0-.32,0-.44.02v-.4c.13.01.28.03.43.03Z"/>
        <path class="cls-17" d="M459.72,140.39h2.63c.24,0,.41-.02.52-.03v.47c-.1,0-.3-.02-.51-.02h-2.64c-.26,0-.52.01-.67.03v-.47c.14,0,.4.02.67.02Z"/>
        <path class="cls-17" d="M464.96,140.52l-.22.34c-.24-.17-.76-.51-1.05-.66l.22-.33c.28.15.85.5,1.05.65ZM465.52,141.66c.8-.46,1.43-1.09,1.82-1.76l.23.4c-.42.64-1.08,1.26-1.85,1.72-.48.28-1.14.51-1.59.6l-.22-.39c.52-.09,1.12-.28,1.61-.56ZM465.67,139.46l-.23.33c-.23-.18-.75-.52-1.03-.69l.22-.32c.28.16.84.53,1.04.68ZM467.13,139.6l-.27.12c-.12-.25-.28-.54-.44-.76l.26-.11c.12.17.34.52.45.74ZM467.77,139.36l-.27.13c-.13-.25-.29-.53-.46-.75l.27-.12c.13.17.34.51.46.73Z"/>
      </g>
    </g>
  </g>
</svg>