<?xml version="1.0" encoding="UTF-8"?>
<svg id="_レイヤー_2" data-name="レイヤー 2" xmlns="http://www.w3.org/2000/svg" xmlns:xlink="http://www.w3.org/1999/xlink" viewBox="0 0 551.07 414.45">
  <defs>
    <style>
      .cls-1, .cls-2, .cls-3, .cls-4, .cls-5, .cls-6, .cls-7, .cls-8, .cls-9, .cls-10, .cls-11, .cls-12 {
        stroke-width: .25px;
      }

      .cls-1, .cls-3, .cls-4, .cls-5, .cls-6, .cls-7, .cls-13, .cls-8, .cls-10, .cls-14, .cls-11 {
        stroke-linejoin: bevel;
      }

      .cls-1, .cls-3, .cls-15, .cls-10, .cls-11 {
        stroke: #231815;
      }

      .cls-1, .cls-16, .cls-17, .cls-18, .cls-7, .cls-13, .cls-19, .cls-10, .cls-14, .cls-12 {
        fill: none;
      }

      .cls-20, .cls-6 {
        fill: url(#_10_lpi_10_2);
      }

      .cls-2 {
        fill: url(#_10_lpi_10_2-9);
      }

      .cls-2, .cls-4, .cls-17, .cls-5, .cls-6, .cls-7, .cls-8, .cls-9, .cls-19, .cls-12 {
        stroke: #fff;
      }

      .cls-2, .cls-17, .cls-9, .cls-15, .cls-12 {
        stroke-miterlimit: 10;
      }

      .cls-3 {
        fill: url(#_10_lpi_10_2-12);
      }

      .cls-16 {
        stroke: #898989;
        stroke-width: .72px;
      }

      .cls-4 {
        fill: url(#_10_lpi_10_2-7);
      }

      .cls-21, .cls-9, .cls-15 {
        fill: #fff;
      }

      .cls-22 {
        fill: url(#_10_lpi_10_2-2);
      }

      .cls-17, .cls-13, .cls-15, .cls-19, .cls-14 {
        stroke-width: .5px;
      }

      .cls-5 {
        fill: url(#_10_lpi_10_2-8);
      }

      .cls-23 {
        fill: #e8390d;
      }

      .cls-24 {
        fill: #164b9f;
      }

      .cls-13 {
        stroke: #2ea7e0;
      }

      .cls-8 {
        fill: url(#_10_lpi_10_2-10);
      }

      .cls-25 {
        fill: url(#_10_lpi_10_2-3);
      }

      .cls-19, .cls-10 {
        stroke-linecap: round;
      }

      .cls-26 {
        fill: url(#_10_lpi_10_2-6);
      }

      .cls-27 {
        fill: #9fa0a0;
      }

      .cls-28 {
        fill: url(#_10_lpi_10_2-5);
      }

      .cls-14 {
        stroke: #f8b62d;
      }

      .cls-11 {
        fill: url(#_10_lpi_10_2-11);
      }

      .cls-29 {
        fill: url(#_10_lpi_10_2-4);
      }
    </style>
    <pattern id="_10_lpi_10_2" data-name="10 lpi 10 % 2" x="0" y="0" width="72" height="72" patternTransform="translate(-4665.94 -8180.11) rotate(-47.79) scale(.3) skewX(-5.55)" patternUnits="userSpaceOnUse" viewBox="0 0 72 72">
      <g>
        <rect class="cls-18" width="72" height="72"/>
        <g>
          <line class="cls-16" x1="71.75" y1="68.4" x2="144.25" y2="68.4"/>
          <line class="cls-16" x1="71.75" y1="54" x2="144.25" y2="54"/>
          <line class="cls-16" x1="71.75" y1="39.6" x2="144.25" y2="39.6"/>
          <line class="cls-16" x1="71.75" y1="25.2" x2="144.25" y2="25.2"/>
          <line class="cls-16" x1="71.75" y1="10.8" x2="144.25" y2="10.8"/>
          <line class="cls-16" x1="71.75" y1="61.2" x2="144.25" y2="61.2"/>
          <line class="cls-16" x1="71.75" y1="46.8" x2="144.25" y2="46.8"/>
          <line class="cls-16" x1="71.75" y1="32.4" x2="144.25" y2="32.4"/>
          <line class="cls-16" x1="71.75" y1="18" x2="144.25" y2="18"/>
          <line class="cls-16" x1="71.75" y1="3.6" x2="144.25" y2="3.6"/>
        </g>
        <g>
          <line class="cls-16" x1="-.25" y1="68.4" x2="72.25" y2="68.4"/>
          <line class="cls-16" x1="-.25" y1="54" x2="72.25" y2="54"/>
          <line class="cls-16" x1="-.25" y1="39.6" x2="72.25" y2="39.6"/>
          <line class="cls-16" x1="-.25" y1="25.2" x2="72.25" y2="25.2"/>
          <line class="cls-16" x1="-.25" y1="10.8" x2="72.25" y2="10.8"/>
          <line class="cls-16" x1="-.25" y1="61.2" x2="72.25" y2="61.2"/>
          <line class="cls-16" x1="-.25" y1="46.8" x2="72.25" y2="46.8"/>
          <line class="cls-16" x1="-.25" y1="32.4" x2="72.25" y2="32.4"/>
          <line class="cls-16" x1="-.25" y1="18" x2="72.25" y2="18"/>
          <line class="cls-16" x1="-.25" y1="3.6" x2="72.25" y2="3.6"/>
        </g>
        <g>
          <line class="cls-16" x1="-72.25" y1="68.4" x2=".25" y2="68.4"/>
          <line class="cls-16" x1="-72.25" y1="54" x2=".25" y2="54"/>
          <line class="cls-16" x1="-72.25" y1="39.6" x2=".25" y2="39.6"/>
          <line class="cls-16" x1="-72.25" y1="25.2" x2=".25" y2="25.2"/>
          <line class="cls-16" x1="-72.25" y1="10.8" x2=".25" y2="10.8"/>
          <line class="cls-16" x1="-72.25" y1="61.2" x2=".25" y2="61.2"/>
          <line class="cls-16" x1="-72.25" y1="46.8" x2=".25" y2="46.8"/>
          <line class="cls-16" x1="-72.25" y1="32.4" x2=".25" y2="32.4"/>
          <line class="cls-16" x1="-72.25" y1="18" x2=".25" y2="18"/>
          <line class="cls-16" x1="-72.25" y1="3.6" x2=".25" y2="3.6"/>
        </g>
      </g>
    </pattern>
    <pattern id="_10_lpi_10_2-2" data-name="10 lpi 10 % 2" patternTransform="translate(-7661.66 -11325.11) rotate(-42.21) scale(.3 -.3) skewX(-5.55)" xlink:href="#_10_lpi_10_2"/>
    <pattern id="_10_lpi_10_2-3" data-name="10 lpi 10 % 2" patternTransform="translate(-7696.56 -11320.86) rotate(-42.21) scale(.3 -.3) skewX(-5.55)" xlink:href="#_10_lpi_10_2"/>
    <pattern id="_10_lpi_10_2-4" data-name="10 lpi 10 % 2" patternTransform="translate(-4659.14 -8165.31) rotate(-47.79) scale(.3) skewX(-5.55)" xlink:href="#_10_lpi_10_2"/>
    <pattern id="_10_lpi_10_2-5" data-name="10 lpi 10 % 2" patternTransform="translate(-4678.21 -8165.31) rotate(-47.79) scale(.3) skewX(-5.55)" xlink:href="#_10_lpi_10_2"/>
    <pattern id="_10_lpi_10_2-6" data-name="10 lpi 10 % 2" patternTransform="translate(-4678.21 -8165.31) rotate(-47.79) scale(.3) skewX(-5.55)" xlink:href="#_10_lpi_10_2"/>
    <pattern id="_10_lpi_10_2-7" data-name="10 lpi 10 % 2" patternTransform="translate(-4659.14 -8165.31) rotate(-47.79) scale(.3) skewX(-5.55)" xlink:href="#_10_lpi_10_2"/>
    <pattern id="_10_lpi_10_2-8" data-name="10 lpi 10 % 2" patternTransform="translate(-4699.98 -8273.27) rotate(-47.79) scale(.3) skewX(-5.55)" xlink:href="#_10_lpi_10_2"/>
    <pattern id="_10_lpi_10_2-9" data-name="10 lpi 10 % 2" patternTransform="translate(-4659.03 -8189.4) rotate(-47.79) scale(.3) skewX(-5.55)" xlink:href="#_10_lpi_10_2"/>
    <pattern id="_10_lpi_10_2-10" data-name="10 lpi 10 % 2" patternTransform="translate(-4406.41 -8327) rotate(-46.42) scale(.32) skewX(-2.83)" xlink:href="#_10_lpi_10_2"/>
    <pattern id="_10_lpi_10_2-11" data-name="10 lpi 10 % 2" patternTransform="translate(-11142.07 -8278.19) rotate(-132.21) scale(.3 -.3) skewX(-5.55)" xlink:href="#_10_lpi_10_2"/>
    <pattern id="_10_lpi_10_2-12" data-name="10 lpi 10 % 2" patternTransform="translate(-11142.07 -8278.19) rotate(-132.21) scale(.3 -.3) skewX(-5.55)" xlink:href="#_10_lpi_10_2"/>
  </defs>
  <g id="_レイヤー_1-2" data-name="レイヤー 1">
    <polyline class="cls-7" points="272.39 98.59 272.39 125.66 275.42 125.66 275.42 153.03 302.87 153.03 302.87 125.66 302.87 123.55 302.87 98.59"/>
    <rect class="cls-20" x="275.42" y="125.66" width="27.45" height="27.37"/>
    <polygon class="cls-22" points="550.95 331.59 534.17 321.72 480.95 321.72 450.99 334.89 450.99 414.45 550.95 414.45 550.95 331.59"/>
    <rect class="cls-25" x="534.24" y="305.12" width="6.37" height="16.6"/>
    <rect class="cls-29" x="243.19" width="16.92" height="6.37"/>
    <rect class="cls-28" x="77.89" width="16.92" height="6.37"/>
    <rect class="cls-26" x="77.89" y="40.2" width="16.6" height="38.34"/>
    <g id="_宗教準備室" data-name="宗教準備室">
      <path class="cls-21" d="M369.68,353.58c-.28.49-.72.97-1.11,1.28-.08-.07-.25-.2-.35-.27.41-.28.81-.71,1.05-1.14l.41.13ZM373.25,352.64v.4h-2.29s0,1.59,0,1.59c0,.24-.06.35-.23.42-.17.06-.46.06-.9.06-.02-.11-.07-.28-.13-.39.33.02.64.01.73.01.09,0,.12-.03.12-.1v-1.58s-2.26,0-2.26,0v-.4h4.97ZM368.83,351.75h-.41s0-1.19,0-1.19h2.11v-.58h.43s0,.58,0,.58h2.17s0,1.19,0,1.19h-.43s0-.81,0-.81h-3.87v.81ZM369.26,351.99v-.38s2.97,0,2.97,0v.38s-2.97,0-2.97,0ZM372.1,353.45c.4.35.89.85,1.11,1.19l-.37.24c-.21-.34-.68-.86-1.08-1.21l.34-.21Z"/>
      <path class="cls-21" d="M378.56,351.42c-.14.9-.35,1.63-.69,2.23.28.48.63.87,1.09,1.1-.1.08-.24.24-.29.35-.43-.25-.77-.62-1.05-1.07-.33.44-.76.8-1.3,1.08-.04-.09-.16-.29-.25-.37.58-.27,1.01-.65,1.33-1.13-.21-.45-.38-.98-.5-1.55-.11.25-.24.46-.38.66-.06-.07-.2-.19-.3-.26-.23.28-.54.57-.83.77v.23c.38-.04.76-.08,1.14-.12v.36l-1.14.13v.82c0,.21-.04.32-.19.38-.16.06-.39.06-.75.06-.02-.11-.07-.26-.13-.36.28,0,.52,0,.59,0,.07,0,.09-.02.09-.08v-.78c-.43.05-.83.09-1.16.12l-.05-.38c.33-.03.75-.07,1.21-.12v-.5h.18c.16-.12.33-.27.46-.41h-.64c-.31.28-.64.52-1,.72-.06-.08-.21-.24-.3-.31.23-.12.45-.25.66-.4h-.09v-.33h.5c.15-.13.29-.27.42-.42h-1.37s0-.37,0-.37h.96v-.55h-.74s0-.35,0-.35h.74v-.59h.38v.59h.7v.35c.15-.25.27-.52.39-.81l.39.11c-.18.45-.41.87-.67,1.25h.54v.37h-.81c-.12.15-.23.28-.36.41h.61l.07-.02.2.15c.42-.58.71-1.48.87-2.4l.42.07c-.06.33-.13.66-.22.97h1.64s0,.39,0,.39h-.35ZM375.48,351.49c.13-.17.26-.36.37-.55h-.7v.55h.33ZM377.16,351.42c.11.64.26,1.24.49,1.76.24-.49.39-1.08.49-1.77h-.97Z"/>
      <path class="cls-21" d="M380.31,351.65c-.2-.13-.6-.31-.91-.42l.21-.29c.3.09.71.26.91.38l-.21.33ZM384.47,354.01h-2.32v1.1h-.42v-1.1h-2.26s0-.38,0-.38h2.26v-.46h.42v.46h2.32s0,.38,0,.38ZM379.56,353.01c.3-.27.73-.72,1.1-1.15l.22.28c-.32.39-.69.82-1.03,1.19l-.29-.32ZM380.71,350.77c-.2-.14-.58-.34-.89-.46l.21-.29c.31.1.69.29.9.42l-.22.33ZM381.25,351.3c-.12.14-.25.26-.38.38-.07-.07-.23-.22-.33-.28.45-.35.88-.88,1.13-1.43l.4.12c-.08.17-.18.35-.29.52h.78c.11-.2.22-.44.29-.61l.44.08c-.1.18-.21.36-.31.53h1.24v.34h-1.27v.41h1.11v.31h-1.11v.4h1.12v.31h-1.12v.43h1.42v.34h-3.12s0-1.83,0-1.83ZM382.55,350.94h-.91v.41h.91v-.41ZM382.55,351.66h-.91v.4h.91v-.4ZM382.55,352.37h-.91v.43h.91v-.43Z"/>
      <path class="cls-21" d="M386.46,350.13c-.12.37-.27.74-.44,1.09v3.88s-.4,0-.4,0v-3.14c-.17.28-.34.53-.53.75-.04-.1-.15-.32-.22-.42.48-.56.92-1.41,1.19-2.27l.39.11ZM390.12,351.89h-3.15s0,.83,0,.83c0,.69-.07,1.7-.51,2.37-.06-.07-.21-.21-.3-.26.4-.62.44-1.48.44-2.12v-1.2s3.53,0,3.53,0v.37ZM387.4,350.88h-.91s0-.36,0-.36h.91v-.48h.38v.48h1.05v-.48h.39v.48h.88v.36h-.88v.46h-.39v-.46h-1.05v.46h-.38v-.46ZM389.98,354.69c0,.18-.03.29-.16.34-.13.06-.35.07-.68.06-.02-.09-.06-.23-.11-.33.24,0,.44,0,.5,0s.08-.02.08-.08v-.52h-.82v.88h-.34s0-.88,0-.88h-.79v.92h-.36v-2.79s2.67,0,2.67,0v2.39ZM387.67,352.62v.49h.79v-.49h-.79ZM388.46,353.88v-.48h-.79v.48h.79ZM388.79,352.62v.49h.82v-.49h-.82ZM389.62,353.88v-.48h-.82v.48h.82Z"/>
      <path class="cls-21" d="M395.63,354.56v.38h-4.93s0-.37,0-.37h2.23s0-.7,0-.7h-1.72s0-.37,0-.37h1.72v-.63c-.68.02-1.3.04-1.8.06l-.02-.38c.23,0,.49,0,.78-.01.16-.24.34-.55.48-.81h-1.03v-.37h3.68s0,.37,0,.37h-2.17c-.16.27-.34.56-.51.8.63-.02,1.33-.03,2.03-.06-.18-.15-.38-.3-.56-.42l.3-.21c.47.3,1.04.75,1.3,1.07l-.31.24c-.08-.1-.2-.22-.33-.34-.46.02-.94.04-1.4.05v.64h1.79s0,.37,0,.37h-1.79s0,.7,0,.7h2.28ZM391.17,351.43h-.4v-1.03h2.16v-.42h.42v.41h2.21s0,1.03,0,1.03h-.41v-.64h-3.98v.65Z"/>
    </g>
    <g>
      <path class="cls-27" d="M288.63,189.07c-.63-.57-1.21-.63-1.53-.63-1.23,0-2.06.91-2.06,2.15,0,1.19.86,2.12,2.07,2.12.68,0,1.2-.35,1.52-.65v1.02c-.57.34-1.16.42-1.55.42-1.02,0-1.67-.46-2-.78-.66-.62-.91-1.34-.91-2.13,0-1.04.43-1.76.9-2.21.58-.55,1.26-.74,2.04-.74.52,0,1.02.09,1.51.41v1.02Z"/>
      <path class="cls-27" d="M291.14,189.4c-.14.42-.32.95-.48,1.37.35.42.43.8.43,1.11,0,.28-.06.49-.19.59-.07.05-.16.08-.25.09-.09,0-.21,0-.32,0,0-.1-.04-.24-.1-.34.11,0,.2,0,.27,0,.07,0,.12-.02.16-.04.07-.06.1-.21.1-.36,0-.28-.09-.63-.43-1.03.14-.38.28-.84.38-1.2h-.63v4.18s-.34,0-.34,0v-4.53s1.11,0,1.11,0l.05-.02.26.15ZM292.62,190.91c-.52.13-1.05.27-1.47.37l-.1-.33c.1-.02.21-.04.34-.07v-1.78s.35,0,.35,0v.62h.81v.32h-.81v.76c.27-.06.56-.13.85-.2l.03.3ZM292.81,191.17c-.06.15-.12.31-.18.44h1.36s0,2.14,0,2.14h-.38v-.17h-1.78v.19h-.35v-2.16s.77,0,.77,0c.06-.17.13-.38.16-.53l.39.08ZM293.62,191.94h-1.78s0,.5,0,.5h1.78s0-.5,0-.5ZM293.62,193.25v-.52s-1.78,0-1.78,0v.52s1.78,0,1.78,0ZM293.79,190.87c.12,0,.16-.06.17-.49.08.06.22.12.32.14-.04.54-.14.67-.45.67h-.58c-.39,0-.48-.09-.48-.48v-1.61s.35,0,.35,0v.76c.3-.13.6-.3.78-.45l.27.25c-.3.19-.69.37-1.05.5v.54c0,.14.02.16.17.16h.5Z"/>
      <path class="cls-27" d="M295.47,192.9v.88s-.36,0-.36,0v-.82s-.36.06-.36.06l-.07-.38.43-.07v-3.16s.21.07.21.07c.46-.12.95-.3,1.23-.46l.33.28c-.38.19-.92.35-1.4.47v.6h1.2v.35h-1.2v.63h1.24v.36h-1.24v.79c.43-.07.91-.15,1.37-.23l.02.36-1.39.25ZM299.24,191.41c-.18.61-.48,1.1-.87,1.47.32.25.7.44,1.14.56-.09.07-.2.23-.25.33-.45-.14-.85-.35-1.18-.64-.4.3-.85.51-1.34.66-.04-.1-.14-.25-.21-.34.46-.12.9-.31,1.27-.59-.28-.31-.5-.69-.66-1.12l.25-.07h-.47s0-.35,0-.35h1.99s.07-.02.07-.02l.24.1ZM297.58,190c0,.42-.1.93-.62,1.26-.05-.07-.19-.21-.26-.26.46-.29.53-.66.52-1.01v-.73s1.53,0,1.53,0v1.28c0,.1,0,.15.03.17.02.02.05.02.08.02h.15s.09,0,.11-.02c.03-.02.05-.05.06-.12.01-.08.02-.23.02-.44.07.06.2.12.3.15-.01.2-.03.44-.05.52-.03.09-.08.14-.16.17-.06.04-.16.05-.24.05h-.27c-.09,0-.22-.03-.29-.09-.07-.06-.1-.15-.1-.44v-.91h-.82v.4ZM297.48,191.68c.14.36.34.68.6.95.28-.26.5-.58.66-.95h-1.26Z"/>
    </g>
    <g>
      <path class="cls-27" d="M434.92,212.75h-1.96s0,1.43,0,1.43h1.9s0,.81,0,.81h-1.9s0,2.59,0,2.59h-.86s0-5.65,0-5.65h2.83s0,.81,0,.81Z"/>
      <path class="cls-27" d="M437.35,213.59c-.14.42-.32.95-.48,1.37.35.42.43.8.43,1.11,0,.28-.06.49-.19.59-.07.05-.16.08-.25.09-.09.01-.21.01-.32,0,0-.1-.04-.24-.1-.34.11,0,.2,0,.27,0,.07,0,.12-.02.16-.04.07-.06.1-.21.1-.36,0-.28-.09-.63-.43-1.03.13-.38.28-.84.38-1.2h-.63s0,4.18,0,4.18h-.34v-4.53s1.11,0,1.11,0l.05-.02.25.15ZM438.83,215.11c-.52.13-1.05.27-1.47.37l-.1-.33c.1-.02.21-.04.34-.07v-1.78s.35,0,.35,0v.62h.81v.32h-.81v.76c.27-.06.56-.13.85-.2l.03.3ZM439.01,215.37c-.06.15-.12.31-.18.44h1.36v2.14s-.37,0-.37,0v-.17h-1.78v.19h-.35v-2.16s.77,0,.77,0c.06-.17.13-.38.16-.53l.38.08ZM439.83,216.14h-1.78v.5h1.78v-.5ZM439.83,217.45v-.52h-1.78v.52h1.78ZM440,215.07c.12,0,.16-.06.17-.49.08.06.22.12.32.14-.04.54-.14.67-.45.67h-.58c-.39,0-.48-.09-.48-.48v-1.61s.35,0,.35,0v.76c.3-.13.6-.3.78-.45l.27.25c-.3.19-.69.37-1.05.5v.54c0,.14.02.16.17.16h.5Z"/>
      <path class="cls-27" d="M441.68,217.09v.88s-.36,0-.36,0v-.82s-.36.06-.36.06l-.07-.38.43-.07v-3.16s.21.07.21.07c.46-.12.95-.3,1.23-.46l.33.28c-.38.19-.92.35-1.4.47v.6h1.2s0,.35,0,.35h-1.2v.64h1.24s0,.36,0,.36h-1.24v.79c.43-.07.91-.15,1.37-.24l.02.36-1.39.25ZM445.45,215.61c-.18.61-.48,1.1-.87,1.47.32.25.7.44,1.14.56-.09.07-.2.23-.25.33-.45-.14-.85-.35-1.18-.64-.39.3-.85.51-1.34.66-.04-.1-.13-.25-.21-.34.46-.12.9-.31,1.27-.59-.28-.31-.5-.69-.66-1.12l.25-.07h-.47v-.35s1.99,0,1.99,0l.07-.02.25.1ZM443.79,214.19c0,.42-.1.93-.62,1.26-.05-.07-.19-.21-.26-.26.46-.29.53-.66.53-1v-.73s1.53,0,1.53,0v1.28c0,.1,0,.15.03.17.02.02.05.02.08.02h.15s.09,0,.11-.02c.03-.02.05-.05.06-.12,0-.08.02-.23.02-.44.07.06.2.12.3.15-.01.2-.03.44-.05.52-.03.09-.08.14-.16.17-.06.04-.16.05-.25.05h-.27c-.09,0-.22-.03-.29-.09-.07-.06-.1-.15-.1-.44v-.91h-.82v.4ZM443.69,215.88c.14.36.34.68.6.95.28-.26.5-.58.66-.95h-1.26Z"/>
    </g>
    <line class="cls-7" x1="299.54" y1="200.67" x2="283.91" y2="200.67"/>
    <rect class="cls-4" x="118.72" y="6.6" width="16.86" height="12.74"/>
    <rect class="cls-7" x="94.76" y="6.37" width="23.97" height="33.83"/>
    <line class="cls-7" x1="110.12" y1="107.58" x2="110.12" y2="78.54"/>
    <line class="cls-7" x1="259.85" y1="153.03" x2="259.85" y2="129.39"/>
    <line class="cls-7" x1="94.49" y1="103.56" x2="110.12" y2="103.56"/>
    <line class="cls-7" x1="94.49" y1="100.72" x2="110.12" y2="100.72"/>
    <line class="cls-7" x1="94.49" y1="97.88" x2="110.12" y2="97.88"/>
    <line class="cls-7" x1="94.49" y1="95.03" x2="110.12" y2="95.03"/>
    <line class="cls-7" x1="94.49" y1="92.19" x2="110.12" y2="92.19"/>
    <g id="S2C">
      <rect class="cls-7" x="207.32" y="82.84" width="35.87" height="24.74"/>
      <g>
        <path class="cls-21" d="M218.51,93.81c-.08-.2-.2-.38-.4-.56-.28-.23-.57-.32-.96-.32-.82,0-1.25.49-1.25,1.06,0,.27.09.73.96,1.07l.89.36c1.63.66,2.09,1.59,2.09,2.6,0,1.69-1.19,2.84-2.85,2.84-1.02,0-1.63-.38-2.08-.89-.48-.53-.69-1.11-.74-1.73l1.34-.29c0,.44.16.85.37,1.13.25.32.62.53,1.15.53.82,0,1.46-.6,1.46-1.49,0-.9-.69-1.27-1.28-1.51l-.85-.36c-.73-.31-1.81-.92-1.81-2.24,0-1.19.93-2.34,2.59-2.34.96,0,1.5.36,1.78.6.24.21.49.52.68.89l-1.09.64Z"/>
        <path class="cls-21" d="M226.87,100.69h-5.95s3.06-3.72,3.06-3.72c.31-.37.77-.96,1.06-1.38.25-.37.46-.76.46-1.27,0-.74-.49-1.43-1.47-1.43-1,0-1.51.77-1.57,1.61h-1.3c.04-.86.4-1.55.74-1.94.32-.36.96-.86,2.07-.86,1.88,0,2.85,1.29,2.86,2.67,0,.73-.28,1.33-.64,1.86-.32.48-.73.97-1.26,1.59l-1.38,1.63h3.31s0,1.25,0,1.25Z"/>
        <path class="cls-21" d="M235.63,93.9c-.98-.89-1.9-.98-2.4-.98-1.93,0-3.23,1.42-3.22,3.37,0,1.87,1.36,3.32,3.24,3.32,1.06,0,1.88-.55,2.39-1.02v1.61c-.89.53-1.82.66-2.43.67-1.61,0-2.62-.73-3.13-1.22-1.04-.97-1.42-2.1-1.42-3.34,0-1.63.68-2.76,1.42-3.47.92-.86,1.98-1.16,3.2-1.16.81,0,1.59.15,2.36.64v1.59Z"/>
      </g>
    </g>
    <g id="S2B">
      <rect class="cls-12" x="171.46" y="82.84" width="35.87" height="24.74"/>
      <g>
        <path class="cls-9" d="M183.48,93.69c-.08-.2-.2-.39-.4-.56-.28-.23-.57-.32-.96-.32-.82,0-1.25.49-1.25,1.06,0,.27.09.73.96,1.07l.89.36c1.63.66,2.08,1.59,2.09,2.6,0,1.69-1.19,2.84-2.85,2.84-1.02,0-1.63-.38-2.08-.89-.48-.53-.69-1.11-.74-1.73l1.34-.29c0,.44.16.85.37,1.13.25.32.62.53,1.15.53.82,0,1.46-.6,1.46-1.49,0-.9-.69-1.27-1.28-1.51l-.85-.36c-.73-.3-1.81-.92-1.81-2.24,0-1.19.93-2.34,2.59-2.34.96,0,1.5.36,1.78.6.24.21.49.52.68.89l-1.09.64Z"/>
        <path class="cls-9" d="M191.85,100.58h-5.95s3.06-3.72,3.06-3.72c.31-.37.77-.96,1.06-1.38.25-.37.46-.76.46-1.27,0-.74-.49-1.43-1.47-1.43-1,0-1.51.77-1.57,1.61h-1.3c.04-.86.4-1.55.74-1.94.32-.36.96-.86,2.07-.86,1.88,0,2.85,1.29,2.86,2.67,0,.73-.28,1.33-.64,1.86-.32.48-.73.97-1.26,1.59l-1.38,1.63h3.31s0,1.25,0,1.25Z"/>
        <path class="cls-9" d="M195.39,91.72c1.14,0,1.86.15,2.44.69.48.45.7,1.02.7,1.75,0,.35-.05.7-.26,1.05-.2.35-.46.52-.66.61.16.04.7.19,1.14.64.48.5.58,1.11.59,1.66,0,.64-.16,1.14-.58,1.59-.7.74-1.8.86-2.48.86h-2.22s0-8.85,0-8.85h1.34ZM195.4,95.53h.41c.33,0,.78-.04,1.1-.35.3-.29.34-.7.34-1.01,0-.27-.04-.58-.32-.85-.31-.29-.69-.33-1.08-.33h-.46s0,2.54,0,2.54ZM195.4,99.3h.82c.38,0,1-.07,1.34-.35.26-.21.44-.58.44-.98,0-.36-.13-.7-.36-.93-.37-.36-.92-.4-1.39-.4h-.85s0,2.66,0,2.66Z"/>
      </g>
    </g>
    <g id="S2A">
      <rect class="cls-12" x="135.59" y="82.84" width="35.87" height="24.74"/>
      <g>
        <path class="cls-9" d="M146.75,93.69c-.08-.2-.2-.39-.4-.56-.28-.23-.57-.32-.96-.32-.82,0-1.25.49-1.25,1.06,0,.27.09.73.96,1.07l.89.36c1.63.66,2.08,1.59,2.09,2.6,0,1.69-1.19,2.84-2.85,2.84-1.02,0-1.63-.38-2.08-.89-.48-.53-.69-1.11-.74-1.73l1.34-.29c0,.44.16.85.37,1.13.25.32.62.53,1.15.53.82,0,1.46-.6,1.46-1.49,0-.9-.69-1.27-1.28-1.51l-.85-.36c-.73-.3-1.81-.92-1.81-2.24,0-1.19.93-2.34,2.59-2.34.96,0,1.5.36,1.78.6.24.21.49.52.68.89l-1.09.64Z"/>
        <path class="cls-9" d="M155.11,100.58h-5.95s3.06-3.72,3.06-3.72c.31-.37.77-.96,1.06-1.38.25-.37.46-.76.46-1.27,0-.74-.49-1.43-1.47-1.43-1,0-1.51.77-1.57,1.61h-1.3c.04-.86.4-1.55.74-1.94.32-.36.96-.86,2.07-.86,1.88,0,2.85,1.29,2.86,2.67,0,.73-.28,1.33-.64,1.86-.32.48-.73.97-1.26,1.59l-1.38,1.63h3.31s0,1.25,0,1.25Z"/>
        <path class="cls-9" d="M162.52,98.44h-3.78s-.97,2.14-.97,2.14h-1.46s4.4-9.37,4.4-9.37l4.2,9.37h-1.46s-.93-2.14-.93-2.14ZM161.98,97.16l-1.32-3-1.37,3h2.68Z"/>
      </g>
    </g>
    <g id="S2L">
      <path class="cls-21" d="M118.81,90.5c-.07-.16-.16-.32-.33-.46-.23-.19-.47-.26-.79-.26-.68,0-1.03.4-1.03.87,0,.22.08.6.79.88l.73.29c1.34.55,1.72,1.31,1.72,2.14,0,1.39-.98,2.34-2.35,2.34-.84,0-1.34-.32-1.72-.73-.39-.44-.57-.92-.61-1.42l1.1-.24c0,.36.13.7.31.93.21.26.51.44.95.44.68,0,1.2-.49,1.2-1.22,0-.74-.57-1.05-1.05-1.25l-.7-.29c-.6-.25-1.49-.75-1.49-1.85,0-.98.76-1.92,2.13-1.92.79,0,1.23.29,1.46.49.2.17.4.43.56.73l-.9.52Z"/>
      <path class="cls-21" d="M125.69,96.17h-4.89s2.52-3.06,2.52-3.06c.25-.31.63-.79.87-1.14.21-.31.38-.62.38-1.05,0-.61-.4-1.18-1.21-1.18-.82,0-1.25.63-1.29,1.32h-1.07c.03-.71.33-1.28.61-1.59.26-.29.79-.71,1.7-.71,1.55,0,2.35,1.06,2.35,2.19,0,.6-.23,1.09-.52,1.53-.26.39-.6.8-1.04,1.31l-1.14,1.34h2.72s0,1.03,0,1.03Z"/>
      <path class="cls-21" d="M128.62,88.88v6.24s2.14,0,2.14,0v1.05s-3.26,0-3.26,0v-7.29s1.11,0,1.11,0Z"/>
      <path class="cls-21" d="M114.01,101.51c0,.3-.11.53-.33.7s-.51.25-.88.25c-.19,0-.36-.01-.52-.04s-.29-.07-.4-.12v-.41c.11.05.25.1.42.14.17.04.34.06.52.06.25,0,.44-.05.57-.15.13-.1.19-.23.19-.4,0-.11-.02-.2-.07-.28-.05-.08-.13-.14-.25-.21-.12-.06-.28-.13-.48-.21-.29-.1-.51-.23-.65-.38-.15-.15-.22-.36-.22-.62,0-.18.04-.33.14-.46.09-.13.22-.23.38-.3s.35-.1.56-.1c.18,0,.35.02.51.05s.3.08.43.14l-.13.36c-.12-.05-.24-.09-.38-.13s-.28-.05-.43-.05c-.21,0-.37.04-.48.13-.11.09-.16.21-.16.36,0,.11.02.21.07.28s.12.14.23.21c.11.06.25.12.44.19.2.07.37.15.5.23.14.08.24.18.31.3s.11.26.11.44Z"/>
      <path class="cls-21" d="M116.69,102.41h-2.23s0-.34,0-.34l.88-.89c.17-.17.31-.32.43-.45.12-.13.21-.26.27-.39.06-.13.09-.27.09-.42,0-.19-.06-.33-.17-.42-.11-.1-.25-.14-.43-.14-.17,0-.31.03-.43.08-.12.06-.25.14-.38.24l-.22-.28c.13-.11.28-.2.46-.28.17-.08.36-.12.58-.12.31,0,.56.08.75.24s.27.38.27.66c0,.18-.04.34-.11.5-.07.15-.17.31-.3.46-.13.15-.28.31-.45.48l-.7.69v.02h1.71s0,.38,0,.38Z"/>
      <path class="cls-21" d="M120.68,100.38c-.13.47-.34.96-.69,1.34-.5.54-1.09.82-1.69.99l-.29-.34c.67-.14,1.26-.44,1.66-.87.29-.3.48-.71.56-1.05h-2.51c-.11,0-.29,0-.46.02v-.4c.17.02.34.03.46.03h2.49c.11,0,.21-.01.26-.04l.27.17s-.05.1-.06.14ZM118.11,99.02h1.86c.15,0,.32,0,.43-.02v.39c-.11,0-.27-.01-.44-.01h-1.85c-.15,0-.3,0-.43.02v-.39c.12.02.27.02.43.02Z"/>
      <path class="cls-21" d="M123.39,99.08v.44h1.06c.17,0,.26-.01.33-.04l.26.16c-.02.07-.05.19-.07.28-.06.38-.2.97-.46,1.42-.35.62-1.01,1.1-1.87,1.34l-.31-.35c.16-.02.34-.08.49-.13.47-.15.99-.51,1.28-.95.26-.4.41-.97.45-1.38h-2.64s0,.85,0,.85c0,.08,0,.21.02.28h-.41c0-.08.01-.21.01-.3v-.83c0-.1,0-.26-.02-.36.14.01.27.02.44.02h1.05v-.44c0-.1,0-.21-.02-.35h.45c-.02.15-.03.25-.03.35Z"/>
      <path class="cls-21" d="M127.57,101.53c.73-.46,1.31-1.16,1.58-1.74l.23.4c-.32.59-.88,1.23-1.59,1.69-.47.3-1.07.59-1.86.73l-.25-.39c.83-.12,1.44-.41,1.89-.69ZM127.29,100.03l-.3.3c-.24-.25-.83-.75-1.18-.99l.27-.29c.34.22.94.71,1.21.98Z"/>
      <path class="cls-21" d="M131.17,100.62l-.21.33c-.24-.17-.75-.5-1.04-.65l.21-.32c.28.15.83.49,1.04.64ZM131.72,101.75c.78-.45,1.41-1.07,1.79-1.74l.23.39c-.41.63-1.06,1.24-1.82,1.69-.47.28-1.13.5-1.57.59l-.22-.38c.52-.09,1.11-.28,1.58-.55ZM131.87,99.58l-.22.33c-.23-.17-.74-.52-1.02-.68l.21-.32c.28.16.82.52,1.03.67ZM133.31,99.72l-.27.12c-.12-.25-.27-.53-.43-.75l.26-.11c.12.17.33.51.44.73ZM133.94,99.48l-.27.12c-.13-.25-.29-.52-.45-.73l.26-.11c.13.17.34.51.45.72Z"/>
    </g>
    <g>
      <path class="cls-21" d="M41.35,58.1c0,.35-.13.63-.39.83-.26.2-.6.3-1.04.3-.22,0-.43-.02-.62-.05-.19-.03-.35-.08-.48-.14v-.48c.13.06.3.11.5.16.2.05.41.07.62.07.29,0,.52-.06.67-.17.15-.12.23-.27.23-.47,0-.13-.03-.24-.08-.33-.06-.09-.15-.17-.29-.25s-.33-.16-.57-.25c-.34-.12-.6-.27-.77-.45-.17-.18-.26-.42-.26-.73,0-.21.05-.39.16-.54.11-.15.26-.27.45-.35.19-.08.41-.12.67-.12.22,0,.42.02.6.06s.35.1.5.16l-.16.43c-.14-.06-.29-.11-.45-.15-.16-.04-.33-.06-.5-.06-.25,0-.44.05-.57.16-.13.11-.19.25-.19.42,0,.13.03.25.08.34.06.09.15.17.27.24s.3.15.52.23c.24.09.43.18.6.28.16.1.29.22.37.36.08.14.13.31.13.52Z"/>
      <path class="cls-21" d="M44.53,59.17h-2.64s0-.41,0-.41l1.05-1.06c.2-.2.37-.38.51-.54s.25-.31.32-.46.11-.32.11-.5c0-.22-.07-.39-.2-.5-.13-.11-.3-.17-.51-.17-.2,0-.37.03-.52.1-.15.07-.29.16-.45.28l-.26-.33c.16-.13.34-.24.54-.33s.43-.14.69-.14c.37,0,.67.09.88.28.22.19.32.45.33.78,0,.21-.04.4-.13.59-.09.18-.2.36-.36.54-.15.18-.33.37-.54.57l-.83.82v.02h2.02s0,.45,0,.45Z"/>
      <path class="cls-21" d="M49.25,56.76c-.15.55-.4,1.14-.82,1.59-.59.64-1.29.98-2,1.17l-.35-.4c.8-.16,1.49-.52,1.97-1.03.34-.36.57-.83.67-1.24h-2.97c-.13,0-.35,0-.55.02v-.47c.21.02.4.03.55.03h2.95c.13,0,.25-.01.31-.05l.32.2c-.03.05-.06.12-.07.16ZM46.21,55.15h2.2c.18,0,.38,0,.51-.03v.46c-.13-.01-.32-.02-.52-.02h-2.2c-.17,0-.35,0-.5.02v-.46c.15.02.32.03.5.03Z"/>
      <path class="cls-21" d="M52.47,55.23v.52h1.25c.21,0,.31-.02.39-.04l.3.19c-.03.08-.06.23-.08.34-.07.45-.23,1.15-.55,1.69-.42.73-1.19,1.31-2.22,1.59l-.36-.42c.19-.03.4-.09.58-.16.56-.18,1.18-.6,1.52-1.13.3-.48.48-1.15.53-1.64h-3.13s0,1,0,1c0,.1,0,.25.02.34h-.49c.01-.1.02-.25.02-.36v-.99c0-.12,0-.31-.02-.43.16.02.32.02.52.02h1.24v-.52c0-.12,0-.25-.03-.42h.54c-.03.17-.03.3-.03.42Z"/>
      <path class="cls-21" d="M57.43,58.12c.86-.54,1.54-1.37,1.87-2.06l.27.48c-.38.7-1.04,1.46-1.88,1.99-.56.35-1.27.69-2.2.87l-.3-.46c.98-.15,1.71-.49,2.24-.82ZM57.09,56.34l-.35.35c-.28-.29-.98-.89-1.39-1.17l.32-.34c.4.26,1.12.85,1.43,1.16Z"/>
      <path class="cls-21" d="M61.69,57.04l-.25.39c-.28-.2-.89-.59-1.23-.77l.25-.38c.33.18.99.58,1.23.76ZM62.35,58.38c.93-.53,1.67-1.27,2.12-2.06l.27.46c-.49.75-1.26,1.47-2.15,2-.56.33-1.33.59-1.85.7l-.26-.45c.61-.11,1.31-.33,1.88-.65ZM62.53,55.81l-.26.39c-.27-.21-.88-.61-1.2-.8l.25-.38c.33.19.97.62,1.22.79ZM64.22,55.98l-.32.15c-.14-.29-.33-.63-.51-.88l.31-.13c.14.2.39.6.52.87ZM64.97,55.7l-.32.15c-.15-.3-.34-.62-.53-.87l.31-.13c.15.2.4.6.54.86Z"/>
      <path class="cls-21" d="M66.62,58.59c.27.42.75.6,1.41.63.61.03,1.89.01,2.55-.03-.04.1-.11.29-.13.41-.62.03-1.81.04-2.42.01-.73-.03-1.24-.22-1.58-.67-.29.25-.58.49-.9.72l-.2-.4c.27-.17.59-.4.87-.63v-1.44s-.81,0-.81,0v-.39s1.21,0,1.21,0v1.8ZM66.43,55.91c-.17-.27-.58-.67-.93-.93l.29-.26c.35.25.77.63.95.9l-.31.29ZM67.59,58.88h-.39s0-2.88,0-2.88h1.6c-.33-.16-.73-.34-1.06-.47l.26-.24c.24.08.52.2.78.31.27-.12.54-.28.77-.44h-2.34s0-.33,0-.33h2.73s.08-.02.08-.02l.26.2c-.3.28-.72.56-1.13.77.16.08.31.16.43.22h.71s0,2.46,0,2.46c0,.2-.04.3-.19.36-.15.06-.38.06-.76.06-.02-.1-.07-.25-.12-.34.26.01.5,0,.57,0,.07,0,.1-.02.1-.1v-.51h-.97s0,.91,0,.91h-.38v-.91s-.94,0-.94,0v.93ZM67.59,56.32v.49h.94v-.49h-.94ZM68.53,57.63v-.51h-.94v.51h.94ZM69.88,56.32h-.97v.49h.97v-.49ZM69.88,57.63v-.51h-.97v.51h.97Z"/>
      <path class="cls-21" d="M75.72,55.27c-.18.58-.47,1.08-.82,1.49.35.34.77.63,1.28.82-.08.08-.2.24-.26.34-.06-.03-.12-.06-.18-.08v1.85s-.4,0-.4,0v-.19h-1.4v.2h-.39v-1.87c-.11.06-.22.11-.34.16-.04-.08-.12-.2-.2-.28h-.59v1c.24-.06.49-.11.73-.17l.04.38c-.76.19-1.56.38-2.14.52l-.08-.4.29-.06v-1.91s.35,0,.35,0v1.84s.43-.1.43-.1v-2.26h-.79v-1.71s1.81,0,1.81,0v1.48c.44-.42.81-1.05,1.01-1.72l.4.09c-.06.16-.12.32-.18.48h1.08s.07-.02.07-.02l.26.12ZM71.64,56.17h1.05s0-.98,0-.98h-1.05s0,.98,0,.98ZM73.13,57.61c.45-.19.89-.49,1.27-.87-.21-.25-.38-.51-.52-.77-.16.25-.33.46-.51.64-.06-.06-.19-.18-.29-.25v.17h-.64v.81h.69v.27ZM75.49,57.69c-.31-.18-.59-.42-.83-.66-.26.26-.54.48-.84.66h1.67ZM75.35,59.13v-1.08s-1.4,0-1.4,0v1.08s1.4,0,1.4,0ZM74.14,55.53l-.06.11c.14.27.33.56.56.84.24-.29.44-.6.58-.95h-1.08Z"/>
    </g>
    <g id="S2F">
      <rect class="cls-7" x="135.59" y="6.37" width="35.87" height="24.74"/>
      <g id="S2F-2" data-name="S2F">
        <path class="cls-21" d="M148.11,17.22c-.08-.2-.2-.39-.4-.56-.28-.23-.57-.32-.96-.32-.82,0-1.25.49-1.25,1.06,0,.27.09.73.96,1.07l.89.36c1.63.66,2.09,1.59,2.09,2.6,0,1.69-1.19,2.84-2.85,2.84-1.02,0-1.63-.38-2.08-.89-.48-.53-.69-1.11-.74-1.73l1.34-.29c0,.44.16.85.37,1.13.25.32.62.53,1.15.53.82,0,1.46-.6,1.46-1.49,0-.9-.69-1.27-1.28-1.51l-.85-.36c-.73-.3-1.81-.92-1.81-2.24,0-1.19.93-2.34,2.59-2.34.96,0,1.5.36,1.78.6.24.21.49.52.68.89l-1.09.64Z"/>
        <path class="cls-21" d="M156.48,24.11h-5.95s3.07-3.72,3.07-3.72c.3-.37.77-.96,1.06-1.38.25-.37.46-.76.46-1.27,0-.74-.49-1.43-1.47-1.43-1,0-1.51.77-1.57,1.61h-1.3c.04-.86.4-1.55.74-1.94.32-.36.96-.86,2.07-.86,1.88,0,2.85,1.29,2.86,2.67,0,.73-.28,1.33-.64,1.86-.32.48-.73.97-1.26,1.59l-1.38,1.63h3.31s0,1.25,0,1.25Z"/>
        <path class="cls-21" d="M163.11,16.52h-3.08s0,2.25,0,2.25h2.97s0,1.27,0,1.27h-2.97s0,4.06,0,4.06h-1.35s0-8.85,0-8.85h4.43s0,1.27,0,1.27Z"/>
      </g>
    </g>
    <g id="S2E">
      <rect class="cls-7" x="171.46" y="6.37" width="35.87" height="24.74"/>
      <g id="S2E-2" data-name="S2E">
        <path class="cls-21" d="M183.65,17.22c-.08-.2-.2-.39-.4-.56-.28-.23-.57-.32-.96-.32-.82,0-1.25.49-1.25,1.06,0,.27.09.73.96,1.07l.89.36c1.63.66,2.09,1.59,2.09,2.6,0,1.69-1.19,2.84-2.85,2.84-1.02,0-1.63-.38-2.08-.89-.48-.53-.69-1.11-.74-1.73l1.34-.29c0,.44.16.85.37,1.13.25.32.62.53,1.15.53.82,0,1.46-.6,1.46-1.49,0-.9-.69-1.27-1.28-1.51l-.85-.36c-.73-.3-1.81-.92-1.81-2.24,0-1.19.93-2.34,2.59-2.34.96,0,1.5.36,1.78.6.24.21.49.52.68.89l-1.09.64Z"/>
        <path class="cls-21" d="M192.02,24.11h-5.95s3.07-3.72,3.07-3.72c.3-.37.77-.96,1.06-1.38.25-.37.46-.76.46-1.27,0-.74-.49-1.43-1.47-1.43-1,0-1.51.77-1.57,1.61h-1.3c.04-.86.4-1.55.74-1.94.32-.36.96-.86,2.07-.86,1.88,0,2.85,1.29,2.86,2.67,0,.73-.28,1.33-.64,1.86-.32.48-.73.97-1.26,1.59l-1.38,1.63h3.31s0,1.25,0,1.25Z"/>
        <path class="cls-21" d="M199.1,16.52h-3.53s0,2.25,0,2.25h3.43s0,1.27,0,1.27h-3.43s0,2.79,0,2.79h3.53s0,1.27,0,1.27h-4.89s0-8.85,0-8.85h4.89s0,1.27,0,1.27Z"/>
      </g>
    </g>
    <g id="S2D">
      <rect class="cls-7" x="207.32" y="6.37" width="35.87" height="24.74"/>
      <g id="S2D-2" data-name="S2D">
        <path class="cls-21" d="M218.56,17.22c-.08-.2-.2-.39-.4-.56-.28-.23-.57-.32-.96-.32-.82,0-1.25.49-1.25,1.06,0,.27.09.73.96,1.07l.89.36c1.63.66,2.09,1.59,2.09,2.6,0,1.69-1.19,2.84-2.85,2.84-1.02,0-1.63-.38-2.08-.89-.48-.53-.69-1.11-.74-1.73l1.34-.29c0,.44.16.85.37,1.13.25.32.62.53,1.15.53.82,0,1.46-.6,1.46-1.49,0-.9-.69-1.27-1.28-1.51l-.85-.36c-.73-.31-1.81-.92-1.81-2.24,0-1.19.93-2.34,2.59-2.34.96,0,1.5.36,1.78.6.24.21.49.52.68.89l-1.09.64Z"/>
        <path class="cls-21" d="M226.93,24.11h-5.95s3.07-3.72,3.07-3.72c.3-.37.77-.96,1.06-1.38.25-.37.46-.76.46-1.27,0-.74-.49-1.43-1.47-1.43-1,0-1.51.77-1.57,1.61h-1.3c.04-.86.4-1.55.74-1.94.32-.36.96-.86,2.07-.86,1.88,0,2.85,1.29,2.86,2.67,0,.73-.28,1.33-.64,1.86-.32.48-.73.97-1.26,1.59l-1.38,1.63h3.31s0,1.25,0,1.25Z"/>
        <path class="cls-21" d="M230.99,15.25c1.23,0,2.31.13,3.29.86,1.08.81,1.7,2.1,1.7,3.57,0,1.47-.61,2.75-1.78,3.57-1.04.73-2,.85-3.24.85h-1.83s0-8.85,0-8.85h1.86ZM230.49,22.83h.58c.66,0,1.58-.05,2.35-.63.61-.46,1.21-1.31,1.21-2.52,0-1.17-.56-2.08-1.2-2.55-.77-.56-1.71-.61-2.36-.61h-.58s0,6.31,0,6.31Z"/>
      </g>
    </g>
    <polyline class="cls-7" points="94.55 89.35 102.37 89.35 102.37 103.53"/>
    <line class="cls-7" x1="259.79" y1="149.48" x2="275.42" y2="149.48"/>
    <line class="cls-7" x1="259.79" y1="146.64" x2="275.42" y2="146.64"/>
    <line class="cls-7" x1="259.79" y1="143.8" x2="275.42" y2="143.8"/>
    <line class="cls-7" x1="259.79" y1="140.95" x2="275.42" y2="140.95"/>
    <line class="cls-7" x1="259.79" y1="138.11" x2="275.42" y2="138.11"/>
    <polyline class="cls-7" points="259.85 135.27 267.67 135.27 267.67 149.45"/>
    <line class="cls-7" x1="444.38" y1="237.54" x2="444.38" y2="221.91"/>
    <line class="cls-7" x1="441.53" y1="237.54" x2="441.53" y2="221.91"/>
    <line class="cls-7" x1="438.69" y1="237.54" x2="438.69" y2="221.91"/>
    <line class="cls-7" x1="435.85" y1="237.54" x2="435.85" y2="221.91"/>
    <line class="cls-7" x1="433.01" y1="237.54" x2="433.01" y2="221.91"/>
    <line class="cls-7" x1="430.16" y1="229.66" x2="444.35" y2="229.66"/>
    <g>
      <path class="cls-21" d="M185.38,54.41v.47h-6.19v-.47h2.79v-.68h.54v.68h2.87ZM185.11,59.65c0,.29-.06.45-.29.54-.24.08-.61.08-1.21.08-.03-.14-.1-.36-.17-.5.46.01.86.01.99,0,.12,0,.14-.04.14-.14v-1.99h-4.56v2.64h-.51v-3.09h5.61v2.46ZM184.21,55.28v1.47h-3.85v-1.47h3.85ZM183.68,55.66h-2.8v.7h2.8v-.7ZM181.4,59.63v.36h-.47v-1.88h2.72v1.52h-2.24ZM181.4,58.5v.73h1.77v-.73h-1.77Z"/>
      <path class="cls-21" d="M188.45,58.03c-.12-.24-.4-.72-.63-1.09v3.34h-.5v-3.34c-.24.78-.57,1.54-.91,2-.06-.14-.19-.35-.28-.47.45-.6.91-1.73,1.14-2.71h-1v-.5h1.05v-1.54h.5v1.54h.87v.5h-.87v.55c.22.27.8,1.11.93,1.32l-.3.41ZM191.9,56.87c-.2.65-.49,1.24-.88,1.76.5.54,1.1.96,1.79,1.21-.12.1-.29.32-.37.46-.68-.28-1.27-.72-1.76-1.26-.5.53-1.14.97-1.93,1.27-.06-.12-.19-.32-.28-.42.78-.29,1.41-.73,1.89-1.26-.37-.5-.68-1.08-.9-1.71l.46-.13c.19.52.44,1,.76,1.43.32-.45.54-.94.68-1.47l.53.12ZM190.19,55.69c-.29.59-.75,1.2-1.23,1.62-.08-.1-.25-.25-.37-.33.45-.38.88-.98,1.11-1.49l.49.19ZM192.67,55.28h-3.92v-.5h1.68v-1.06h.52v1.06h1.71v.5ZM191.6,55.47c.46.46.97,1.09,1.2,1.52l-.45.26c-.21-.42-.7-1.08-1.16-1.55l.42-.23Z"/>
      <path class="cls-21" d="M195.61,58.03c-.12-.24-.4-.72-.63-1.09v3.34h-.5v-3.34c-.24.78-.57,1.54-.91,2-.06-.14-.19-.35-.27-.47.45-.6.91-1.73,1.13-2.71h-.98v-.5h1.03v-1.54h.5v1.54h.88v.5h-.88v.55c.22.27.8,1.11.93,1.32l-.3.41ZM198.4,58.01c.42.59,1.1,1.2,1.64,1.52-.12.1-.29.29-.38.41-.5-.37-1.12-1.01-1.55-1.65v1.99h-.52v-1.9c-.47.67-1.14,1.28-1.77,1.63-.09-.13-.24-.32-.37-.42.67-.32,1.41-.94,1.85-1.59h-1.19v-2.43h1.47v-.59h-1.7v-.45h1.7v-.81h.52v.81h1.72v.45h-1.72v.59h1.52v2.43h-1.23ZM196.6,56.59h.99v-.61h-.99v.61ZM196.6,57.6h.99v-.62h-.99v.62ZM198.11,55.98v.61h1.02v-.61h-1.02ZM199.13,56.98h-1.02v.62h1.02v-.62Z"/>
    </g>
    <rect class="cls-6" x="260.11" y="6.36" width="42.76" height="51.03"/>
    <polyline class="cls-13" points="243.19 159.4 243.19 107.58 94.49 107.58"/>
    <polyline class="cls-13" points="94.81 0 94.81 6.37 243.19 6.37 243.19 0"/>
    <polyline class="cls-7" points="94.49 78.54 94.49 107.58 94.49 254.99 243.13 254.99"/>
    <polyline class="cls-6" points="302.87 98.59 302.87 57.39 260.11 57.39 260.11 79.7 272.39 79.7 272.39 98.59"/>
    <polyline class="cls-13" points="259.79 159.4 259.85 153.03 302.87 153.03 302.87 6.37 260.11 6.37 260.11 0"/>
    <rect class="cls-7" x="260.11" y="79.7" width="12.28" height="18.9"/>
    <g>
      <line class="cls-19" x1="266.25" y1="89.15" x2="312.75" y2="89.15"/>
      <line class="cls-10" x1="266.25" y1="89.15" x2="312.75" y2="89.15"/>
    </g>
    <g id="J2L">
      <path class="cls-21" d="M258.23,278.21v5.73c0,.7-.02,1.41-.33,2.02-.28.56-.88,1.28-2.08,1.28-.78,0-1.3-.28-1.57-.45l.66-1.14c.17.15.45.32.93.32.23,0,.66-.04.89-.6.08-.2.15-.52.15-1.42v-5.73s1.35,0,1.35,0Z"/>
      <path class="cls-21" d="M265.69,287.06h-5.95s3.06-3.71,3.06-3.71c.31-.37.77-.96,1.06-1.38.25-.37.46-.76.46-1.27,0-.74-.49-1.43-1.47-1.43-1,0-1.51.77-1.57,1.61h-1.3c.04-.86.4-1.55.74-1.94.32-.36.96-.86,2.07-.86,1.88,0,2.85,1.29,2.85,2.67,0,.73-.28,1.33-.64,1.86-.32.48-.73.97-1.26,1.59l-1.38,1.63h3.31s0,1.25,0,1.25Z"/>
      <path class="cls-21" d="M269.25,278.2v7.58s2.61,0,2.61,0v1.27s-3.96,0-3.96,0v-8.85s1.35,0,1.35,0Z"/>
      <path class="cls-21" d="M249.91,293.39l.38-.27c.19.33.42.47.73.47.45,0,.68-.26.68-.9v-2.93s.53,0,.53,0v2.98c0,.72-.33,1.31-1.15,1.31-.53,0-.91-.23-1.16-.67Z"/>
      <path class="cls-21" d="M253.04,293.67c1.23-1.23,1.93-1.96,1.93-2.63,0-.46-.25-.8-.77-.8-.34,0-.64.22-.87.49l-.3-.29c.34-.37.71-.62,1.24-.62.75,0,1.22.47,1.22,1.2,0,.77-.7,1.53-1.67,2.55.22-.02.47-.04.69-.04h1.19s0,.45,0,.45h-2.65s0-.31,0-.31Z"/>
      <path class="cls-21" d="M260.52,291.38c-.15.57-.41,1.16-.84,1.63-.6.66-1.32,1-2.05,1.2l-.36-.41c.81-.17,1.53-.53,2.02-1.05.35-.37.58-.86.68-1.27h-3.05c-.14,0-.36,0-.56.02v-.48c.21.02.41.04.56.04h3.02c.13,0,.25-.01.32-.05l.33.21c-.03.05-.06.13-.07.17ZM257.4,289.73h2.25c.18,0,.38,0,.52-.03v.48c-.14-.01-.33-.02-.53-.02h-2.25c-.18,0-.36,0-.52.02v-.48c.15.02.33.03.52.03Z"/>
      <path class="cls-21" d="M263.82,289.81v.53h1.29c.21,0,.32-.02.4-.05l.31.2c-.03.09-.06.24-.09.34-.07.46-.24,1.18-.56,1.73-.43.75-1.22,1.34-2.27,1.62l-.37-.43c.19-.03.41-.09.6-.16.57-.18,1.2-.61,1.55-1.15.31-.49.49-1.18.54-1.68h-3.21s0,1.03,0,1.03c0,.1,0,.25.02.34h-.5c.01-.1.02-.26.02-.37v-1.01c0-.12,0-.32-.02-.44.17.02.33.02.53.02h1.27s0-.53,0-.53c0-.12,0-.25-.03-.43h.55c-.03.18-.03.31-.03.43Z"/>
      <path class="cls-21" d="M268.91,292.77c.88-.56,1.58-1.41,1.92-2.11l.28.49c-.39.72-1.06,1.5-1.93,2.04-.57.36-1.3.71-2.25.89l-.3-.47c1-.15,1.75-.5,2.29-.84ZM268.57,290.96l-.36.36c-.29-.3-1-.91-1.43-1.2l.33-.35c.41.27,1.14.87,1.46,1.19Z"/>
      <path class="cls-21" d="M273.28,291.67l-.26.4c-.29-.21-.91-.61-1.26-.79l.26-.39c.34.18,1.01.6,1.26.77ZM273.96,293.04c.95-.54,1.71-1.3,2.17-2.11l.28.48c-.5.77-1.29,1.51-2.21,2.05-.57.34-1.37.6-1.9.71l-.26-.46c.63-.11,1.34-.34,1.92-.67ZM274.14,290.41l-.27.4c-.28-.21-.9-.62-1.23-.82l.26-.38c.34.19,1,.63,1.25.81ZM275.88,290.58l-.33.15c-.14-.3-.33-.64-.52-.91l.32-.13c.14.21.4.62.53.89ZM276.65,290.29l-.33.15c-.15-.3-.35-.63-.55-.89l.32-.14c.16.2.41.61.55.88Z"/>
    </g>
    <rect class="cls-7" x="423.84" y="237.55" width="23.97" height="33.83"/>
    <line class="cls-7" x1="299.54" y1="203.49" x2="283.91" y2="203.49"/>
    <line class="cls-7" x1="299.54" y1="206.33" x2="283.91" y2="206.33"/>
    <line class="cls-7" x1="299.54" y1="209.17" x2="283.91" y2="209.17"/>
    <line class="cls-7" x1="299.54" y1="212.02" x2="283.91" y2="212.02"/>
    <line class="cls-7" x1="291.66" y1="214.86" x2="291.66" y2="200.68"/>
    <line class="cls-7" x1="441.5" y1="229.66" x2="441.5" y2="221.84"/>
    <line class="cls-7" x1="438.66" y1="229.66" x2="438.66" y2="221.84"/>
    <line class="cls-7" x1="444.35" y1="229.66" x2="444.35" y2="221.84"/>
    <line class="cls-7" x1="441.5" y1="229.66" x2="441.5" y2="221.84"/>
    <line class="cls-7" x1="435.82" y1="229.66" x2="435.82" y2="221.84"/>
    <line class="cls-7" x1="432.98" y1="229.66" x2="432.98" y2="221.84"/>
    <rect class="cls-5" x="282.62" y="285.57" width="16.86" height="12.74"/>
    <rect class="cls-2" x="371.27" y="273.57" width="35.87" height="24.74"/>
    <g id="J2A">
      <rect class="cls-7" x="299.54" y="273.57" width="35.87" height="24.74"/>
      <g>
        <path class="cls-21" d="M310.68,281.12v5.73c0,.7-.02,1.41-.33,2.02-.28.56-.88,1.27-2.08,1.28-.78,0-1.3-.28-1.57-.45l.66-1.14c.17.15.45.32.93.32.23,0,.66-.04.89-.6.08-.2.15-.52.15-1.42v-5.73s1.35,0,1.35,0Z"/>
        <path class="cls-21" d="M318.15,289.97h-5.95s3.06-3.72,3.06-3.72c.31-.37.77-.96,1.06-1.38.25-.37.46-.76.46-1.27,0-.74-.49-1.43-1.47-1.43-1,0-1.51.77-1.57,1.61h-1.3c.04-.86.4-1.55.74-1.94.32-.36.96-.86,2.07-.86,1.88,0,2.85,1.29,2.85,2.67,0,.73-.28,1.33-.64,1.86-.32.48-.73.97-1.26,1.59l-1.38,1.63h3.31s0,1.25,0,1.25Z"/>
        <path class="cls-21" d="M325.56,287.83h-3.78s-.97,2.14-.97,2.14h-1.46l4.4-9.37,4.2,9.37h-1.46s-.93-2.14-.93-2.14ZM325.01,286.55l-1.32-3-1.37,3h2.68Z"/>
      </g>
    </g>
    <g>
      <rect class="cls-7" x="335.41" y="273.57" width="35.87" height="24.74"/>
      <g>
        <path class="cls-21" d="M347.41,281.12v5.73c0,.7-.02,1.41-.33,2.02-.28.56-.88,1.28-2.08,1.28-.78,0-1.3-.28-1.57-.45l.66-1.14c.17.15.45.32.93.32.23,0,.66-.04.89-.6.08-.2.15-.52.15-1.42v-5.73s1.35,0,1.35,0Z"/>
        <path class="cls-21" d="M354.88,289.97h-5.95s3.06-3.72,3.06-3.72c.31-.37.77-.96,1.06-1.38.25-.37.46-.76.46-1.27,0-.74-.49-1.43-1.47-1.43-1,0-1.51.77-1.57,1.61h-1.3c.04-.86.4-1.55.74-1.94.32-.36.96-.86,2.07-.86,1.89,0,2.85,1.29,2.86,2.67,0,.73-.28,1.33-.64,1.86-.32.48-.73.97-1.26,1.59l-1.38,1.63h3.31s0,1.25,0,1.25Z"/>
        <path class="cls-21" d="M358.42,281.11c1.14,0,1.86.15,2.44.69.48.45.7,1.02.7,1.75,0,.35-.05.7-.26,1.05-.2.35-.46.52-.66.61.16.04.7.19,1.14.64.48.5.58,1.12.58,1.66,0,.64-.16,1.14-.58,1.59-.7.74-1.81.86-2.48.86h-2.22s0-8.85,0-8.85h1.34ZM358.44,284.92h.41c.33,0,.78-.04,1.1-.35.3-.29.34-.7.34-1.01,0-.27-.04-.58-.32-.85-.31-.29-.69-.33-1.08-.33h-.46s0,2.54,0,2.54ZM358.44,288.69h.82c.38,0,1-.07,1.34-.35.26-.21.44-.59.44-.98,0-.36-.13-.7-.36-.93-.37-.36-.92-.4-1.39-.4h-.85s0,2.66,0,2.66Z"/>
      </g>
    </g>
    <g>
      <rect class="cls-7" x="299.54" y="197.1" width="35.87" height="24.74"/>
      <g>
        <path class="cls-21" d="M311.84,204.91v5.73c0,.7-.02,1.41-.33,2.02-.28.56-.88,1.28-2.08,1.28-.78,0-1.3-.28-1.57-.45l.66-1.14c.17.15.45.32.93.32.23,0,.66-.04.89-.6.08-.2.15-.52.15-1.42v-5.73s1.35,0,1.35,0Z"/>
        <path class="cls-21" d="M319.31,213.76h-5.95s3.06-3.71,3.06-3.71c.31-.37.77-.96,1.06-1.38.25-.37.46-.76.46-1.27,0-.74-.49-1.43-1.47-1.43-1,0-1.51.77-1.57,1.61h-1.3c.04-.86.4-1.55.74-1.94.32-.36.96-.86,2.07-.86,1.88,0,2.85,1.29,2.86,2.67,0,.73-.28,1.33-.64,1.86-.32.48-.73.97-1.26,1.59l-1.38,1.63h3.31s0,1.25,0,1.25Z"/>
        <path class="cls-21" d="M326.39,206.18h-3.53s0,2.25,0,2.25h3.42s0,1.27,0,1.27h-3.42s0,2.79,0,2.79h3.53s0,1.27,0,1.27h-4.89s0-8.85,0-8.85h4.89s0,1.27,0,1.27Z"/>
      </g>
    </g>
    <g>
      <rect class="cls-7" x="335.41" y="197.1" width="35.87" height="24.74"/>
      <g>
        <path class="cls-21" d="M346.63,205.71v5.73c0,.7-.02,1.41-.33,2.02-.28.56-.88,1.27-2.08,1.28-.78,0-1.3-.28-1.57-.45l.66-1.14c.17.15.45.32.93.32.23,0,.66-.04.89-.6.08-.2.15-.52.15-1.42v-5.73s1.35,0,1.35,0Z"/>
        <path class="cls-21" d="M354.1,214.56h-5.95s3.06-3.72,3.06-3.72c.31-.37.77-.96,1.06-1.38.25-.37.46-.76.46-1.27,0-.74-.49-1.43-1.47-1.43-1,0-1.51.77-1.57,1.61h-1.3c.04-.86.4-1.55.74-1.94.32-.36.95-.86,2.07-.86,1.89,0,2.86,1.29,2.86,2.67,0,.73-.28,1.33-.64,1.86-.32.48-.73.97-1.26,1.59l-1.38,1.63h3.31s0,1.25,0,1.25Z"/>
        <path class="cls-21" d="M358.16,205.7c1.23,0,2.31.13,3.29.86,1.08.81,1.7,2.1,1.7,3.57,0,1.47-.61,2.75-1.78,3.57-1.04.73-2,.85-3.24.85h-1.83s0-8.85,0-8.85h1.86ZM357.65,213.28h.58c.66,0,1.58-.05,2.35-.62.61-.47,1.21-1.32,1.21-2.52,0-1.17-.56-2.08-1.2-2.55-.77-.56-1.71-.61-2.36-.61h-.58v6.31Z"/>
      </g>
    </g>
    <g>
      <rect class="cls-7" x="371.27" y="197.1" width="35.87" height="24.74"/>
      <g>
        <path class="cls-21" d="M382.66,205.91v5.73c0,.7-.02,1.41-.33,2.02-.28.56-.88,1.27-2.08,1.28-.78,0-1.3-.28-1.57-.45l.66-1.14c.17.15.45.32.93.32.23,0,.66-.04.89-.6.08-.2.15-.52.15-1.42v-5.73s1.35,0,1.35,0Z"/>
        <path class="cls-21" d="M390.12,214.76h-5.95s3.06-3.72,3.06-3.72c.31-.37.77-.96,1.06-1.38.25-.37.46-.76.46-1.28,0-.74-.49-1.43-1.47-1.43-1,0-1.51.77-1.57,1.61h-1.3c.04-.86.4-1.55.74-1.94.32-.36.95-.86,2.07-.86,1.89,0,2.86,1.29,2.86,2.67,0,.73-.28,1.33-.64,1.86-.32.48-.73.97-1.26,1.59l-1.38,1.63h3.31s0,1.25,0,1.25Z"/>
        <path class="cls-21" d="M398.88,207.97c-.98-.89-1.9-.98-2.4-.98-1.92,0-3.22,1.42-3.22,3.37,0,1.87,1.36,3.32,3.24,3.32,1.06,0,1.88-.54,2.39-1.02v1.61c-.89.53-1.82.67-2.43.67-1.61,0-2.62-.73-3.13-1.22-1.04-.97-1.42-2.1-1.42-3.34,0-1.63.68-2.76,1.42-3.47.92-.86,1.98-1.16,3.2-1.16.81,0,1.59.14,2.36.63v1.59Z"/>
      </g>
    </g>
    <polyline class="cls-14" points="259.73 190.73 259.73 197.1 286.85 197.1 407.14 197.1 407.14 221.84 447.8 221.84 447.8 263.49 447.8 271.37 478.51 271.35 478.51 284.42 534.24 284.42 534.24 305.12 540.61 305.12"/>
    <line class="cls-14" x1="243.13" y1="190.73" x2="243.13" y2="254.89"/>
    <polyline class="cls-7" points="77.89 0 77.89 107.58 77.89 218.14 .12 218.17 .12 170.97 .12 218.17 53.13 218.17 53.13 233.62 44.92 233.62"/>
    <g id="_音楽室2" data-name="音楽室2">
      <g>
        <path class="cls-21" d="M434.1,286.36v.54h-7.08s0-.54,0-.54h2.02c-.06-.34-.26-.83-.47-1.19l.57-.12c.24.37.44.87.51,1.21l-.41.11h2.58s-.36-.1-.36-.1c.18-.34.42-.86.54-1.22h-4.53s0-.53,0-.53h2.76v-.73h.61v.73h2.86s0,.53,0,.53h-1.58s.54.13.54.13c-.21.42-.42.87-.62,1.19h2.05ZM428.19,287.59h4.85s0,3.47,0,3.47h-.62v-.27h-3.63v.3h-.59v-3.49ZM428.78,288.11v.84h3.63v-.84h-3.63ZM432.41,290.28v-.86s-3.63,0-3.63,0v.86s3.63,0,3.63,0Z"/>
        <path class="cls-21" d="M436.96,286.69c-.6.37-1.26.76-1.77,1.06l-.31-.49c.48-.25,1.21-.66,1.91-1.06l.17.48ZM439.39,288.82c.69.7,1.8,1.28,2.85,1.57-.14.12-.31.34-.39.5-1.1-.36-2.25-1.05-3.01-1.88v2.05s-.59,0-.59,0v-2.09c-.74.86-1.91,1.59-2.97,1.98-.09-.15-.26-.38-.4-.5,1.01-.31,2.1-.93,2.8-1.63h-2.64s0-.53,0-.53h3.21s0-.67,0-.67h-1.15s0-3.03,0-3.03h1c.09-.26.17-.58.21-.81l.64.1c-.09.25-.18.5-.27.71h1.38s0,3.03,0,3.03h-1.21s0,.67,0,.67h3.25s0,.53,0,.53h-2.69ZM436.42,285.85c-.24-.38-.79-.9-1.28-1.25l.4-.34c.5.34,1.06.83,1.32,1.21l-.44.38ZM437.64,285.87h1.84s0-.81,0-.81h-1.84s0,.81,0,.81ZM437.64,287.13h1.84v-.82h-1.84v.82ZM441.86,287.73c-.38-.36-1.17-.87-1.8-1.21l.35-.39c.62.31,1.42.8,1.81,1.14l-.36.46ZM441.95,284.48c-.42.46-.95.97-1.38,1.3l-.44-.3c.42-.34.99-.9,1.32-1.3l.5.3Z"/>
        <path class="cls-21" d="M450.09,290.31v.54h-7.04s0-.53,0-.53h3.18s0-1,0-1h-2.45s0-.53,0-.53h2.45v-.9c-.97.03-1.86.06-2.57.08l-.03-.54c.33,0,.7,0,1.11-.02.23-.34.49-.78.68-1.16h-1.47s0-.53,0-.53h5.25s0,.53,0,.53h-3.1c-.22.38-.49.79-.74,1.14.9-.02,1.9-.05,2.9-.08-.26-.22-.54-.42-.8-.6l.42-.3c.67.42,1.48,1.07,1.86,1.53l-.45.34c-.12-.14-.28-.31-.47-.49-.66.02-1.34.05-2,.06v.92h2.56s0,.53,0,.53h-2.56s0,1,0,1h3.25ZM443.72,285.84h-.57s0-1.47,0-1.47h3.09v-.59h.6v.59h3.15s0,1.47,0,1.47h-.59v-.92s-5.68,0-5.68,0v.92Z"/>
        <path class="cls-21" d="M450.91,290.03c1.84-1.61,2.68-2.78,2.68-3.78,0-.67-.35-1.16-1.08-1.16-.48,0-.9.3-1.21.68l-.42-.42c.48-.52.98-.86,1.73-.86,1.05,0,1.7.69,1.7,1.73,0,1.17-.92,2.36-2.29,3.66.3-.02.66-.06.96-.06h1.62s0,.63,0,.63h-3.69s0-.43,0-.43Z"/>
      </g>
      <rect class="cls-7" x="423.84" y="271.35" width="32.52" height="33.76"/>
    </g>
    <g id="_聖堂" data-name="聖堂">
      <g>
        <path class="cls-21" d="M419.06,383.8c.26,0,.55-.02.86-.04v-3.27h-.71v-.6h4.82s0,.6,0,.6h-.65v4.35s-.71,0-.71,0v-.67c-1.29.11-2.59.2-3.55.27l-.07-.65ZM428.46,388.16v.66h-9.36s0-.65,0-.65h4.28v-.91h-2.99s0-.63,0-.63h2.99v-.87h-3.44s0-.63,0-.63h7.75s0,.63,0,.63h-3.54v.87h3.04s0,.63,0,.63h-3.04v.91h4.31ZM420.62,380.49v.67s2.06,0,2.06,0v-.67s-2.06,0-2.06,0ZM420.62,382.4h2.06v-.71h-2.06v.71ZM420.62,383.72c.65-.04,1.34-.08,2.06-.14v-.63s-2.06,0-2.06,0v.77ZM428.13,384.15h-3.69s0-3.9,0-3.9h3.69s0,3.9,0,3.9ZM427.38,380.91h-2.25s0,2.56,0,2.56h2.25s0-2.56,0-2.56Z"/>
        <path class="cls-21" d="M438.7,388.02v.69h-9.02s0-.68,0-.68h4.1s0-1.25,0-1.25h-3.19s0-.68,0-.68h3.19v-1.03h-2.46s0-2.39,0-2.39h5.75s0,2.39,0,2.39h-2.53v1.03h3.37s0,.67,0,.67h-3.37s0,1.25,0,1.25h4.16ZM430.47,383.42h-.71v-2.27s1.79,0,1.79,0c-.2-.38-.53-.88-.84-1.27l.68-.27c.38.42.78.98.96,1.36l-.38.18h1.82s0-1.66,0-1.66h.76v1.66s1.92,0,1.92,0l-.45-.18c.31-.39.72-.99.95-1.41l.79.28c-.33.47-.72.96-1.05,1.3h1.94s0,2.27,0,2.27h-.75s0-1.58,0-1.58h-7.41s0,1.59,0,1.59ZM432.05,384.44h4.26v-1.16h-4.26v1.16Z"/>
      </g>
      <polygon class="cls-7" points="451 404.89 407.16 404.89 407.16 334.94 441.15 334.94 441.15 369.91 451 369.91 451 404.89"/>
    </g>
    <g id="_音楽室3" data-name="音楽室3">
      <g>
        <path class="cls-21" d="M462.71,286.56v.38h-4.96s0-.38,0-.38h1.42c-.04-.24-.18-.58-.33-.84l.4-.08c.17.26.31.61.36.85l-.29.07h1.81s-.25-.07-.25-.07c.13-.24.3-.6.38-.86h-3.18s0-.37,0-.37h1.93v-.51h.43s0,.51,0,.51h2s0,.37,0,.37h-1.11s.38.09.38.09c-.15.29-.3.61-.44.83h1.44ZM458.57,287.42h3.39s0,2.43,0,2.43h-.44v-.19h-2.54v.21h-.41v-2.45ZM458.98,287.78v.59h2.54v-.59h-2.54ZM461.53,289.3v-.6h-2.54v.61h2.54Z"/>
        <path class="cls-21" d="M464.71,286.79c-.42.26-.88.53-1.24.75l-.21-.34c.34-.17.85-.46,1.34-.74l.12.34ZM466.41,288.28c.48.49,1.26.9,1.99,1.1-.09.08-.22.24-.27.35-.77-.25-1.58-.74-2.11-1.32v1.44s-.41,0-.41,0v-1.46c-.52.6-1.34,1.12-2.08,1.38-.06-.11-.19-.26-.28-.35.71-.22,1.47-.65,1.96-1.14h-1.85s0-.37,0-.37h2.25s0-.47,0-.47h-.81v-2.12s.7,0,.7,0c.06-.19.12-.4.15-.57l.45.07c-.06.17-.13.35-.19.5h.96s0,2.12,0,2.12h-.85s0,.47,0,.47h2.27s0,.37,0,.37h-1.89ZM464.33,286.2c-.17-.26-.56-.63-.9-.87l.28-.24c.35.24.75.58.93.84l-.31.27ZM465.18,286.22h1.29v-.57h-1.29v.57ZM465.18,287.1h1.29v-.58h-1.29v.58ZM468.14,287.52c-.27-.25-.82-.61-1.26-.85l.25-.27c.43.22.99.56,1.27.8l-.25.32ZM468.21,285.24c-.29.33-.67.68-.97.91l-.31-.21c.3-.24.69-.63.92-.91l.35.21Z"/>
        <path class="cls-21" d="M473.9,289.33v.38s-4.93,0-4.93,0v-.38s2.23,0,2.23,0v-.7h-1.72s0-.37,0-.37h1.72v-.63c-.68.02-1.3.04-1.8.06l-.02-.38c.23,0,.49,0,.78-.01.16-.24.34-.55.48-.81h-1.03s0-.37,0-.37h3.68s0,.37,0,.37h-2.17c-.16.26-.34.56-.52.8.63-.02,1.33-.03,2.03-.06-.18-.15-.38-.3-.56-.42l.3-.21c.47.3,1.04.75,1.3,1.07l-.31.24c-.08-.1-.2-.22-.33-.34-.46.02-.94.04-1.4.05v.64h1.79s0,.37,0,.37h-1.79v.7h2.28ZM469.44,286.2h-.4v-1.03s2.16,0,2.16,0v-.41h.42v.41h2.21s0,1.03,0,1.03h-.41v-.64s-3.98,0-3.98,0v.64Z"/>
        <path class="cls-21" d="M474.39,288.95l.26-.34c.24.25.55.47,1.02.47s.83-.29.83-.77-.33-.82-1.28-.82v-.39c.85,0,1.14-.34,1.14-.78,0-.39-.27-.65-.69-.65-.33,0-.62.16-.85.4l-.27-.33c.31-.29.67-.49,1.15-.49.69,0,1.19.38,1.19,1.03,0,.5-.3.83-.73.99v.02c.48.11.87.48.87,1.04,0,.73-.59,1.17-1.32,1.17-.64,0-1.05-.27-1.32-.56Z"/>
      </g>
      <rect class="cls-7" x="456.26" y="271.35" width="22.25" height="33.76"/>
    </g>
    <rect class="cls-7" x="478.52" y="284.42" width="26.51" height="20.69"/>
    <rect class="cls-7" x="505.03" y="284.42" width="29.16" height="20.69"/>
    <rect class="cls-7" x="425.16" y="334.94" width="15.99" height="34.97"/>
    <rect class="cls-8" x="441.15" y="334.94" width="9.86" height="34.97"/>
    <line class="cls-11" x1="540.61" y1="321.72" x2="534.24" y2="321.72"/>
    <line class="cls-3" x1="534.24" y1="305.12" x2="540.61" y2="305.12"/>
    <polyline class="cls-7" points="450.99 414.45 450.99 334.89 480.95 321.72 534.17 321.72 550.95 331.59"/>
    <g>
      <line class="cls-19" x1="397.34" y1="352.43" x2="433.15" y2="352.43"/>
      <line class="cls-10" x1="397.34" y1="352.43" x2="433.15" y2="352.43"/>
    </g>
    <polyline class="cls-14" points="540.61 321.72 534.17 321.72 550.95 331.59"/>
    <g>
      <line class="cls-19" x1="519.6" y1="279.86" x2="519.6" y2="294.77"/>
      <line class="cls-10" x1="519.6" y1="279.86" x2="519.6" y2="294.77"/>
    </g>
    <g>
      <line class="cls-19" x1="491.76" y1="279.86" x2="491.76" y2="294.77"/>
      <line class="cls-10" x1="491.76" y1="279.86" x2="491.76" y2="294.77"/>
    </g>
    <g>
      <path class="cls-27" d="M101.41,111.28h-2.25s0,1.43,0,1.43h2.18s0,.81,0,.81h-2.18s0,1.78,0,1.78h2.25s0,.81,0,.81h-3.12s0-5.65,0-5.65h3.12s0,.81,0,.81Z"/>
      <path class="cls-27" d="M103.97,112.12c-.14.42-.32.95-.48,1.37.35.42.43.8.43,1.11,0,.28-.06.49-.19.59-.07.05-.16.08-.25.09-.09.01-.21.01-.32,0,0-.1-.04-.24-.1-.34.11,0,.2,0,.27,0,.07,0,.12-.02.16-.04.07-.06.1-.21.1-.36,0-.28-.09-.63-.43-1.03.14-.38.28-.84.38-1.2h-.63s0,4.18,0,4.18h-.34v-4.53s1.11,0,1.11,0l.05-.02.25.15ZM105.45,113.64c-.52.13-1.05.27-1.47.37l-.1-.33c.1-.02.21-.04.34-.07v-1.78s.35,0,.35,0v.62h.81s0,.32,0,.32h-.81v.77c.27-.06.56-.13.85-.2l.03.3ZM105.63,113.89c-.06.15-.12.31-.18.44h1.36s0,2.14,0,2.14h-.38v-.17h-1.78v.19h-.35v-2.16s.77,0,.77,0c.06-.17.13-.38.16-.53l.39.08ZM106.45,114.66h-1.78v.5h1.78v-.5ZM106.45,115.98v-.52s-1.78,0-1.78,0v.52s1.78,0,1.78,0ZM106.62,113.6c.12,0,.16-.06.17-.49.08.06.22.11.32.14-.04.54-.14.67-.45.67h-.58c-.39,0-.48-.09-.48-.48v-1.61s.35,0,.35,0v.77c.3-.13.6-.3.78-.45l.27.25c-.3.19-.69.37-1.05.5v.54c0,.14.02.16.17.16h.5Z"/>
      <path class="cls-27" d="M108.3,115.62v.88s-.36,0-.36,0v-.82l-.36.06-.07-.37.43-.07v-3.16s.21.07.21.07c.46-.12.95-.3,1.23-.46l.33.28c-.38.19-.92.35-1.4.47v.6s1.2,0,1.2,0v.35h-1.2s0,.64,0,.64h1.24s0,.36,0,.36h-1.24s0,.79,0,.79c.43-.07.91-.15,1.37-.23l.02.36-1.39.25ZM112.06,114.13c-.18.61-.48,1.1-.87,1.47.32.25.7.44,1.14.56-.09.07-.2.23-.25.33-.45-.14-.85-.35-1.18-.64-.4.3-.85.51-1.34.66-.04-.1-.14-.25-.21-.34.46-.12.91-.31,1.27-.59-.28-.31-.5-.69-.66-1.12l.25-.07h-.47s0-.35,0-.35h1.99s.07-.02.07-.02l.24.1ZM110.41,112.72c0,.42-.1.93-.62,1.26-.05-.07-.19-.21-.26-.27.46-.29.52-.66.52-1v-.73s1.53,0,1.53,0v1.27c0,.1,0,.15.03.17.02.02.05.02.08.02h.15s.09,0,.11-.02c.03-.02.05-.05.06-.11.01-.08.02-.23.02-.44.07.06.2.12.3.15-.01.2-.03.44-.05.52-.03.09-.08.14-.16.17-.06.04-.16.05-.24.05h-.27c-.09,0-.22-.03-.29-.09-.07-.06-.1-.15-.1-.44v-.91s-.82,0-.82,0v.4ZM110.31,114.41c.14.36.34.68.6.95.28-.27.5-.58.66-.95h-1.26Z"/>
    </g>
    <g>
      <path class="cls-27" d="M267.58,155.36c.79,0,1.47.08,2.1.55.69.52,1.08,1.34,1.08,2.28,0,.94-.39,1.75-1.13,2.28-.66.47-1.28.54-2.07.54h-1.17s0-5.65,0-5.65h1.19ZM267.27,160.2h.37c.42,0,1.01-.03,1.5-.4.39-.3.77-.84.77-1.61,0-.75-.36-1.33-.76-1.63-.49-.36-1.09-.39-1.51-.39h-.37s0,4.02,0,4.02Z"/>
      <path class="cls-27" d="M273.3,157.01c-.14.42-.32.95-.48,1.37.35.42.43.8.43,1.11,0,.28-.06.49-.19.59-.07.05-.16.08-.25.09-.09.01-.21.01-.32,0,0-.1-.04-.24-.1-.34.11,0,.2,0,.27,0,.07,0,.12-.02.16-.04.07-.06.1-.21.1-.36,0-.28-.09-.63-.43-1.03.13-.38.28-.84.38-1.2h-.63s0,4.18,0,4.18h-.34v-4.53s1.11,0,1.11,0l.05-.02.25.15ZM274.78,158.53c-.52.13-1.05.27-1.47.37l-.1-.33c.1-.02.21-.04.34-.07v-1.78s.35,0,.35,0v.62h.81s0,.32,0,.32h-.81s0,.77,0,.77c.27-.06.56-.13.85-.2l.03.3ZM274.96,158.79c-.06.15-.12.31-.18.44h1.36s0,2.14,0,2.14h-.38v-.17h-1.78s0,.19,0,.19h-.35v-2.16s.77,0,.77,0c.06-.17.13-.38.16-.53l.39.08ZM275.77,159.55h-1.78v.5h1.78v-.5ZM275.78,160.87v-.52s-1.78,0-1.78,0v.52s1.78,0,1.78,0ZM275.95,158.49c.12,0,.16-.06.17-.49.08.06.22.11.32.14-.04.54-.14.67-.45.67h-.58c-.39,0-.48-.09-.48-.48v-1.61s.35,0,.35,0v.77c.3-.13.6-.3.78-.45l.27.25c-.3.19-.69.37-1.05.5v.54c0,.14.02.16.17.16h.5Z"/>
      <path class="cls-27" d="M277.63,160.51v.88s-.36,0-.36,0v-.82s-.36.06-.36.06l-.07-.37.43-.07v-3.16s.21.07.21.07c.46-.13.95-.3,1.23-.46l.33.28c-.38.19-.92.35-1.4.47v.6h1.2s0,.35,0,.35h-1.2s0,.64,0,.64h1.24s0,.36,0,.36h-1.24s0,.79,0,.79c.43-.07.91-.15,1.37-.23l.02.36-1.39.25ZM281.39,159.03c-.18.61-.48,1.1-.87,1.47.32.25.7.44,1.14.56-.09.07-.2.23-.25.33-.45-.14-.85-.35-1.18-.64-.4.3-.85.51-1.34.66-.04-.1-.14-.25-.21-.34.46-.12.91-.31,1.27-.59-.28-.31-.5-.69-.66-1.12l.25-.07h-.47s0-.35,0-.35h1.99s.07-.02.07-.02l.24.1ZM279.74,157.61c0,.42-.1.93-.62,1.26-.05-.07-.19-.21-.26-.27.46-.29.52-.66.52-1v-.73s1.53,0,1.53,0v1.27c0,.1,0,.15.03.17.02.02.05.02.08.02h.15s.09,0,.11-.02c.03-.02.05-.05.06-.11.01-.08.02-.23.02-.44.07.06.2.12.3.15-.01.2-.03.44-.05.52-.03.09-.08.14-.16.17-.06.04-.16.05-.24.05h-.27c-.09,0-.22-.03-.29-.09-.07-.06-.1-.15-.1-.44v-.91s-.82,0-.82,0v.4ZM279.64,159.3c.14.36.34.68.6.95.28-.27.5-.58.66-.95h-1.26Z"/>
    </g>
    <polyline class="cls-7" points="283.85 197.1 283.85 221.84 259.67 221.84"/>
    <g>
      <path class="cls-21" d="M336.23,245.74v3.36h-.55v-.41h-2.06v2.33h-.55v-2.33h-2.06v.45h-.52v-3.4h2.58v-1.28h.55v1.28h2.61ZM333.07,248.17v-1.91h-2.06v1.91h2.06ZM335.69,248.17v-1.91h-2.06v1.91h2.06Z"/>
      <path class="cls-21" d="M343.72,248.99h-2.9v1.4c0,.32-.09.47-.34.55s-.67.09-1.32.09c-.04-.15-.14-.37-.22-.51.55.01,1.04.01,1.17,0,.15,0,.19-.04.19-.15v-1.39h-2.88v-.5h2.88v-.52h.27c.35-.17.72-.4,1.01-.63h-2.97v-.47h3.51l.11-.03.35.26c-.45.46-1.11.91-1.75,1.21v.18h2.9v.5ZM338.06,247.24h-.51v-1.59h1.1c-.14-.27-.39-.63-.6-.9l.45-.2c.27.29.56.7.69.98l-.24.12h1.47c-.09-.3-.32-.73-.53-1.05l.47-.17c.24.34.49.8.58,1.1l-.31.12h1.27c.27-.33.59-.8.77-1.14l.55.19c-.22.32-.49.67-.73.96h1.11v1.59h-.52v-1.11h-5.01v1.11Z"/>
      <path class="cls-21" d="M346.69,248.76c-.12-.24-.4-.72-.63-1.09v3.34h-.5v-3.34c-.24.78-.57,1.54-.91,2-.06-.14-.19-.35-.27-.47.45-.6.91-1.72,1.13-2.71h-.98v-.5h1.03v-1.54h.5v1.54h.88v.5h-.88v.55c.22.27.8,1.11.93,1.32l-.3.41ZM349.48,248.74c.42.59,1.1,1.2,1.64,1.52-.11.1-.29.29-.38.41-.5-.37-1.12-1.01-1.55-1.65v1.99h-.52v-1.9c-.47.67-1.14,1.28-1.77,1.63-.09-.13-.24-.32-.37-.42.67-.32,1.41-.94,1.85-1.59h-1.19v-2.43h1.47v-.59h-1.7v-.45h1.7v-.8h.52v.8h1.72v.45h-1.72v.59h1.52v2.43h-1.23ZM347.68,247.33h.99v-.61h-.99v.61ZM347.68,248.33h.99v-.62h-.99v.62ZM349.19,246.71v.61h1.02v-.61h-1.02ZM350.21,247.71h-1.02v.62h1.02v-.62Z"/>
    </g>
    <g>
      <g>
        <path class="cls-21" d="M266.46,218.76c-.06.11-.14.23-.24.32-.18.16-.4.24-.65.24-.47,0-.97-.3-.97-1.03,0-.59.36-1.04.95-1.04.38,0,.62.19.74.36.12.17.19.48.19.74h-1.53c0,.41.28.67.62.67.16,0,.29-.05.4-.14.09-.08.16-.17.2-.27l.28.16ZM266.12,218.07c-.06-.31-.29-.51-.58-.51s-.52.22-.58.51h1.15Z"/>
        <path class="cls-21" d="M267.33,215.82v3.45s-.34,0-.34,0v-3.45s.34,0,.34,0Z"/>
        <path class="cls-21" d="M269.72,218.76c-.06.11-.14.23-.24.32-.18.16-.4.24-.65.24-.47,0-.97-.3-.97-1.03,0-.59.36-1.04.95-1.04.38,0,.62.19.74.36.12.17.19.48.19.74h-1.53c0,.41.28.67.62.67.16,0,.29-.05.4-.14.09-.08.16-.17.2-.27l.28.16ZM269.38,218.07c-.06-.31-.29-.51-.58-.51-.29,0-.52.22-.58.51h1.15Z"/>
        <path class="cls-21" d="M270.34,217.3l.59,1.32.59-1.33h.38l-.96,2.09-.97-2.09h.38Z"/>
        <path class="cls-21" d="M273.75,217.3h.34v1.96s-.34,0-.34,0v-.27c-.11.15-.33.33-.67.33-.5,0-.96-.35-.96-1.04,0-.68.45-1.03.96-1.03.38,0,.58.21.67.33v-.28ZM272.48,218.28c0,.42.24.74.64.74.42,0,.65-.34.65-.73,0-.51-.35-.73-.65-.73-.34,0-.64.25-.64.73Z"/>
        <path class="cls-21" d="M275.09,217.61v1.65s-.34,0-.34,0v-1.65h-.21v-.31h.21v-.71s.34,0,.34,0v.71h.34v.31h-.34Z"/>
        <path class="cls-21" d="M275.62,218.29c0-.6.44-1.04,1.04-1.04.6,0,1.04.44,1.04,1.04,0,.6-.44,1.03-1.04,1.03-.6,0-1.04-.43-1.04-1.03ZM275.97,218.29c0,.48.34.73.69.73s.69-.25.69-.73c0-.48-.33-.73-.69-.73s-.69.26-.69.73Z"/>
        <path class="cls-21" d="M278.22,217.3h.34v.21c.03-.05.18-.26.44-.26.1,0,.22.04.3.08l-.16.31c-.08-.05-.15-.07-.2-.07-.14,0-.22.06-.27.12-.06.08-.11.21-.11.53v1.04s-.34,0-.34,0v-1.96Z"/>
      </g>
      <g>
        <path class="cls-21" d="M269.34,208.58c.25,0,.46-.21.46-.46s-.21-.46-.46-.46-.46.21-.46.46.2.46.46.46"/>
        <polygon class="cls-21" points="269.02 210.4 268.87 209.24 269.8 209.24 269.63 210.4 270.14 210.4 270.37 208.75 268.3 208.75 268.53 210.4 269.02 210.4"/>
        <polygon class="cls-21" points="269.33 210.57 268.69 210.57 268.24 213.12 268.89 213.12 269.33 210.57"/>
        <polygon class="cls-21" points="269.33 210.57 269.78 213.12 270.42 213.12 269.97 210.57 269.33 210.57"/>
        <path class="cls-21" d="M271.59,208.58c.25,0,.46-.21.46-.46s-.2-.46-.46-.46-.46.21-.46.46.2.46.46.46"/>
        <polygon class="cls-21" points="271.28 210.4 271.12 209.24 272.05 209.24 271.88 210.4 272.39 210.4 272.62 208.75 270.55 208.75 270.78 210.4 271.28 210.4"/>
        <polygon class="cls-21" points="271.58 210.57 270.94 210.57 270.49 213.12 271.14 213.12 271.58 210.57"/>
        <polygon class="cls-21" points="271.58 210.57 272.03 213.12 272.68 213.12 272.22 210.57 271.58 210.57"/>
        <path class="cls-21" d="M273.84,208.58c.25,0,.46-.21.46-.46s-.2-.46-.46-.46-.46.21-.46.46.2.46.46.46"/>
        <polygon class="cls-21" points="273.53 210.4 273.37 209.24 274.3 209.24 274.13 210.4 274.65 210.4 274.87 208.75 272.8 208.75 273.03 210.4 273.53 210.4"/>
        <polygon class="cls-21" points="273.83 210.57 273.2 210.57 272.74 213.12 273.39 213.12 273.83 210.57"/>
        <polygon class="cls-21" points="273.83 210.57 274.28 213.12 274.93 213.12 274.47 210.57 273.83 210.57"/>
        <path class="cls-21" d="M266.9,214.76h9.39v-9.39h-9.39v9.39ZM275.29,213.77h-7.4v-7.41h7.4v7.41Z"/>
        <polygon class="cls-21" points="273.41 204.87 274.4 204.87 274.4 201.43 275.95 202.99 275.95 201.59 273.91 199.54 271.86 201.59 271.86 202.99 273.41 201.43 273.41 204.87"/>
        <polygon class="cls-21" points="271.19 202.82 271.19 201.42 269.64 202.97 269.64 199.54 268.65 199.54 268.65 202.97 267.09 201.42 267.09 202.82 269.14 204.87 271.19 202.82"/>
      </g>
    </g>
    <line class="cls-7" x1="243.13" y1="190.73" x2="243.13" y2="158.67"/>
    <line class="cls-7" x1="259.73" y1="190.73" x2="259.73" y2="158.67"/>
    <g>
      <path class="cls-27" d="M38.4,227.19h-2.39s-.61,1.35-.61,1.35h-.92l2.78-5.92,2.65,5.91h-.92s-.59-1.35-.59-1.35ZM38.05,226.39l-.83-1.89-.86,1.89h1.69Z"/>
      <path class="cls-27" d="M42.04,224.58c-.14.42-.31.94-.47,1.36.35.42.42.79.42,1.1,0,.27-.06.49-.19.59-.07.05-.15.08-.25.09-.09.01-.21.01-.32,0,0-.1-.04-.24-.1-.33.11,0,.2.01.27,0,.07,0,.12-.02.16-.04.07-.06.1-.21.1-.36,0-.27-.09-.62-.43-1.02.13-.38.27-.84.38-1.19h-.62v4.14s-.34,0-.34,0v-4.49s1.1,0,1.1,0h.05s.25.13.25.13ZM43.51,226.08c-.51.13-1.04.27-1.45.37l-.1-.32c.1-.02.21-.04.33-.07v-1.77s.34,0,.34,0v.62h.8v.31h-.8v.76c.27-.06.56-.13.85-.2l.03.3ZM43.69,226.34c-.06.15-.12.3-.18.44h1.35s0,2.12,0,2.12h-.37v-.17s-1.76,0-1.76,0v.19s-.35,0-.35,0v-2.15s.77,0,.77,0c.06-.17.13-.37.16-.52l.38.08ZM44.5,227.1h-1.76v.49h1.76v-.49ZM44.5,228.4v-.52h-1.76v.52h1.76ZM44.67,226.04c.12,0,.15-.06.16-.48.08.06.22.11.32.14-.04.53-.14.67-.45.67h-.58c-.39,0-.47-.09-.47-.47v-1.6s.34,0,.34,0v.76c.29-.13.59-.29.77-.44l.27.25c-.29.19-.69.37-1.04.5v.54c0,.13.02.15.17.15h.5Z"/>
      <path class="cls-27" d="M46.33,228.05v.88s-.36,0-.36,0v-.81s-.36.06-.36.06l-.07-.37.42-.07v-3.13s.2.07.2.07c.46-.12.94-.29,1.22-.45l.33.27c-.38.19-.91.35-1.39.46v.59h1.19s0,.35,0,.35h-1.19v.63h1.23v.36s-1.23,0-1.23,0v.78c.42-.07.9-.15,1.36-.23l.02.36-1.38.25ZM50.06,226.58c-.18.61-.48,1.09-.86,1.46.31.25.69.44,1.13.56-.09.07-.2.23-.25.33-.45-.14-.84-.35-1.17-.63-.39.29-.84.51-1.32.65-.04-.1-.13-.25-.21-.34.46-.12.9-.31,1.26-.58-.28-.31-.5-.69-.66-1.11l.25-.07h-.46s0-.35,0-.35h1.98s.07-.02.07-.02l.24.1ZM48.42,225.17c0,.42-.1.92-.62,1.25-.05-.07-.19-.21-.26-.26.46-.28.52-.66.52-1v-.73s1.52,0,1.52,0v1.26c0,.1,0,.15.03.17.02.02.05.02.08.02h.15s.09,0,.11-.02c.03-.02.05-.05.06-.11.01-.08.02-.23.02-.44.07.06.2.12.29.14-.01.2-.03.43-.05.52-.03.09-.08.14-.15.17-.06.04-.16.05-.24.05h-.26c-.09,0-.22-.03-.28-.09-.07-.06-.1-.15-.1-.43v-.9h-.81v.4ZM48.33,226.84c.14.36.34.68.6.94.27-.26.5-.57.65-.94h-1.25Z"/>
    </g>
    <g>
      <path class="cls-27" d="M139.73,295.86c.72,0,1.17.09,1.54.44.3.28.44.64.44,1.11,0,.22-.03.44-.17.66-.13.22-.29.33-.42.38.1.03.44.12.72.4.3.32.37.7.37,1.05,0,.4-.1.72-.37,1-.44.47-1.14.54-1.57.55h-1.4v-5.59s.84,0,.84,0ZM139.74,298.26h.26c.21,0,.49-.03.7-.22.19-.18.22-.44.22-.64,0-.17-.02-.37-.2-.54-.19-.18-.44-.21-.68-.21h-.29v1.6ZM139.74,300.64h.52c.24,0,.63-.04.85-.22.17-.13.28-.37.28-.62,0-.23-.08-.44-.23-.59-.23-.23-.58-.25-.88-.25h-.54v1.67Z"/>
      <path class="cls-27" d="M144.73,297.48c-.14.42-.31.94-.47,1.36.35.42.42.79.42,1.1,0,.27-.06.49-.19.59-.07.05-.15.08-.25.09-.09.01-.21.01-.32,0,0-.1-.04-.24-.1-.33.11,0,.2.01.27,0,.07,0,.12-.02.16-.04.07-.06.1-.21.1-.36,0-.27-.09-.62-.43-1.02.13-.38.27-.84.38-1.19h-.62v4.14s-.34,0-.34,0v-4.49s1.1,0,1.1,0h.05s.25.13.25.13ZM146.2,298.99c-.51.13-1.04.27-1.45.37l-.1-.32c.1-.02.21-.04.33-.07v-1.77s.34,0,.34,0v.62h.8v.31h-.8v.76c.27-.06.56-.13.85-.2l.03.3ZM146.38,299.24c-.06.15-.12.3-.17.44h1.35s0,2.12,0,2.12h-.37s0-.17,0-.17h-1.76v.19h-.35v-2.15s.77,0,.77,0c.06-.17.13-.37.16-.52l.38.08ZM147.18,300h-1.76v.49h1.76v-.49ZM147.18,301.31v-.52h-1.76v.52h1.76ZM147.36,298.94c.12,0,.15-.06.16-.48.08.06.22.11.32.14-.04.53-.14.67-.45.67h-.58c-.39,0-.47-.09-.47-.47v-1.6s.34,0,.34,0v.76c.29-.13.59-.29.77-.44l.27.25c-.29.19-.69.37-1.04.5v.54c0,.13.02.15.17.15h.5Z"/>
      <path class="cls-27" d="M149.02,300.95v.88s-.36,0-.36,0v-.81s-.36.06-.36.06l-.07-.37.42-.07v-3.13s.2.07.2.07c.46-.12.94-.29,1.22-.45l.33.27c-.38.19-.91.35-1.39.46v.59h1.19s0,.35,0,.35h-1.19v.63h1.23v.36s-1.23,0-1.23,0v.78c.42-.07.9-.15,1.36-.23l.02.36-1.38.25ZM152.75,299.48c-.18.61-.48,1.09-.86,1.46.31.25.69.44,1.13.56-.09.07-.2.23-.25.33-.45-.14-.84-.35-1.17-.63-.39.29-.84.51-1.32.65-.04-.1-.13-.25-.21-.34.46-.12.9-.31,1.26-.58-.28-.31-.5-.69-.66-1.11l.25-.07h-.46v-.35s1.97,0,1.97,0h.07s.24.08.24.08ZM151.11,298.08c0,.42-.1.92-.62,1.25-.05-.07-.19-.21-.26-.26.46-.28.52-.66.52-1v-.73s1.52,0,1.52,0v1.26c0,.1,0,.15.03.17.02.02.05.02.08.02h.15s.09,0,.11-.02c.03-.02.05-.05.06-.11.01-.08.02-.23.02-.44.07.06.2.12.29.14,0,.2-.03.43-.05.52-.03.09-.08.14-.15.17-.06.04-.16.05-.24.05h-.26c-.09,0-.22-.03-.28-.09-.07-.06-.1-.15-.1-.43v-.9h-.81v.4ZM151.01,299.75c.14.36.34.68.6.94.27-.26.49-.57.65-.94h-1.25Z"/>
    </g>
    <g>
      <path class="cls-21" d="M80.85,260.38v3.33h-.54v-.41h-2.04v2.3h-.55v-2.3h-2.03v.44h-.52v-3.36h2.55v-1.27h.55v1.27h2.58ZM77.72,262.78v-1.88h-2.03v1.88h2.03ZM80.31,262.78v-1.88h-2.04v1.88h2.04Z"/>
      <path class="cls-21" d="M85.62,262.95c.49,1.13,1.43,1.88,2.84,2.17-.11.11-.26.33-.34.47-1.49-.37-2.44-1.21-2.97-2.52-.33,1.02-1.12,1.93-2.94,2.54-.05-.12-.19-.34-.29-.45,1.65-.55,2.38-1.34,2.7-2.21h-2.65v-.52h.78v-2.33h2.08v-.99h.53v.99h2.21v2.33h.73v.52h-2.68ZM84.74,262.43c.06-.35.09-.7.09-1.05v-.77h-1.56v1.82h1.48ZM85.35,260.61v.77c0,.35-.01.7-.07,1.05h1.73v-1.82h-1.66Z"/>
      <path class="cls-21" d="M91.21,263.37c-.12-.24-.4-.71-.63-1.08v3.31h-.5v-3.31c-.24.77-.56,1.52-.9,1.98-.06-.14-.18-.35-.27-.47.44-.6.9-1.71,1.12-2.68h-.97v-.49h1.02v-1.52h.5v1.52h.87v.49h-.87v.54c.21.26.79,1.09.92,1.3l-.3.41ZM93.97,263.35c.42.58,1.09,1.19,1.62,1.51-.11.1-.28.28-.38.41-.49-.36-1.11-1-1.54-1.63v1.97h-.51v-1.88c-.46.66-1.13,1.27-1.75,1.61-.09-.13-.24-.31-.36-.41.66-.31,1.39-.93,1.83-1.57h-1.18v-2.4h1.46v-.58h-1.69v-.45h1.69v-.8h.51v.8h1.7v.45h-1.7v.58h1.51v2.4h-1.22ZM92.18,261.95h.98v-.6h-.98v.6ZM92.18,262.95h.98v-.61h-.98v.61ZM93.68,261.35v.6h1.01v-.6h-1.01ZM94.69,262.33h-1.01v.61h1.01v-.61Z"/>
    </g>
    <g>
      <path class="cls-21" d="M19.23,167.15c.2-.62.2-1.98.2-2.74,0-.2-.02-.35-.05-.5h.63c0,.08-.03.29-.03.49,0,.76-.03,2.22-.21,2.9-.2.73-.64,1.4-1.21,1.88l-.51-.35c.57-.41.98-1.02,1.19-1.68ZM21.22,168.48v-4.09c0-.26-.04-.46-.04-.5h.63s-.03.25-.03.5v3.94c.63-.29,1.47-.91,1.99-1.68l.32.46c-.59.8-1.53,1.5-2.32,1.89-.11.06-.18.12-.23.16l-.36-.3c.03-.11.05-.25.05-.38Z"/>
      <path class="cls-21" d="M25.91,166.09h3.74c.34,0,.59-.02.74-.04v.67c-.14,0-.42-.03-.73-.03h-3.74c-.38,0-.74.02-.95.04v-.67c.2.01.57.03.95.03Z"/>
      <path class="cls-21" d="M35.89,164.81c-.14.72-.48,1.81-1.02,2.52-.62.8-1.43,1.43-2.69,1.83l-.46-.51c1.32-.34,2.09-.92,2.66-1.65.48-.62.8-1.57.89-2.22h-3.49c-.27,0-.5.02-.68.02v-.6c.19.02.46.04.68.04h3.42c.1,0,.23,0,.36-.04l.42.27c-.05.1-.07.21-.1.34Z"/>
      <path class="cls-21" d="M39.58,164.27c0,.25-.02.48-.03.7h1.62c.18,0,.32-.01.44-.03l.38.19c-.02.12-.03.25-.03.33-.03.65-.11,2.64-.41,3.29-.14.29-.35.42-.73.42-.35,0-.74-.02-1.1-.05l-.07-.57c.37.05.73.07,1.02.07.2,0,.32-.06.4-.22.26-.53.35-2.2.35-2.93h-1.91c-.24,1.97-.95,3-2.09,3.78l-.5-.4c.22-.12.5-.31.7-.5.68-.61,1.17-1.47,1.35-2.87h-1.15c-.27,0-.55,0-.78.03v-.57c.24.02.52.03.78.03h1.2c.01-.22.03-.45.03-.69,0-.16-.02-.41-.05-.57h.64c-.02.15-.03.39-.04.55ZM41.99,164.58l-.37.16c-.14-.27-.37-.68-.55-.94l.36-.16c.17.25.42.66.56.93ZM42.74,164.3l-.36.16c-.15-.29-.38-.68-.57-.93l.36-.16c.18.25.44.68.57.93Z"/>
      <path class="cls-21" d="M44.43,166.08h3.74c.34,0,.59-.02.74-.04v.67c-.14,0-.42-.03-.73-.03h-3.74c-.38,0-.74.02-.95.04v-.67c.2.01.57.03.95.03Z"/>
      <path class="cls-21" d="M50.52,165.75h4.47c.14,0,.37,0,.53-.04v.57c-.15,0-.37-.01-.53-.01h-1.85c-.02.74-.13,1.36-.4,1.87-.25.45-.76.94-1.34,1.24l-.5-.38c.53-.22,1.02-.61,1.29-1.04.3-.47.37-1.04.39-1.69h-2.05c-.2,0-.4,0-.59.01v-.57c.18.02.38.03.59.03ZM51.35,164.05h2.36c.2,0,.44-.02.63-.04v.57c-.2-.01-.44-.02-.63-.02h-2.35c-.23,0-.45,0-.63.02v-.57c.2.02.4.04.62.04ZM55.26,164.39l-.37.16c-.14-.28-.37-.69-.55-.95l.36-.15c.17.24.42.65.56.93ZM56.03,164.11l-.37.16c-.15-.3-.37-.68-.57-.94l.36-.15c.18.25.44.67.57.93Z"/>
      <path class="cls-21" d="M59.26,167.56c1.05-.66,1.88-1.67,2.28-2.51l.33.58c-.46.85-1.26,1.78-2.29,2.43-.68.43-1.54.85-2.68,1.06l-.36-.56c1.19-.18,2.08-.59,2.73-1ZM58.85,165.4l-.43.43c-.34-.35-1.19-1.08-1.7-1.42l.39-.42c.48.32,1.36,1.03,1.74,1.41Z"/>
    </g>
    <polyline class="cls-7" points="75.9 218.14 53.12 218.14 53.12 233.62 75.9 233.62"/>
    <rect class="cls-7" x="125.33" y="271.42" width="12.63" height="21.38"/>
    <rect class="cls-7" x="153.44" y="271.42" width="12.63" height="21.38"/>
    <line class="cls-7" x1="138.03" y1="288.93" x2="153.5" y2="288.93"/>
    <line class="cls-7" x1="137.96" y1="286.12" x2="153.44" y2="286.12"/>
    <line class="cls-7" x1="137.96" y1="283.3" x2="153.44" y2="283.3"/>
    <line class="cls-7" x1="137.96" y1="280.49" x2="153.44" y2="280.49"/>
    <line class="cls-7" x1="137.96" y1="277.68" x2="153.44" y2="277.68"/>
    <polyline class="cls-7" points="138.02 274.86 145.76 274.86 145.76 288.9"/>
    <line class="cls-7" x1="57.11" y1="218.14" x2="57.11" y2="233.62"/>
    <line class="cls-7" x1="59.92" y1="218.14" x2="59.92" y2="233.62"/>
    <line class="cls-7" x1="62.73" y1="218.14" x2="62.73" y2="233.62"/>
    <line class="cls-7" x1="65.55" y1="218.14" x2="65.55" y2="233.62"/>
    <line class="cls-7" x1="68.36" y1="218.14" x2="68.36" y2="233.62"/>
    <line class="cls-7" x1="71.72" y1="225.94" x2="57.14" y2="225.94"/>
    <g>
      <line class="cls-19" x1="131.65" y1="281.97" x2="131.65" y2="298.6"/>
      <line class="cls-10" x1="131.65" y1="281.97" x2="131.65" y2="298.6"/>
    </g>
    <g>
      <line class="cls-19" x1="159.75" y1="281.97" x2="159.75" y2="298.6"/>
      <line class="cls-10" x1="159.75" y1="281.97" x2="159.75" y2="298.6"/>
    </g>
    <line class="cls-1" x1="239.56" y1="271.44" x2="243.39" y2="271.44"/>
    <line class="cls-7" x1="44.92" y1="271.43" x2="44.92" y2="254.99"/>
    <g>
      <g>
        <path class="cls-21" d="M430.79,262.68v2.26s-.46,0-.46,0v-2.26h-.29v-.43h.28v-.97h.47v.97h.47v.43h-.47Z"/>
        <path class="cls-21" d="M431.53,263.61c0-.82.6-1.42,1.42-1.42.82,0,1.42.6,1.42,1.42s-.61,1.41-1.42,1.41c-.82,0-1.42-.59-1.42-1.41ZM432.01,263.61c0,.66.47,1,.95,1s.94-.34.94-1-.45-1-.95-1-.94.35-.94,1Z"/>
        <path class="cls-21" d="M435.32,260.91c.18,0,.33.15.33.33s-.15.33-.33.33-.33-.15-.33-.33.15-.33.33-.33ZM435.55,262.25v2.68s-.46,0-.46,0v-2.68s.46,0,.46,0Z"/>
        <path class="cls-21" d="M436.89,260.22v4.72s-.46,0-.46,0v-4.72s.46,0,.46,0Z"/>
        <path class="cls-21" d="M440.16,264.25c-.08.15-.19.31-.33.43-.25.22-.55.33-.89.33-.65,0-1.33-.41-1.33-1.4,0-.8.49-1.42,1.3-1.42.52,0,.85.26,1.02.49.17.24.27.65.25,1.01h-2.09c0,.56.39.91.85.91.22,0,.39-.07.55-.19.12-.1.22-.24.28-.37l.39.21ZM439.7,263.3c-.08-.42-.39-.7-.79-.7s-.72.3-.79.7h1.58Z"/>
        <path class="cls-21" d="M441.36,262.68v2.26s-.46,0-.46,0v-2.26h-.29v-.43h.29v-.97h.47v.97h.47s0,.43,0,.43h-.47Z"/>
      </g>
      <g>
        <path class="cls-23" d="M435.85,246.35c.73,0,1.33-.59,1.33-1.33s-.59-1.32-1.33-1.32-1.33.59-1.33,1.32.6,1.33,1.33,1.33"/>
        <path class="cls-23" d="M440.44,253.32l-.93-1.11-1.9-2.27.55-3.11h-1.47l-.62,3.53,2.13,2.54c-.73.28-1.52.44-2.35.44s-1.62-.16-2.35-.44l2.13-2.54-.62-3.53h-1.47l.55,3.11-1.9,2.27-.93,1.11c.94.67,2.03,1.13,3.2,1.34l.67,4.76h1.44l.67-4.76c1.18-.21,2.27-.67,3.2-1.34"/>
      </g>
    </g>
    <g>
      <g>
        <path class="cls-24" d="M108.08,13.19c0,.74-.6,1.33-1.34,1.33s-1.33-.6-1.33-1.33.6-1.34,1.33-1.34,1.34.6,1.34,1.34"/>
        <polygon class="cls-24" points="109.9 27.71 108.59 20.3 106.74 20.3 108.05 27.71 109.9 27.71"/>
        <polygon class="cls-24" points="103.7 15.02 104.38 19.82 105.85 19.82 105.38 16.47 108.1 16.47 107.63 19.82 109.1 19.82 109.78 15.02 103.7 15.02"/>
        <polygon class="cls-24" points="103.58 27.71 104.89 20.3 106.74 20.3 105.43 27.71 103.58 27.71"/>
      </g>
      <g>
        <path class="cls-21" d="M101.59,31.05v2.29s-.47,0-.47,0v-2.29h-.29v-.43h.29v-.99s.47,0,.47,0v.99h.47v.43h-.47Z"/>
        <path class="cls-21" d="M102.34,31.99c0-.83.61-1.44,1.45-1.44.83,0,1.45.61,1.45,1.44,0,.83-.62,1.43-1.45,1.43-.83,0-1.45-.6-1.45-1.43ZM102.83,31.99c0,.67.47,1.01.96,1.01.49,0,.96-.35.96-1.01,0-.67-.46-1.02-.96-1.02-.5,0-.96.36-.96,1.02Z"/>
        <path class="cls-21" d="M106.2,29.24c.18,0,.34.15.34.34s-.15.33-.34.33-.34-.15-.34-.33.15-.34.34-.34ZM106.44,30.61v2.73s-.47,0-.47,0v-2.73s.47,0,.47,0Z"/>
        <path class="cls-21" d="M107.8,28.54v4.79s-.47,0-.47,0v-4.79s.47,0,.47,0Z"/>
        <path class="cls-21" d="M111.12,32.64c-.08.15-.2.32-.33.44-.25.22-.56.34-.91.34-.66,0-1.35-.41-1.35-1.43,0-.82.5-1.45,1.32-1.45.53,0,.87.26,1.03.5.17.24.27.66.26,1.03h-2.12c0,.57.39.93.87.93.22,0,.4-.07.56-.2.12-.11.22-.24.28-.38l.39.22ZM110.65,31.67c-.08-.43-.4-.71-.8-.71s-.73.3-.8.71h1.6Z"/>
        <path class="cls-21" d="M112.35,31.04v2.29s-.47,0-.47,0v-2.29h-.29v-.43h.29v-.99s.47,0,.47,0v.99h.47v.43h-.47Z"/>
      </g>
    </g>
    <g>
      <g>
        <path class="cls-24" d="M520.94,254.98c0,.74-.6,1.33-1.34,1.33s-1.33-.6-1.33-1.33.6-1.34,1.33-1.34,1.34.6,1.34,1.34"/>
        <polygon class="cls-24" points="522.77 269.49 521.46 262.08 519.61 262.08 520.92 269.49 522.77 269.49"/>
        <polygon class="cls-24" points="516.57 256.8 517.25 261.6 518.72 261.6 518.25 258.26 520.97 258.26 520.5 261.6 521.97 261.6 522.65 256.8 516.57 256.8"/>
        <polygon class="cls-24" points="516.45 269.49 517.76 262.08 519.61 262.08 518.3 269.49 516.45 269.49"/>
      </g>
      <g>
        <path class="cls-21" d="M514.46,272.83v2.29s-.47,0-.47,0v-2.29h-.29v-.43h.29v-.99h.47s0,.99,0,.99h.47v.43h-.47Z"/>
        <path class="cls-21" d="M515.21,273.77c0-.83.61-1.44,1.45-1.44.83,0,1.45.61,1.45,1.44,0,.83-.62,1.43-1.45,1.43-.83,0-1.45-.6-1.45-1.43ZM515.7,273.77c0,.67.47,1.01.96,1.01.49,0,.96-.35.96-1.01s-.46-1.02-.96-1.02c-.5,0-.96.36-.96,1.02Z"/>
        <path class="cls-21" d="M519.07,271.02c.18,0,.34.15.34.34s-.15.33-.34.33-.33-.15-.33-.33.15-.34.33-.34ZM519.3,272.39v2.73s-.47,0-.47,0v-2.73s.47,0,.47,0Z"/>
        <path class="cls-21" d="M520.67,270.33v4.79s-.47,0-.47,0v-4.79s.47,0,.47,0Z"/>
        <path class="cls-21" d="M523.99,274.42c-.08.15-.2.32-.33.44-.25.22-.56.34-.91.34-.66,0-1.35-.41-1.35-1.43,0-.82.5-1.45,1.32-1.45.53,0,.87.26,1.03.5.17.24.27.66.26,1.03h-2.12c0,.57.39.93.87.93.22,0,.4-.07.56-.2.12-.11.22-.24.28-.38l.39.22ZM523.52,273.46c-.08-.43-.4-.71-.8-.71s-.73.3-.8.71h1.6Z"/>
        <path class="cls-21" d="M525.22,272.82v2.29s-.47,0-.47,0v-2.29h-.29v-.43h.29v-.99s.47,0,.47,0v.99h.47v.43h-.47Z"/>
      </g>
    </g>
    <g>
      <g>
        <path class="cls-21" d="M486.71,272.9v2.26s-.46,0-.46,0v-2.26h-.29v-.43h.28v-.97h.47v.97h.47v.43h-.47Z"/>
        <path class="cls-21" d="M487.45,273.83c0-.82.6-1.42,1.42-1.42.82,0,1.42.6,1.42,1.42s-.61,1.41-1.42,1.41c-.82,0-1.42-.59-1.42-1.41ZM487.93,273.82c0,.66.47,1,.95,1s.94-.34.94-1-.45-1-.95-1-.94.35-.94,1Z"/>
        <path class="cls-21" d="M491.24,271.13c.18,0,.33.15.33.33s-.15.33-.33.33-.33-.15-.33-.33.15-.33.33-.33ZM491.47,272.47v2.68s-.46,0-.46,0v-2.68s.46,0,.46,0Z"/>
        <path class="cls-21" d="M492.82,270.44v4.72s-.46,0-.46,0v-4.72s.46,0,.46,0Z"/>
        <path class="cls-21" d="M496.08,274.47c-.08.15-.19.31-.33.43-.25.22-.55.33-.89.33-.65,0-1.33-.41-1.33-1.4,0-.8.49-1.42,1.3-1.42.52,0,.85.26,1.02.49.17.24.27.65.25,1.01h-2.09c0,.56.39.91.85.91.22,0,.39-.07.55-.19.12-.1.22-.24.28-.37l.39.21ZM495.62,273.52c-.08-.42-.39-.7-.79-.7s-.72.3-.79.7h1.58Z"/>
        <path class="cls-21" d="M497.29,272.9v2.26s-.46,0-.46,0v-2.26h-.29v-.43h.29v-.97h.47v.97h.47s0,.43,0,.43h-.47Z"/>
      </g>
      <g>
        <path class="cls-23" d="M491.77,256.56c.73,0,1.33-.59,1.33-1.33s-.59-1.32-1.33-1.32-1.33.59-1.33,1.32.6,1.33,1.33,1.33"/>
        <path class="cls-23" d="M496.37,263.54l-.93-1.11-1.9-2.27.55-3.11h-1.47l-.62,3.53,2.13,2.54c-.73.28-1.52.44-2.35.44s-1.62-.16-2.35-.44l2.13-2.54-.62-3.53h-1.47l.55,3.11-1.9,2.27-.93,1.11c.94.67,2.03,1.13,3.2,1.34l.67,4.76h1.44l.67-4.76c1.18-.21,2.27-.67,3.2-1.34"/>
      </g>
    </g>
    <g>
      <g>
        <path class="cls-21" d="M315.38,99.88v2.26s-.46,0-.46,0v-2.26h-.29v-.43h.28v-.97s.47,0,.47,0v.97h.47v.43h-.47Z"/>
        <path class="cls-21" d="M316.12,100.81c0-.82.6-1.42,1.42-1.42.82,0,1.42.6,1.42,1.42,0,.82-.61,1.41-1.42,1.41-.82,0-1.42-.59-1.42-1.41ZM316.6,100.81c0,.66.47,1,.95,1s.94-.34.94-1c0-.66-.45-1-.94-1s-.94.35-.94,1Z"/>
        <path class="cls-21" d="M319.91,98.11c.18,0,.33.15.33.33s-.15.33-.33.33-.33-.15-.33-.33.15-.33.33-.33ZM320.14,99.46v2.68s-.46,0-.46,0v-2.68s.46,0,.46,0Z"/>
        <path class="cls-21" d="M321.49,97.42v4.72s-.46,0-.46,0v-4.72s.46,0,.46,0Z"/>
        <path class="cls-21" d="M324.75,101.45c-.08.15-.19.31-.33.43-.25.22-.55.33-.89.33-.65,0-1.33-.41-1.33-1.4,0-.8.49-1.42,1.3-1.42.52,0,.85.26,1.02.49.17.24.27.65.25,1.01h-2.09c0,.56.39.91.85.91.22,0,.39-.07.55-.19.12-.1.22-.24.28-.37l.39.21ZM324.29,100.5c-.08-.42-.4-.7-.79-.7s-.72.3-.79.7h1.58Z"/>
        <path class="cls-21" d="M325.96,99.88v2.26s-.46,0-.46,0v-2.26h-.29v-.43h.29v-.97s.47,0,.47,0v.97s.47,0,.47,0v.43h-.47Z"/>
      </g>
      <g>
        <path class="cls-23" d="M320.44,83.55c.73,0,1.33-.59,1.33-1.33s-.59-1.32-1.33-1.32-1.33.59-1.33,1.32.6,1.33,1.33,1.33"/>
        <path class="cls-23" d="M325.03,90.52l-.93-1.11-1.9-2.27.55-3.11h-1.47l-.62,3.53,2.13,2.54c-.73.28-1.52.44-2.35.44s-1.62-.16-2.35-.44l2.13-2.54-.62-3.53h-1.47l.55,3.11-1.9,2.27-.93,1.11c.94.67,2.03,1.13,3.2,1.34l.67,4.76h1.44l.67-4.76c1.18-.21,2.27-.67,3.2-1.34"/>
      </g>
    </g>
    <g>
      <g>
        <path class="cls-21" d="M154.69,321.25v2.26s-.46,0-.46,0v-2.26h-.29v-.43h.28v-.97s.47,0,.47,0v.97h.47v.43h-.47Z"/>
        <path class="cls-21" d="M155.43,322.18c0-.82.6-1.42,1.42-1.42.82,0,1.42.6,1.42,1.42,0,.82-.61,1.41-1.42,1.41-.82,0-1.42-.59-1.42-1.41ZM155.91,322.18c0,.66.47,1,.95,1s.94-.34.94-1c0-.66-.45-1-.94-1s-.94.35-.94,1Z"/>
        <path class="cls-21" d="M159.22,319.48c.18,0,.33.15.33.33s-.15.33-.33.33-.33-.15-.33-.33.15-.33.33-.33ZM159.45,320.83v2.68s-.46,0-.46,0v-2.68s.46,0,.46,0Z"/>
        <path class="cls-21" d="M160.8,318.79v4.72s-.46,0-.46,0v-4.72s.46,0,.46,0Z"/>
        <path class="cls-21" d="M164.06,322.82c-.08.15-.19.31-.33.43-.25.22-.55.33-.89.33-.65,0-1.33-.41-1.33-1.4,0-.8.49-1.42,1.3-1.42.52,0,.85.26,1.02.49.17.24.27.65.25,1.01h-2.09c0,.56.39.91.85.91.22,0,.39-.07.55-.19.12-.1.22-.24.28-.37l.39.21ZM163.6,321.87c-.08-.42-.4-.7-.79-.7s-.72.3-.79.7h1.58Z"/>
        <path class="cls-21" d="M165.27,321.25v2.26s-.46,0-.46,0v-2.26h-.29v-.43h.29v-.97s.47,0,.47,0v.97s.47,0,.47,0v.43h-.47Z"/>
      </g>
      <g>
        <path class="cls-23" d="M159.75,304.92c.73,0,1.33-.59,1.33-1.33s-.59-1.32-1.33-1.32-1.33.59-1.33,1.32.6,1.33,1.33,1.33"/>
        <path class="cls-23" d="M164.35,311.89l-.93-1.11-1.9-2.27.55-3.11h-1.47l-.62,3.53,2.13,2.54c-.73.28-1.52.44-2.35.44s-1.62-.16-2.35-.44l2.13-2.54-.62-3.53h-1.47l.55,3.11-1.9,2.27-.93,1.11c.94.67,2.03,1.13,3.2,1.34l.67,4.76h1.44l.67-4.76c1.18-.21,2.27-.67,3.2-1.34"/>
      </g>
    </g>
    <g>
      <g>
        <path class="cls-24" d="M132.98,303.46c0,.74-.6,1.33-1.34,1.33s-1.33-.6-1.33-1.33.6-1.34,1.33-1.34,1.34.6,1.34,1.34"/>
        <polygon class="cls-24" points="134.8 317.98 133.49 310.57 131.64 310.57 132.95 317.98 134.8 317.98"/>
        <polygon class="cls-24" points="128.61 305.29 129.28 310.09 130.75 310.09 130.28 306.74 133 306.74 132.53 310.09 134 310.09 134.68 305.29 128.61 305.29"/>
        <polygon class="cls-24" points="128.49 317.98 129.79 310.57 131.64 310.57 130.34 317.98 128.49 317.98"/>
      </g>
      <g>
        <path class="cls-21" d="M126.5,321.32v2.29s-.47,0-.47,0v-2.29h-.29v-.43h.29v-.99s.47,0,.47,0v.99h.47v.43h-.47Z"/>
        <path class="cls-21" d="M127.25,322.26c0-.83.61-1.44,1.45-1.44.83,0,1.45.61,1.45,1.44,0,.83-.62,1.43-1.45,1.43-.83,0-1.45-.6-1.45-1.43ZM127.73,322.26c0,.67.47,1.01.96,1.01.49,0,.96-.35.96-1.01,0-.67-.46-1.02-.96-1.02-.5,0-.96.36-.96,1.02Z"/>
        <path class="cls-21" d="M131.1,319.51c.18,0,.34.15.34.34s-.15.33-.34.33-.34-.15-.34-.33.15-.34.34-.34ZM131.34,320.88v2.73s-.47,0-.47,0v-2.73s.47,0,.47,0Z"/>
        <path class="cls-21" d="M132.71,318.81v4.79s-.47,0-.47,0v-4.79s.47,0,.47,0Z"/>
        <path class="cls-21" d="M136.02,322.91c-.08.15-.2.32-.33.44-.25.22-.56.34-.91.34-.66,0-1.35-.41-1.35-1.43,0-.82.5-1.45,1.32-1.45.53,0,.87.26,1.03.5.17.24.27.66.26,1.03h-2.12c0,.57.39.93.87.93.22,0,.4-.07.56-.2.12-.11.22-.24.28-.38l.39.22ZM135.56,321.94c-.08-.43-.4-.71-.8-.71s-.73.3-.8.71h1.6Z"/>
        <path class="cls-21" d="M137.25,321.31v2.29s-.47,0-.47,0v-2.29h-.29v-.43h.29v-.99s.47,0,.47,0v.99h.47v.43h-.47Z"/>
      </g>
    </g>
    <g>
      <rect class="cls-12" x="98.85" y="45.49" width="7" height=".84"/>
      <polyline class="cls-17" points="99.74 45.49 100.07 44.05 104.61 44.05 104.97 45.49"/>
      <polyline class="cls-17" points="105.04 46.33 104.7 51.66 100.03 51.66 99.67 46.33"/>
      <line class="cls-12" x1="101.15" y1="46.97" x2="101.15" y2="50.78"/>
      <line class="cls-12" x1="102.35" y1="46.97" x2="102.35" y2="50.78"/>
      <line class="cls-12" x1="103.6" y1="46.97" x2="103.6" y2="50.78"/>
      <line class="cls-15" x1="98.99" y1="45.35" x2="98.99" y2="46.47"/>
      <line class="cls-17" x1="105.7" y1="45.35" x2="105.7" y2="46.47"/>
    </g>
    <g>
      <rect class="cls-12" x="82.9" y="209.48" width="7" height=".84"/>
      <polyline class="cls-17" points="83.79 209.48 84.12 208.04 88.66 208.04 89.01 209.48"/>
      <polyline class="cls-17" points="89.09 210.32 88.75 215.65 84.07 215.65 83.71 210.32"/>
      <line class="cls-12" x1="85.2" y1="210.95" x2="85.2" y2="214.77"/>
      <line class="cls-12" x1="86.4" y1="210.95" x2="86.4" y2="214.77"/>
      <line class="cls-12" x1="87.65" y1="210.95" x2="87.65" y2="214.77"/>
      <line class="cls-17" x1="83.04" y1="209.34" x2="83.04" y2="210.46"/>
      <line class="cls-17" x1="89.74" y1="209.34" x2="89.74" y2="210.46"/>
    </g>
    <g>
      <rect class="cls-12" x="248.2" y="172.33" width="7" height=".84"/>
      <polyline class="cls-17" points="249.09 172.33 249.42 170.9 253.96 170.9 254.31 172.33"/>
      <polyline class="cls-17" points="254.39 173.17 254.05 178.5 249.37 178.5 249.01 173.17"/>
      <line class="cls-12" x1="250.5" y1="173.81" x2="250.5" y2="177.63"/>
      <line class="cls-12" x1="251.7" y1="173.81" x2="251.7" y2="177.63"/>
      <line class="cls-12" x1="252.95" y1="173.81" x2="252.95" y2="177.63"/>
      <line class="cls-17" x1="248.34" y1="172.19" x2="248.34" y2="173.31"/>
      <line class="cls-17" x1="255.04" y1="172.19" x2="255.04" y2="173.31"/>
    </g>
    <g>
      <rect class="cls-12" x="411.79" y="260.97" width="7" height=".84"/>
      <polyline class="cls-17" points="412.68 260.97 413.02 259.54 417.56 259.54 417.91 260.97"/>
      <polyline class="cls-17" points="417.98 261.81 417.64 267.14 412.97 267.14 412.61 261.81"/>
      <line class="cls-12" x1="414.1" y1="262.45" x2="414.1" y2="266.27"/>
      <line class="cls-12" x1="415.3" y1="262.45" x2="415.3" y2="266.27"/>
      <line class="cls-12" x1="416.55" y1="262.45" x2="416.55" y2="266.27"/>
      <line class="cls-17" x1="411.93" y1="260.83" x2="411.93" y2="261.95"/>
      <line class="cls-17" x1="418.64" y1="260.83" x2="418.64" y2="261.95"/>
    </g>
    <polyline class="cls-12" points="77.89 116.11 .12 116.11 .12 170.97"/>
    <g id="_中教室2" data-name="中教室2">
      <rect class="cls-7" x="202.82" y="271.42" width="36.75" height="40.57"/>
      <g>
        <path class="cls-21" d="M212,288.78v4.49h-.73v-.55h-2.75v3.11h-.74v-3.11h-2.74v.6h-.7v-4.54h3.45v-1.71h.74v1.71h3.48ZM207.77,292.02v-2.54h-2.74v2.54h2.74ZM211.27,292.02v-2.54h-2.75v2.54h2.75Z"/>
        <path class="cls-21" d="M221.55,289.51c-.24,1.54-.59,2.8-1.18,3.83.47.83,1.08,1.49,1.86,1.89-.17.13-.4.41-.5.61-.74-.43-1.32-1.06-1.79-1.83-.57.76-1.3,1.36-2.24,1.85-.08-.16-.28-.49-.42-.63,1-.47,1.73-1.1,2.27-1.93-.36-.78-.65-1.68-.86-2.66-.19.42-.41.8-.65,1.12-.11-.12-.35-.33-.51-.44-.39.48-.93.97-1.43,1.33v.39c.64-.07,1.31-.13,1.96-.2v.61l-1.96.22v1.4c0,.37-.08.55-.34.65-.27.1-.67.11-1.29.11-.03-.18-.12-.45-.23-.62.48,0,.89,0,1.02,0,.12,0,.16-.04.16-.14v-1.33c-.74.09-1.42.15-1.99.21l-.09-.64c.57-.05,1.29-.12,2.07-.2v-.85h.32c.28-.2.56-.46.79-.71h-1.1c-.53.47-1.1.88-1.71,1.23-.11-.14-.37-.4-.51-.54.39-.2.77-.43,1.12-.69h-.15v-.57h.85c.26-.22.49-.46.72-.71h-2.35v-.63h1.65v-.95h-1.27v-.6h1.27v-1.01h.65v1.01h1.2v.59c.25-.43.47-.89.66-1.38l.67.19c-.32.78-.7,1.5-1.14,2.15h.92v.63h-1.39c-.2.25-.4.48-.61.71h1.05l.12-.04.34.25c.73-1,1.22-2.53,1.49-4.12l.72.12c-.11.57-.23,1.13-.38,1.66h2.8v.67h-.61ZM216.27,289.63c.23-.3.44-.61.63-.95h-1.2v.95h.57ZM219.14,289.52c.18,1.09.45,2.13.84,3.02.4-.84.66-1.85.83-3.03h-1.67Z"/>
        <path class="cls-21" d="M231.61,294.92v.64h-8.45v-.64h3.82v-1.2h-2.95v-.63h2.95v-1.08c-1.16.04-2.24.07-3.08.1l-.04-.65c.39,0,.84,0,1.33-.02.28-.41.58-.94.82-1.39h-1.77v-.63h6.31v.63h-3.72c-.27.45-.59.95-.88,1.37,1.08-.03,2.29-.06,3.48-.1-.32-.26-.65-.51-.96-.72l.51-.35c.81.51,1.78,1.29,2.23,1.84l-.54.4c-.14-.17-.34-.38-.57-.59-.8.03-1.61.06-2.4.08v1.1h3.07v.63h-3.07v1.2h3.91ZM223.96,289.55h-.68v-1.77h3.71v-.71h.72v.71h3.78v1.77h-.71v-1.1h-6.81v1.1Z"/>
        <path class="cls-21" d="M232.71,294.93c2.65-2.64,4.15-4.22,4.15-5.67,0-1-.54-1.72-1.67-1.72-.74,0-1.38.47-1.88,1.05l-.65-.63c.74-.8,1.52-1.33,2.67-1.33,1.62,0,2.63,1.02,2.63,2.58,0,1.65-1.51,3.3-3.59,5.49.47-.04,1.01-.09,1.48-.09h2.56v.98h-5.69v-.67Z"/>
      </g>
    </g>
    <g id="_中教室1" data-name="中教室1">
      <rect class="cls-7" x="166.07" y="271.42" width="36.75" height="40.57"/>
      <g>
        <path class="cls-21" d="M175.25,289.06v4.49h-.73v-.55h-2.75v3.11h-.74v-3.11h-2.74v.59h-.7v-4.54h3.45v-1.71h.74v1.71h3.48ZM171.03,292.3v-2.54h-2.74v2.54h2.74ZM174.52,292.3v-2.54h-2.75v2.54h2.75Z"/>
        <path class="cls-21" d="M184.8,289.8c-.24,1.54-.59,2.8-1.18,3.83.47.83,1.08,1.49,1.86,1.89-.17.13-.4.41-.5.6-.74-.43-1.32-1.06-1.79-1.83-.57.76-1.3,1.36-2.24,1.85-.08-.16-.28-.49-.42-.63,1-.47,1.73-1.1,2.27-1.93-.36-.78-.65-1.68-.86-2.66-.19.42-.41.8-.65,1.12-.11-.12-.35-.33-.51-.44-.39.48-.93.97-1.43,1.32v.39c.64-.07,1.31-.13,1.96-.2v.61l-1.96.22v1.4c0,.36-.08.55-.34.65-.27.1-.67.11-1.29.11-.03-.18-.12-.45-.23-.62.48,0,.89,0,1.02,0,.12,0,.16-.04.16-.14v-1.33c-.74.09-1.42.15-1.99.21l-.09-.64c.57-.05,1.29-.12,2.07-.2v-.85h.32c.28-.2.56-.46.79-.71h-1.1c-.53.47-1.1.88-1.71,1.23-.11-.14-.37-.4-.51-.54.39-.2.77-.43,1.12-.69h-.15v-.57h.85c.26-.22.49-.46.72-.71h-2.35v-.63h1.65v-.95h-1.27v-.6h1.27v-1.01h.65v1.01h1.2v.59c.25-.43.47-.89.66-1.38l.67.19c-.32.78-.7,1.5-1.14,2.15h.92v.63h-1.39c-.2.25-.4.48-.61.71h1.05l.12-.04.34.25c.73-1,1.22-2.53,1.49-4.12l.72.12c-.11.57-.23,1.13-.38,1.66h2.8v.67h-.61ZM179.52,289.91c.23-.3.44-.61.63-.95h-1.2v.95h.57ZM182.39,289.81c.18,1.09.45,2.13.84,3.02.4-.84.66-1.85.83-3.03h-1.67Z"/>
        <path class="cls-21" d="M194.86,295.2v.64h-8.45v-.64h3.82v-1.2h-2.95v-.63h2.95v-1.07c-1.16.04-2.24.07-3.08.1l-.04-.65c.39,0,.84,0,1.33-.02.28-.41.58-.94.82-1.39h-1.77v-.63h6.31v.63h-3.72c-.27.45-.59.95-.88,1.37,1.08-.03,2.29-.06,3.48-.1-.32-.26-.65-.51-.96-.72l.51-.36c.81.51,1.78,1.29,2.23,1.84l-.54.4c-.14-.17-.34-.37-.57-.59-.8.03-1.61.06-2.4.08v1.1h3.07v.63h-3.07v1.2h3.91ZM187.21,289.84h-.68v-1.77h3.71v-.71h.72v.71h3.78v1.77h-.71v-1.1h-6.81v1.1Z"/>
        <path class="cls-21" d="M196.51,294.95h2.01v-6.49h-1.6v-.73c.8-.14,1.38-.35,1.88-.64h.86v7.86h1.81v.94h-4.96v-.94Z"/>
      </g>
    </g>
    <g id="_ルカ" data-name="ルカ">
      <rect class="cls-7" x="98.52" y="271.42" width="26.8" height="21.38"/>
      <g>
        <path class="cls-21" d="M107,282.6c.2-.64.21-2.04.21-2.82,0-.21-.02-.36-.05-.51h.64c0,.08-.04.29-.04.5,0,.78-.03,2.28-.22,2.98-.21.75-.66,1.44-1.25,1.93l-.52-.36c.59-.42,1.01-1.04,1.22-1.72ZM109.04,283.97v-4.2c0-.27-.04-.47-.04-.52h.64s-.03.25-.03.52v4.04c.65-.29,1.51-.93,2.05-1.72l.33.48c-.6.82-1.57,1.54-2.39,1.94-.11.06-.19.12-.24.16l-.37-.31c.03-.11.05-.25.05-.39Z"/>
        <path class="cls-21" d="M115.07,279.57c0,.25-.02.49-.03.72h1.67c.19,0,.33-.01.45-.04l.39.2c-.02.12-.04.25-.04.34-.03.67-.11,2.71-.43,3.38-.14.29-.36.43-.75.43-.36,0-.76-.03-1.13-.05l-.07-.58c.38.05.75.08,1.04.08.2,0,.33-.06.41-.23.27-.53.36-2.25.36-3h-1.96c-.25,2.01-.98,3.08-2.15,3.88l-.51-.41c.22-.12.51-.32.72-.52.69-.63,1.2-1.51,1.39-2.95h-1.18c-.27,0-.56,0-.81.03v-.59c.25.03.53.04.8.04h1.23c.01-.22.03-.46.03-.71,0-.15-.02-.41-.05-.58h.66c-.02.16-.03.41-.04.57Z"/>
      </g>
    </g>
    <g id="_マルコ" data-name="マルコ">
      <rect class="cls-7" x="71.72" y="271.42" width="26.8" height="21.38"/>
      <g>
        <path class="cls-21" d="M81.68,280.8c-.5.82-1.39,1.96-2.55,2.84.42.42.92.95,1.2,1.29l-.51.41c-.26-.36-.82-.97-1.26-1.43-.42-.42-1.23-1.12-1.6-1.38l.46-.37c.26.19.83.66,1.31,1.08,1.03-.77,1.83-1.8,2.18-2.43h-4.12c-.27,0-.57.03-.71.04v-.63c.2.03.47.06.71.06h4.17c.2,0,.36-.02.46-.06l.44.36c-.07.08-.13.15-.17.22Z"/>
        <path class="cls-21" d="M83.07,283.12c.2-.64.21-2.04.21-2.82,0-.21-.02-.36-.05-.51h.64c0,.08-.04.29-.04.5,0,.78-.03,2.28-.22,2.98-.21.75-.66,1.44-1.25,1.93l-.52-.36c.59-.42,1.01-1.04,1.22-1.72ZM85.11,284.49v-4.2c0-.27-.04-.47-.04-.52h.64s-.03.25-.03.52v4.04c.65-.29,1.51-.93,2.05-1.72l.33.48c-.6.82-1.57,1.54-2.39,1.94-.11.06-.19.12-.24.16l-.37-.31c.03-.11.05-.25.05-.39Z"/>
        <path class="cls-21" d="M89.47,280.26h3.45c.17,0,.38,0,.52-.02,0,.16-.02.38-.02.55v3.61c0,.25.02.57.03.68h-.63c0-.08,0-.22.01-.39h-3.42c-.29,0-.6.02-.79.03v-.64c.18.02.48.04.78.04h3.44s0-3.31,0-3.31h-3.35c-.26,0-.61.02-.77.02v-.62c.23.03.54.04.76.04Z"/>
      </g>
    </g>
    <g id="_マタイ" data-name="マタイ">
      <rect class="cls-7" x="44.92" y="271.42" width="26.8" height="21.38"/>
      <g>
        <path class="cls-21" d="M55.27,280.8c-.5.82-1.39,1.96-2.55,2.84.42.42.92.95,1.2,1.29l-.51.41c-.26-.36-.82-.97-1.26-1.43-.42-.42-1.23-1.12-1.6-1.38l.46-.37c.26.19.83.66,1.31,1.08,1.03-.77,1.83-1.8,2.18-2.43h-4.12c-.27,0-.57.03-.71.04v-.63c.2.03.47.06.71.06h4.17c.2,0,.36-.02.46-.06l.44.36c-.07.08-.13.15-.17.22Z"/>
        <path class="cls-21" d="M58.43,280.07c-.04.08-.09.17-.15.25h1.9c.19,0,.34-.03.46-.07l.46.28c-.06.1-.13.27-.17.38-.18.64-.56,1.46-1.09,2.18.29.22.57.43.8.62l-.41.48c-.21-.19-.48-.41-.76-.64-.62.69-1.48,1.34-2.67,1.78l-.5-.43c1.18-.36,2.08-1.01,2.71-1.69-.5-.36-1.04-.73-1.49-1.01l.38-.38c.46.27.99.6,1.48.94.46-.61.81-1.37.95-1.94h-2.37c-.45.63-1.07,1.32-1.85,1.86l-.47-.36c1.2-.75,1.92-1.8,2.25-2.44.07-.13.18-.37.22-.55l.64.2c-.12.18-.24.42-.31.55Z"/>
        <path class="cls-21" d="M64.55,281.18c.73-.46,1.43-1.07,1.91-1.65l.47.43c-.53.55-1.18,1.09-1.89,1.56v2.96c0,.27.02.61.04.75h-.69c.02-.13.04-.48.04-.75v-2.59c-.74.42-1.7.84-2.67,1.14l-.28-.55c1.21-.33,2.28-.82,3.06-1.31Z"/>
      </g>
    </g>
    <g id="_ヨハネ" data-name="ヨハネ">
      <rect class="cls-7" x="44.92" y="233.62" width="32.97" height="21.38"/>
      <g>
        <path class="cls-21" d="M53.49,241.79h3.27c.2,0,.38,0,.5-.01,0,.1,0,.25,0,.42v4.23c0,.15,0,.3,0,.42h-.6c0-.08,0-.21,0-.36h-3.45c-.28,0-.57.02-.71.03v-.6c.14.01.4.03.7.03h3.45s0-1.6,0-1.6h-3.08c-.3,0-.6,0-.77,0v-.57c.17.02.47.04.76.03h3.09s0-1.5,0-1.5h-3.17c-.22,0-.72.02-.88.02v-.59c.17.02.66.04.88.03Z"/>
        <path class="cls-21" d="M60.04,241.85l.62.13c-.05.15-.1.36-.13.51-.09.43-.34,1.47-.63,2.19-.26.64-.64,1.36-1.04,1.93l-.6-.25c.44-.58.84-1.32,1.08-1.91.31-.73.59-1.79.69-2.6ZM61.78,241.96l.57-.19c.27.51.72,1.48,1.02,2.22.28.69.65,1.76.84,2.39l-.62.2c-.18-.71-.51-1.67-.79-2.41-.28-.72-.71-1.69-1.02-2.22Z"/>
        <path class="cls-21" d="M68.17,241.67v.45h1.16c.16,0,.32,0,.44-.04l.36.35c-.13.13-.28.29-.39.42-.35.42-.94,1.01-1.58,1.46,0,.57,0,1.42,0,1.88,0,.25.02.55.04.77h-.64c.02-.2.04-.52.04-.77,0-.41,0-1.05,0-1.53-.65.38-1.42.69-2.37.97l-.34-.52c1.32-.32,2.2-.78,2.84-1.19.62-.4,1.18-.95,1.42-1.28h-2.91c-.25,0-.64.02-.86.03v-.59c.22.03.62.04.85.04h1.37v-.45c0-.2,0-.46-.04-.62h.64c-.03.15-.04.42-.04.62ZM68.78,244.65l.36-.41c.66.35,1.04.57,1.69,1.01l-.36.48c-.61-.45-1.03-.73-1.69-1.08Z"/>
      </g>
    </g>
    <g>
      <g>
        <path class="cls-27" d="M282.8,107.88v6.94s-.61,0-.61,0v-.39s-5.4,0-5.4,0v.39s-.59,0-.59,0v-6.94s6.6,0,6.6,0ZM282.19,113.86v-5.41s-5.4,0-5.4,0v5.41s5.4,0,5.4,0ZM281.3,113.43c-.41-.38-1.04-.81-1.74-1.23-.62.59-1.32,1.07-2.09,1.46-.08-.11-.27-.36-.39-.47.73-.34,1.39-.76,1.97-1.28-.56-.31-1.15-.59-1.7-.81l.34-.4c.56.23,1.18.51,1.77.83.68-.71,1.23-1.54,1.62-2.5l.56.16c-.42,1.01-.98,1.87-1.66,2.61.68.39,1.29.8,1.7,1.17l-.36.47ZM278.01,110.63c-.1-.39-.42-.98-.73-1.41l.44-.2c.33.43.65,1,.76,1.38l-.48.23ZM279.39,110.44c-.06-.4-.31-1.03-.58-1.5l.47-.16c.28.47.55,1.08.62,1.49l-.51.18Z"/>
        <path class="cls-27" d="M291.08,111.56v.44h-7.11s0-.44,0-.44h3.23s0-.48,0-.48h-2.69s0-.41,0-.41h2.69s0-.44,0-.44h-2.46s0-.4,0-.4h2.46s0-.48,0-.48h-3.22s0-.45,0-.45h3.22s0-.45,0-.45h-2.37s0-.4,0-.4h2.37s0-.56,0-.56h.59s0,.56,0,.56h2.3s0,.85,0,.85h.98s0,.45,0,.45h-.98s0,.88,0,.88h-2.3s0,.44,0,.44h2.74s0,.41,0,.41h-2.74s0,.48,0,.48h3.29ZM285,112.38h5.13s0,2.47,0,2.47h-.59v-.25h-3.96v.27h-.58s0-2.48,0-2.48ZM285.58,112.79v.49h3.96v-.49h-3.96ZM289.54,114.18v-.51h-3.96v.52h3.96ZM287.79,108.9h1.71s0-.45,0-.45h-1.71s0,.45,0,.45ZM287.79,109.83h1.71s0-.48,0-.48h-1.71s0,.48,0,.48Z"/>
        <path class="cls-27" d="M299.13,114.07v.54s-7.08,0-7.08,0v-.54s3.2,0,3.2,0v-1.01s-2.47,0-2.47,0v-.53s2.47,0,2.47,0v-.9c-.97.03-1.87.06-2.58.08l-.03-.55c.33,0,.71,0,1.12-.02.23-.35.49-.79.68-1.17h-1.48s0-.53,0-.53h5.28s0,.53,0,.53h-3.12c-.23.38-.49.8-.74,1.15.9-.02,1.91-.05,2.92-.08-.27-.22-.55-.43-.8-.6l.43-.3c.68.43,1.49,1.08,1.87,1.54l-.45.34c-.12-.14-.28-.31-.47-.49-.67.02-1.35.05-2.01.07v.92h2.57s0,.53,0,.53h-2.57s0,1.01,0,1.01h3.27ZM292.72,109.58h-.57s0-1.48,0-1.48h3.1s0-.6,0-.6h.6s0,.59,0,.59h3.17s0,1.48,0,1.48h-.59v-.92s-5.71,0-5.71,0v.92Z"/>
      </g>
      <rect class="cls-12" x="272.39" y="98.77" width="30.49" height="26.89"/>
    </g>
  </g>
</svg>