<?xml version="1.0" encoding="UTF-8"?>
<svg id="_レイヤー_2" data-name="レイヤー 2" xmlns="http://www.w3.org/2000/svg" xmlns:xlink="http://www.w3.org/1999/xlink" viewBox="0 0 517.58 428.25">
  <defs>
    <style>
      .cls-1 {
        stroke: #898989;
        stroke-width: .72px;
      }

      .cls-1, .cls-2, .cls-3, .cls-4, .cls-5, .cls-6, .cls-7, .cls-8, .cls-9 {
        fill: none;
      }

      .cls-10 {
        fill: url(#_10_lpi_10_2-2);
      }

      .cls-10, .cls-2, .cls-11, .cls-12, .cls-4, .cls-13, .cls-14, .cls-6, .cls-9 {
        stroke: #fff;
      }

      .cls-10, .cls-11, .cls-12, .cls-4, .cls-5, .cls-14, .cls-7, .cls-8 {
        stroke-linejoin: bevel;
      }

      .cls-10, .cls-11, .cls-12, .cls-4, .cls-13, .cls-14, .cls-7, .cls-9 {
        stroke-width: .25px;
      }

      .cls-15, .cls-13 {
        fill: #fff;
      }

      .cls-2, .cls-5, .cls-6, .cls-8 {
        stroke-width: .5px;
      }

      .cls-2, .cls-13, .cls-9 {
        stroke-miterlimit: 10;
      }

      .cls-11 {
        fill: url(#_10_lpi_10_2-4);
      }

      .cls-16 {
        fill: #e8390d;
      }

      .cls-17 {
        fill: #164b9f;
      }

      .cls-12 {
        fill: url(#_10_lpi_10_2);
      }

      .cls-5 {
        stroke: #2ea7e0;
      }

      .cls-14 {
        fill: url(#_10_lpi_10_2-3);
      }

      .cls-6, .cls-7 {
        stroke-linecap: round;
      }

      .cls-7 {
        stroke: #231815;
      }

      .cls-18 {
        fill: #9fa0a0;
      }

      .cls-8 {
        stroke: #f8b62d;
      }
    </style>
    <pattern id="_10_lpi_10_2" data-name="10 lpi 10 % 2" x="0" y="0" width="72" height="72" patternTransform="translate(-3167.97 -8087.88) rotate(-45) scale(.42)" patternUnits="userSpaceOnUse" viewBox="0 0 72 72">
      <g>
        <rect class="cls-3" width="72" height="72"/>
        <g>
          <line class="cls-1" x1="71.75" y1="68.4" x2="144.25" y2="68.4"/>
          <line class="cls-1" x1="71.75" y1="54" x2="144.25" y2="54"/>
          <line class="cls-1" x1="71.75" y1="39.6" x2="144.25" y2="39.6"/>
          <line class="cls-1" x1="71.75" y1="25.2" x2="144.25" y2="25.2"/>
          <line class="cls-1" x1="71.75" y1="10.8" x2="144.25" y2="10.8"/>
          <line class="cls-1" x1="71.75" y1="61.2" x2="144.25" y2="61.2"/>
          <line class="cls-1" x1="71.75" y1="46.8" x2="144.25" y2="46.8"/>
          <line class="cls-1" x1="71.75" y1="32.4" x2="144.25" y2="32.4"/>
          <line class="cls-1" x1="71.75" y1="18" x2="144.25" y2="18"/>
          <line class="cls-1" x1="71.75" y1="3.6" x2="144.25" y2="3.6"/>
        </g>
        <g>
          <line class="cls-1" x1="-.25" y1="68.4" x2="72.25" y2="68.4"/>
          <line class="cls-1" x1="-.25" y1="54" x2="72.25" y2="54"/>
          <line class="cls-1" x1="-.25" y1="39.6" x2="72.25" y2="39.6"/>
          <line class="cls-1" x1="-.25" y1="25.2" x2="72.25" y2="25.2"/>
          <line class="cls-1" x1="-.25" y1="10.8" x2="72.25" y2="10.8"/>
          <line class="cls-1" x1="-.25" y1="61.2" x2="72.25" y2="61.2"/>
          <line class="cls-1" x1="-.25" y1="46.8" x2="72.25" y2="46.8"/>
          <line class="cls-1" x1="-.25" y1="32.4" x2="72.25" y2="32.4"/>
          <line class="cls-1" x1="-.25" y1="18" x2="72.25" y2="18"/>
          <line class="cls-1" x1="-.25" y1="3.6" x2="72.25" y2="3.6"/>
        </g>
        <g>
          <line class="cls-1" x1="-72.25" y1="68.4" x2=".25" y2="68.4"/>
          <line class="cls-1" x1="-72.25" y1="54" x2=".25" y2="54"/>
          <line class="cls-1" x1="-72.25" y1="39.6" x2=".25" y2="39.6"/>
          <line class="cls-1" x1="-72.25" y1="25.2" x2=".25" y2="25.2"/>
          <line class="cls-1" x1="-72.25" y1="10.8" x2=".25" y2="10.8"/>
          <line class="cls-1" x1="-72.25" y1="61.2" x2=".25" y2="61.2"/>
          <line class="cls-1" x1="-72.25" y1="46.8" x2=".25" y2="46.8"/>
          <line class="cls-1" x1="-72.25" y1="32.4" x2=".25" y2="32.4"/>
          <line class="cls-1" x1="-72.25" y1="18" x2=".25" y2="18"/>
          <line class="cls-1" x1="-72.25" y1="3.6" x2=".25" y2="3.6"/>
        </g>
      </g>
    </pattern>
    <pattern id="_10_lpi_10_2-2" data-name="10 lpi 10 % 2" patternTransform="translate(-3167.97 -8125.35) rotate(-47.79) scale(.44) skewX(-5.55)" xlink:href="#_10_lpi_10_2"/>
    <pattern id="_10_lpi_10_2-3" data-name="10 lpi 10 % 2" patternTransform="translate(-3167.97 -8125.35) rotate(-47.79) scale(.44) skewX(-5.55)" xlink:href="#_10_lpi_10_2"/>
    <pattern id="_10_lpi_10_2-4" data-name="10 lpi 10 % 2" patternTransform="translate(-3142.03 -8127.38) rotate(-47.79) scale(.44) skewX(-5.55)" xlink:href="#_10_lpi_10_2"/>
  </defs>
  <g id="_レイヤー_1-2" data-name="レイヤー 1">
    <line class="cls-4" x1="23.12" y1="148.35" x2="23.12" y2="112.14"/>
    <line class="cls-4" x1="242.21" y1="214.84" x2="242.21" y2="180.25"/>
    <line class="cls-4" x1=".3" y1="142.47" x2="23.12" y2="142.47"/>
    <line class="cls-4" x1=".3" y1="138.31" x2="23.12" y2="138.31"/>
    <line class="cls-4" x1=".3" y1="134.15" x2="23.12" y2="134.15"/>
    <line class="cls-4" x1=".3" y1="129.99" x2="23.12" y2="129.99"/>
    <line class="cls-4" x1=".3" y1="125.83" x2="23.12" y2="125.83"/>
    <rect class="cls-4" x=".25" y=".25" width="35.07" height="49.5"/>
    <rect class="cls-4" x="23.12" y="112.14" width="37.27" height="36.21"/>
    <g id="S3C_" data-name="S3C">
      <rect class="cls-4" x="165.35" y="112.14" width="52.48" height="36.21"/>
      <g>
        <path class="cls-15" d="M182.03,126.82c-.12-.29-.29-.56-.58-.82-.41-.33-.84-.47-1.4-.47-1.2,0-1.83.72-1.83,1.55,0,.39.14,1.07,1.4,1.57l1.3.52c2.39.97,3.05,2.33,3.05,3.81,0,2.47-1.75,4.16-4.17,4.16-1.5,0-2.39-.56-3.05-1.3-.7-.78-1.01-1.63-1.09-2.52l1.96-.43c0,.64.23,1.24.54,1.65.37.47.91.78,1.69.78,1.2,0,2.14-.88,2.14-2.18,0-1.32-1.01-1.86-1.87-2.21l-1.24-.52c-1.07-.45-2.64-1.34-2.64-3.28,0-1.75,1.36-3.42,3.79-3.42,1.4,0,2.19.52,2.6.87.35.31.72.76.99,1.3l-1.59.93Z"/>
        <path class="cls-15" d="M186.23,127.24c.06-1.05.5-1.94,1.11-2.53.89-.85,1.98-.99,2.84-.99.99,0,1.96.19,2.8,1.07.68.7.93,1.53.93,2.47,0,.62-.12,1.17-.45,1.71-.35.56-.8.89-1.17,1.09.66.25,1.07.7,1.28,1.03.37.54.54,1.26.54,2,0,1.28-.48,2.27-1.11,2.89-.93.93-2.16,1.13-3.17,1.13-.99,0-2.06-.19-2.89-1.09-.58-.62-1.01-1.65-1.11-2.64h1.9c.1.58.37,1.09.7,1.4.27.25.76.58,1.57.58.6,0,1.17-.23,1.52-.54.37-.35.68-.95.68-1.83,0-.43-.08-1.05-.58-1.53-.56-.54-1.26-.58-1.67-.58h-.39v-1.67s.27,0,.27,0c.84,0,1.36-.27,1.65-.56.31-.31.5-.8.5-1.38,0-.68-.29-1.09-.51-1.3-.45-.43-.99-.48-1.38-.48-.47,0-1.01.08-1.44.52-.45.47-.54,1.17-.54,1.24h-1.9Z"/>
        <path class="cls-15" d="M207.09,126.96c-1.44-1.3-2.78-1.44-3.52-1.44-2.82,0-4.72,2.08-4.72,4.94,0,2.74,1.98,4.86,4.74,4.85,1.55,0,2.76-.8,3.5-1.5v2.35c-1.3.78-2.66.97-3.55.97-2.35,0-3.83-1.07-4.58-1.78-1.52-1.42-2.08-3.07-2.08-4.89,0-2.39.99-4.04,2.08-5.07,1.34-1.26,2.89-1.69,4.68-1.69,1.19,0,2.33.21,3.46.93v2.33Z"/>
      </g>
    </g>
    <g id="S3B_" data-name="S3B">
      <rect class="cls-4" x="112.87" y="112.14" width="52.48" height="36.21"/>
      <g>
        <path class="cls-15" d="M130.46,126.82c-.12-.29-.29-.56-.58-.82-.41-.33-.84-.47-1.4-.47-1.2,0-1.83.72-1.83,1.55,0,.39.14,1.07,1.4,1.57l1.3.52c2.39.97,3.05,2.33,3.05,3.81,0,2.47-1.75,4.16-4.17,4.16-1.5,0-2.39-.56-3.05-1.3-.7-.78-1.01-1.63-1.09-2.52l1.96-.43c0,.64.23,1.24.54,1.65.37.47.91.78,1.69.78,1.2,0,2.14-.88,2.14-2.18,0-1.32-1.01-1.86-1.87-2.21l-1.24-.52c-1.07-.45-2.64-1.34-2.64-3.28,0-1.75,1.36-3.42,3.79-3.42,1.4,0,2.19.52,2.6.87.35.31.72.76.99,1.3l-1.59.93Z"/>
        <path class="cls-15" d="M134.66,127.24c.06-1.05.5-1.94,1.11-2.53.89-.85,1.98-.99,2.84-.99.99,0,1.96.19,2.8,1.07.68.7.93,1.53.93,2.47,0,.62-.12,1.17-.45,1.71-.35.56-.8.89-1.17,1.09.66.25,1.07.7,1.28,1.03.37.54.54,1.26.54,2,0,1.28-.48,2.27-1.11,2.89-.93.93-2.16,1.13-3.17,1.13-.99,0-2.06-.19-2.89-1.09-.58-.62-1.01-1.65-1.11-2.64h1.9c.1.58.37,1.09.7,1.4.27.25.76.58,1.57.58.6,0,1.17-.23,1.52-.54.37-.35.68-.95.68-1.83,0-.43-.08-1.05-.58-1.53-.56-.54-1.26-.58-1.67-.58h-.39s0-1.67,0-1.67h.27c.84,0,1.36-.27,1.65-.56.31-.31.5-.8.5-1.38,0-.68-.29-1.09-.51-1.3-.45-.43-.99-.48-1.38-.48-.47,0-1.01.08-1.44.53-.45.47-.54,1.17-.54,1.24h-1.9Z"/>
        <path class="cls-15" d="M147.89,123.93c1.67,0,2.72.21,3.57,1.01.7.66,1.03,1.5,1.03,2.56,0,.5-.08,1.03-.39,1.53-.29.51-.68.76-.97.89.23.06,1.03.27,1.67.93.7.74.86,1.63.86,2.43,0,.93-.23,1.67-.85,2.33-1.03,1.09-2.64,1.26-3.63,1.26h-3.24s0-12.95,0-12.95h1.96ZM147.91,129.51h.6c.49,0,1.15-.06,1.61-.51.45-.43.5-1.03.5-1.48,0-.39-.06-.85-.47-1.24-.45-.43-1.01-.48-1.57-.48h-.68s0,3.71,0,3.71ZM147.91,135.03h1.2c.56,0,1.46-.1,1.96-.51.39-.31.64-.86.64-1.44,0-.52-.19-1.03-.52-1.36-.54-.52-1.34-.58-2.04-.58h-1.24s0,3.89,0,3.89Z"/>
      </g>
    </g>
    <g id="S3A_" data-name="S3A">
      <rect class="cls-4" x="60.38" y="112.14" width="52.48" height="36.21"/>
      <g>
        <path class="cls-15" d="M76.72,126.82c-.12-.29-.29-.56-.58-.82-.41-.33-.84-.47-1.4-.47-1.2,0-1.83.72-1.83,1.55,0,.39.14,1.07,1.4,1.57l1.3.52c2.39.97,3.05,2.33,3.05,3.81,0,2.47-1.75,4.16-4.17,4.16-1.5,0-2.39-.56-3.05-1.3-.7-.78-1.01-1.63-1.09-2.52l1.96-.43c0,.64.23,1.24.54,1.65.37.47.91.78,1.69.78,1.2,0,2.14-.88,2.14-2.18,0-1.32-1.01-1.86-1.87-2.21l-1.24-.52c-1.07-.45-2.64-1.34-2.64-3.28,0-1.75,1.36-3.42,3.79-3.42,1.4,0,2.19.52,2.6.87.35.31.72.76.99,1.3l-1.59.93Z"/>
        <path class="cls-15" d="M80.91,127.24c.06-1.05.5-1.94,1.11-2.53.89-.85,1.98-.99,2.84-.99.99,0,1.96.19,2.8,1.07.68.7.93,1.53.93,2.47,0,.62-.12,1.17-.45,1.71-.35.56-.8.89-1.17,1.09.66.25,1.07.7,1.28,1.03.37.54.54,1.26.54,2,0,1.28-.48,2.27-1.11,2.89-.93.93-2.16,1.13-3.17,1.13-.99,0-2.06-.19-2.89-1.09-.58-.62-1.01-1.65-1.11-2.64h1.9c.1.58.37,1.09.7,1.4.27.25.76.58,1.57.58.6,0,1.17-.23,1.52-.54.37-.35.68-.95.68-1.83,0-.43-.08-1.05-.58-1.53-.56-.54-1.26-.58-1.67-.58h-.39s0-1.67,0-1.67h.27c.84,0,1.36-.27,1.65-.56.31-.31.5-.8.5-1.38,0-.68-.29-1.09-.51-1.3-.45-.43-.99-.48-1.38-.48-.47,0-1.01.08-1.44.53-.45.47-.54,1.17-.54,1.24h-1.9Z"/>
        <path class="cls-15" d="M99.8,133.76h-5.54s-1.42,3.13-1.42,3.13h-2.14s6.44-13.72,6.44-13.72l6.15,13.71h-2.14s-1.36-3.13-1.36-3.13ZM99,131.9l-1.93-4.39-2,4.39h3.92Z"/>
      </g>
    </g>
    <g>
      <path class="cls-18" d="M6.46,153.76h-3.3s0,2.1,0,2.1h3.2s0,1.19,0,1.19h-3.2s0,2.6,0,2.6h3.3s0,1.19,0,1.19H1.9s0-8.26,0-8.26h4.56s0,1.19,0,1.19Z"/>
      <path class="cls-18" d="M10.21,154.98c-.21.62-.46,1.39-.7,2.01.51.62.63,1.17.63,1.63,0,.4-.08.72-.28.87-.1.08-.23.12-.37.14-.14.02-.31.02-.47,0,0-.15-.06-.35-.15-.5.16,0,.3.02.4,0,.1,0,.18-.02.24-.05.11-.09.15-.31.15-.53,0-.4-.13-.92-.63-1.51.2-.56.4-1.24.56-1.75h-.92s0,6.13,0,6.13h-.5v-6.64s1.62,0,1.62,0l.08-.02.37.22ZM12.39,157.2c-.75.19-1.54.4-2.15.54l-.15-.48c.15-.03.31-.06.5-.1v-2.62s.51,0,.51,0v.92s1.18,0,1.18,0v.47h-1.18s0,1.12,0,1.12c.4-.09.82-.19,1.25-.29l.05.44ZM12.66,157.58c-.08.22-.18.45-.26.65h2s0,3.14,0,3.14h-.55v-.25s-2.61,0-2.61,0v.28s-.52,0-.52,0v-3.17s1.13,0,1.13,0c.09-.25.19-.55.24-.77l.56.12ZM13.85,158.71h-2.61s0,.73,0,.73h2.61s0-.73,0-.73ZM13.85,160.64v-.76s-2.61,0-2.61,0v.76s2.61,0,2.61,0ZM14.1,157.14c.18,0,.23-.09.24-.72.11.08.32.17.47.21-.06.79-.21.98-.66.98h-.85c-.57,0-.7-.14-.7-.7v-2.37s.51,0,.51,0v1.12c.44-.19.88-.44,1.14-.66l.4.37c-.43.28-1.01.54-1.54.73v.79c0,.2.03.23.25.23h.74Z"/>
      <path class="cls-18" d="M16.55,160.11v1.3s-.53,0-.53,0v-1.2s-.53.09-.53.09l-.1-.55.63-.1v-4.63s.3.11.3.11c.68-.18,1.39-.44,1.8-.67l.49.4c-.56.27-1.34.51-2.06.69v.88s1.76,0,1.76,0v.52h-1.75s0,.93,0,.93h1.82s0,.53,0,.53h-1.82s0,1.16,0,1.16c.63-.1,1.33-.22,2.01-.34l.03.53-2.04.37ZM22.07,157.93c-.27.9-.71,1.61-1.27,2.16.47.37,1.02.65,1.67.82-.14.11-.3.34-.37.49-.66-.21-1.24-.52-1.73-.94-.58.44-1.24.75-1.96.96-.06-.15-.2-.37-.31-.5.68-.18,1.33-.46,1.87-.86-.41-.46-.73-1.01-.97-1.64l.37-.1h-.69s0-.52,0-.52h2.92s.11-.02.11-.02l.36.14ZM19.64,155.86c0,.62-.15,1.37-.91,1.85-.07-.11-.27-.31-.38-.39.68-.42.77-.97.77-1.47v-1.08s2.25,0,2.25,0v1.87c0,.15,0,.22.05.25.03.02.07.03.12.03h.22c.06,0,.13,0,.16-.02.04-.02.07-.08.08-.17.02-.11.03-.34.03-.65.1.08.29.18.44.21-.01.3-.04.64-.08.76-.05.13-.12.21-.23.25-.08.05-.24.08-.36.08h-.39c-.14,0-.32-.04-.42-.14-.11-.09-.15-.22-.15-.64v-1.34s-1.2,0-1.2,0v.59ZM19.5,158.33c.21.53.5,1,.89,1.4.4-.39.73-.85.96-1.4h-1.85Z"/>
    </g>
    <g id="S3E_" data-name="S3E">
      <rect class="cls-4" x="112.87" y=".25" width="52.48" height="36.21"/>
      <g>
        <path class="cls-15" d="M130.71,14.92c-.12-.29-.29-.56-.58-.82-.41-.33-.84-.47-1.4-.47-1.2,0-1.83.72-1.83,1.55,0,.39.14,1.07,1.4,1.57l1.3.52c2.39.97,3.05,2.33,3.05,3.81,0,2.47-1.75,4.16-4.17,4.16-1.5,0-2.39-.56-3.05-1.3-.7-.78-1.01-1.63-1.09-2.52l1.96-.43c0,.64.23,1.24.54,1.65.37.47.91.78,1.69.78,1.2,0,2.14-.88,2.14-2.18,0-1.32-1.01-1.86-1.87-2.21l-1.24-.52c-1.07-.45-2.64-1.34-2.64-3.28,0-1.75,1.36-3.42,3.79-3.42,1.4,0,2.2.52,2.6.87.35.31.72.76.99,1.3l-1.59.93Z"/>
        <path class="cls-15" d="M134.91,15.35c.06-1.05.5-1.94,1.11-2.53.89-.85,1.98-.99,2.84-.99.99,0,1.96.19,2.8,1.07.68.7.93,1.53.93,2.47,0,.62-.12,1.17-.45,1.71-.35.56-.8.89-1.17,1.09.66.25,1.07.7,1.28,1.03.37.54.54,1.26.54,2,0,1.28-.48,2.27-1.11,2.89-.93.93-2.16,1.13-3.17,1.13-.99,0-2.06-.19-2.89-1.09-.58-.62-1.01-1.65-1.11-2.64h1.9c.1.58.37,1.09.7,1.4.27.25.76.58,1.57.58.6,0,1.17-.23,1.52-.54.37-.35.68-.95.68-1.83,0-.43-.08-1.05-.58-1.53-.56-.54-1.26-.58-1.67-.58h-.39s0-1.67,0-1.67h.27c.84,0,1.36-.27,1.65-.56.31-.31.5-.8.5-1.38,0-.68-.29-1.09-.51-1.3-.45-.43-.99-.48-1.38-.48-.47,0-1.01.08-1.44.52-.45.47-.54,1.17-.54,1.24h-1.9Z"/>
        <path class="cls-15" d="M153.32,13.9h-5.17s0,3.29,0,3.29h5.01s0,1.86,0,1.86h-5.01s0,4.08,0,4.08h5.17s0,1.86,0,1.86h-7.15s0-12.95,0-12.95h7.15s0,1.86,0,1.86Z"/>
      </g>
    </g>
    <g id="S3F_" data-name="S3F">
      <rect class="cls-4" x="60.38" y=".25" width="52.48" height="36.21"/>
      <g>
        <path class="cls-15" d="M78.72,14.92c-.12-.29-.29-.56-.58-.82-.41-.33-.84-.47-1.4-.47-1.2,0-1.83.72-1.83,1.55,0,.39.14,1.07,1.4,1.57l1.3.52c2.39.97,3.05,2.33,3.05,3.81,0,2.47-1.75,4.16-4.17,4.16-1.5,0-2.39-.56-3.05-1.3-.7-.78-1.01-1.63-1.09-2.52l1.96-.43c0,.64.23,1.24.54,1.65.37.47.91.78,1.69.78,1.2,0,2.14-.88,2.14-2.18,0-1.32-1.01-1.86-1.87-2.21l-1.24-.52c-1.07-.45-2.64-1.34-2.64-3.28,0-1.75,1.36-3.42,3.79-3.42,1.4,0,2.2.52,2.6.87.35.31.72.76.99,1.3l-1.59.93Z"/>
        <path class="cls-15" d="M82.91,15.35c.06-1.05.5-1.94,1.11-2.53.89-.85,1.98-.99,2.84-.99.99,0,1.96.19,2.8,1.07.68.7.93,1.53.93,2.47,0,.62-.12,1.17-.45,1.71-.35.56-.8.89-1.17,1.09.66.25,1.07.7,1.28,1.03.37.54.54,1.26.54,2,0,1.28-.48,2.27-1.11,2.89-.93.93-2.16,1.13-3.17,1.13-.99,0-2.06-.19-2.89-1.09-.58-.62-1.01-1.65-1.11-2.64h1.9c.1.58.37,1.09.7,1.4.27.25.76.58,1.57.58.6,0,1.17-.23,1.52-.54.37-.35.68-.95.68-1.83,0-.43-.08-1.05-.58-1.53-.56-.54-1.26-.58-1.67-.58h-.39s0-1.67,0-1.67h.27c.84,0,1.36-.27,1.65-.56.31-.31.5-.8.5-1.38,0-.68-.29-1.09-.51-1.3-.45-.43-.99-.48-1.38-.48-.47,0-1.01.08-1.44.53-.45.47-.54,1.17-.54,1.24h-1.9Z"/>
        <path class="cls-15" d="M100.67,13.9h-4.51s0,3.29,0,3.29h4.35s0,1.86,0,1.86h-4.35s0,5.95,0,5.95h-1.98s0-12.96,0-12.96h6.49s0,1.86,0,1.86Z"/>
      </g>
    </g>
    <g id="S3D_" data-name="S3D">
      <rect class="cls-4" x="165.35" y=".25" width="52.48" height="36.21"/>
      <g>
        <path class="cls-15" d="M181.8,14.92c-.12-.29-.29-.56-.58-.82-.41-.33-.84-.47-1.4-.47-1.2,0-1.83.72-1.83,1.55,0,.39.14,1.07,1.4,1.57l1.3.52c2.39.97,3.05,2.33,3.05,3.81,0,2.47-1.75,4.16-4.17,4.16-1.5,0-2.39-.56-3.05-1.3-.7-.78-1.01-1.63-1.09-2.52l1.96-.43c0,.64.23,1.24.54,1.65.37.47.91.78,1.69.78,1.2,0,2.14-.88,2.14-2.18,0-1.32-1.01-1.86-1.87-2.21l-1.24-.52c-1.07-.45-2.64-1.34-2.64-3.28,0-1.75,1.36-3.42,3.79-3.42,1.4,0,2.2.52,2.6.87.35.31.72.76.99,1.3l-1.59.93Z"/>
        <path class="cls-15" d="M185.99,15.35c.06-1.05.5-1.94,1.11-2.53.89-.85,1.98-.99,2.84-.99.99,0,1.96.19,2.8,1.07.68.7.93,1.53.93,2.47,0,.62-.12,1.17-.45,1.71-.35.56-.8.89-1.17,1.09.66.25,1.07.7,1.28,1.03.37.54.54,1.26.54,2,0,1.28-.48,2.27-1.11,2.89-.93.93-2.16,1.13-3.17,1.13-.99,0-2.06-.19-2.89-1.09-.58-.62-1.01-1.65-1.11-2.64h1.9c.1.58.37,1.09.7,1.4.27.25.76.58,1.57.58.6,0,1.17-.23,1.52-.54.37-.35.68-.95.68-1.83,0-.43-.08-1.05-.58-1.53-.56-.54-1.26-.58-1.67-.58h-.39v-1.67s.27,0,.27,0c.84,0,1.36-.27,1.65-.56.31-.31.5-.8.5-1.38,0-.68-.29-1.09-.51-1.3-.45-.43-.99-.48-1.38-.48-.47,0-1.01.08-1.44.52-.45.47-.54,1.17-.54,1.24h-1.9Z"/>
        <path class="cls-15" d="M199.98,12.04c1.81,0,3.38.19,4.82,1.26,1.57,1.18,2.49,3.07,2.49,5.22s-.89,4.02-2.6,5.23c-1.51,1.07-2.93,1.24-4.74,1.25h-2.68s0-12.96,0-12.96h2.72ZM199.25,23.13h.85c.97,0,2.31-.08,3.44-.92.89-.68,1.77-1.92,1.77-3.69,0-1.71-.82-3.05-1.75-3.73-1.13-.82-2.51-.89-3.46-.89h-.85s0,9.23,0,9.23Z"/>
      </g>
    </g>
    <polyline class="cls-4" points=".38 121.67 11.81 121.67 11.81 142.42"/>
    <line class="cls-4" x1="242.12" y1="209.66" x2="264.99" y2="209.66"/>
    <line class="cls-4" x1="242.12" y1="205.5" x2="264.99" y2="205.5"/>
    <line class="cls-4" x1="242.12" y1="201.34" x2="264.99" y2="201.34"/>
    <line class="cls-4" x1="242.12" y1="197.18" x2="264.99" y2="197.18"/>
    <line class="cls-4" x1="242.12" y1="193.02" x2="264.99" y2="193.02"/>
    <polyline class="cls-4" points="242.21 188.86 253.65 188.86 253.65 209.61"/>
    <g>
      <path class="cls-15" d="M133.52,70.92v.65h-8.62v-.65h3.88v-.95h.75v.95h3.99ZM133.14,78.22c0,.4-.09.62-.4.75-.33.11-.85.11-1.68.11-.04-.2-.14-.5-.24-.69.64.02,1.2.02,1.38,0,.17,0,.2-.05.2-.19v-2.77h-6.35v3.67h-.71v-4.3h7.8v3.42ZM131.89,72.13v2.04h-5.35v-2.04h5.35ZM131.15,72.66h-3.9v.97h3.9v-.97ZM127.98,78.18v.5h-.66v-2.61h3.78v2.11h-3.12ZM127.98,76.61v1.02h2.46v-1.02h-2.46Z"/>
      <path class="cls-15" d="M137.8,75.96c-.17-.34-.56-1-.88-1.52v4.65h-.7v-4.65c-.34,1.09-.79,2.14-1.26,2.79-.08-.2-.26-.49-.39-.66.63-.84,1.27-2.4,1.58-3.77h-1.39v-.69h1.46v-2.14h.7v2.14h1.21v.69h-1.21v.76c.3.37,1.11,1.54,1.3,1.83l-.42.57ZM142.6,74.34c-.28.9-.68,1.73-1.23,2.45.69.75,1.53,1.34,2.49,1.69-.17.14-.41.44-.51.64-.94-.39-1.76-1-2.45-1.76-.69.74-1.58,1.35-2.68,1.77-.09-.16-.27-.44-.39-.58,1.09-.41,1.96-1.01,2.63-1.75-.52-.7-.94-1.5-1.25-2.38l.64-.18c.26.72.61,1.39,1.06,1.99.44-.62.75-1.31.95-2.05l.74.16ZM140.21,72.7c-.41.82-1.05,1.67-1.71,2.26-.11-.14-.35-.35-.51-.46.63-.53,1.23-1.36,1.54-2.07l.68.27ZM143.67,72.13h-5.45v-.69h2.34v-1.47h.73v1.47h2.38v.69ZM142.18,72.4c.64.64,1.35,1.52,1.67,2.12l-.63.36c-.29-.59-.97-1.51-1.62-2.16l.58-.32Z"/>
      <path class="cls-15" d="M147.77,75.96c-.17-.34-.56-1-.88-1.52v4.65h-.7v-4.65c-.34,1.09-.79,2.14-1.26,2.79-.08-.2-.26-.49-.38-.66.62-.84,1.26-2.4,1.57-3.77h-1.36v-.69h1.43v-2.14h.7v2.14h1.22v.69h-1.22v.76c.3.37,1.11,1.54,1.3,1.83l-.42.57ZM151.65,75.93c.59.82,1.53,1.67,2.28,2.12-.16.14-.4.4-.53.57-.69-.51-1.56-1.41-2.16-2.29v2.77h-.72v-2.65c-.65.93-1.59,1.78-2.46,2.27-.12-.18-.34-.44-.51-.58.93-.44,1.96-1.31,2.58-2.21h-1.66v-3.38h2.05v-.82h-2.37v-.63h2.37v-1.12h.72v1.12h2.39v.63h-2.39v.82h2.12v3.38h-1.71ZM149.14,73.96h1.38v-.85h-1.38v.85ZM149.14,75.36h1.38v-.86h-1.38v.86ZM151.24,73.11v.85h1.42v-.85h-1.42ZM152.66,74.5h-1.42v.86h1.42v-.86Z"/>
    </g>
    <rect class="cls-12" x="242.12" y=".25" width="41.04" height="56.2"/>
    <rect class="cls-10" x="242.12" y="106.08" width="41.04" height="30.98"/>
    <rect class="cls-14" x="242.12" y="137.05" width="41.04" height="30.98"/>
    <rect class="cls-12" x="264.99" y="180.25" width="18.17" height="34.59"/>
    <polyline class="cls-5" points="242.12 224.16 242.21 214.84 283.16 214.84 283.16 .25 54.75 .25 .72 .25 .25 .25 .25 148.35 54.75 148.35 217.83 148.35 217.83 224.16"/>
    <g>
      <path class="cls-18" d="M284.42,268.32c-.92-.83-1.77-.92-2.24-.92-1.8,0-3.01,1.33-3.01,3.15,0,1.75,1.26,3.1,3.02,3.1.99,0,1.76-.51,2.23-.96v1.5c-.83.5-1.7.62-2.27.62-1.5,0-2.44-.68-2.92-1.14-.97-.9-1.33-1.96-1.33-3.12,0-1.52.63-2.58,1.32-3.23.85-.81,1.84-1.08,2.98-1.08.76,0,1.49.14,2.21.59v1.49Z"/>
      <path class="cls-18" d="M288.1,268.79c-.21.62-.47,1.39-.7,2.01.51.62.63,1.17.63,1.63,0,.4-.08.72-.28.87-.1.08-.23.11-.37.14-.14.01-.31.01-.47,0,0-.15-.06-.35-.14-.5.16,0,.3.01.4,0,.1,0,.18-.02.24-.05.11-.09.15-.31.15-.54,0-.4-.13-.92-.63-1.51.2-.56.4-1.24.56-1.76h-.92s0,6.13,0,6.13h-.5v-6.64s1.62,0,1.62,0l.08-.02.37.22ZM290.28,271.01c-.75.19-1.54.4-2.15.54l-.15-.48c.15-.03.31-.06.5-.1v-2.62s.51,0,.51,0v.92h1.18s0,.46,0,.46h-1.18s0,1.12,0,1.12c.4-.09.82-.19,1.25-.29l.04.44ZM290.55,271.39c-.08.22-.18.45-.26.65h2s0,3.14,0,3.14h-.55v-.25h-2.61v.28h-.52v-3.17s1.14,0,1.14,0c.09-.25.19-.55.24-.77l.56.12ZM291.74,272.51h-2.61v.73h2.61v-.73ZM291.74,274.44v-.76s-2.61,0-2.61,0v.76s2.61,0,2.61,0ZM292,270.95c.18,0,.23-.09.24-.72.11.08.32.17.47.21-.06.79-.21.98-.66.98h-.85c-.57,0-.7-.14-.7-.7v-2.37s.51,0,.51,0v1.12c.43-.19.88-.44,1.14-.66l.4.37c-.44.28-1.01.54-1.54.73v.79c0,.2.03.23.25.23h.74Z"/>
      <path class="cls-18" d="M294.44,273.92v1.3s-.53,0-.53,0v-1.2s-.53.09-.53.09l-.1-.55.63-.1v-4.63s.3.11.3.11c.68-.18,1.39-.44,1.8-.67l.49.4c-.56.27-1.34.51-2.06.69v.88h1.75s0,.52,0,.52h-1.75v.93h1.82s0,.53,0,.53h-1.82s0,1.16,0,1.16c.62-.1,1.33-.22,2.01-.34l.03.53-2.04.37ZM299.96,271.74c-.27.9-.71,1.61-1.27,2.16.47.37,1.02.65,1.67.82-.14.11-.3.34-.37.49-.66-.21-1.24-.52-1.72-.94-.58.43-1.24.75-1.96.96-.06-.14-.2-.37-.31-.5.68-.18,1.33-.46,1.87-.86-.41-.46-.73-1.01-.97-1.64l.37-.1h-.69v-.52h2.92s.11-.02.11-.02l.36.14ZM297.53,269.67c0,.62-.15,1.37-.91,1.85-.07-.11-.27-.31-.38-.39.68-.42.77-.97.77-1.47v-1.08h2.25s0,1.87,0,1.87c0,.15,0,.22.05.25.03.02.07.03.12.03h.22c.06,0,.13,0,.16-.02.04-.02.07-.08.08-.17.01-.11.03-.34.03-.65.1.08.29.17.43.21-.01.3-.04.64-.08.76-.05.13-.12.21-.23.25-.08.05-.24.08-.36.08h-.39c-.14,0-.32-.04-.42-.14-.11-.09-.15-.22-.15-.64v-1.33h-1.2v.59ZM297.39,272.14c.21.53.5,1,.89,1.4.4-.39.73-.85.96-1.4h-1.85Z"/>
    </g>
    <g>
      <path class="cls-18" d="M496.3,302.98h-2.88s0,2.1,0,2.1h2.78s0,1.19,0,1.19h-2.78s0,3.79,0,3.79h-1.26v-8.26s4.13,0,4.13,0v1.19Z"/>
      <path class="cls-18" d="M499.85,304.19c-.21.62-.47,1.39-.7,2.01.51.62.63,1.17.63,1.63,0,.4-.08.72-.28.87-.1.08-.23.11-.37.14-.14.01-.31.01-.47,0,0-.15-.06-.35-.14-.5.16,0,.3.01.4,0,.1,0,.18-.02.24-.05.11-.09.14-.31.14-.53,0-.4-.13-.92-.63-1.51.2-.56.4-1.24.56-1.75h-.92v6.13s-.5,0-.5,0v-6.64s1.62,0,1.62,0l.08-.02.38.22ZM502.03,306.42c-.75.19-1.54.4-2.15.54l-.15-.48c.15-.03.31-.06.5-.1v-2.62s.51,0,.51,0v.92h1.18v.47h-1.18v1.12c.4-.09.82-.19,1.25-.29l.05.44ZM502.3,306.79c-.08.22-.18.45-.26.65h2s0,3.14,0,3.14h-.55v-.25h-2.61v.28h-.52v-3.17s1.14,0,1.14,0c.09-.25.19-.55.24-.77l.56.12ZM503.49,307.92h-2.61s0,.73,0,.73h2.61s0-.73,0-.73ZM503.49,309.85v-.76h-2.61v.76h2.61ZM503.75,306.36c.18,0,.23-.09.24-.72.11.08.32.17.47.21-.06.79-.21.98-.66.99h-.85c-.57,0-.7-.14-.7-.7v-2.36s.51,0,.51,0v1.12c.44-.19.88-.43,1.15-.66l.4.37c-.44.28-1.01.54-1.54.73v.79c0,.2.03.23.25.23h.74Z"/>
      <path class="cls-18" d="M506.19,309.33v1.3s-.53,0-.53,0v-1.2s-.53.09-.53.09l-.1-.55.63-.1v-4.63s.3.11.3.11c.68-.18,1.39-.44,1.8-.67l.49.4c-.56.28-1.34.51-2.06.69v.88h1.75v.52s-1.75,0-1.75,0v.93h1.82v.53h-1.82v1.16c.63-.1,1.33-.22,2.01-.34l.03.53-2.04.37ZM511.71,307.15c-.27.9-.71,1.61-1.27,2.16.47.37,1.02.65,1.67.82-.14.11-.3.34-.37.49-.66-.21-1.24-.52-1.72-.94-.58.43-1.24.75-1.96.96-.06-.14-.2-.37-.31-.5.68-.18,1.33-.46,1.87-.86-.41-.46-.73-1.01-.97-1.64l.37-.1h-.69v-.52h2.92s.11-.02.11-.02l.36.14ZM509.28,305.07c0,.62-.15,1.37-.91,1.85-.07-.11-.27-.31-.38-.39.68-.42.77-.97.77-1.47v-1.08s2.25,0,2.25,0v1.87c0,.15,0,.22.05.25.03.02.07.03.12.03h.22c.06,0,.13,0,.16-.02.04-.02.07-.08.08-.17.01-.11.03-.34.03-.65.1.08.29.18.43.21-.02.3-.04.64-.08.76-.05.13-.12.21-.23.25-.08.05-.24.08-.36.08h-.39c-.14,0-.32-.04-.42-.14-.11-.09-.15-.22-.15-.64v-1.33h-1.2v.59ZM509.14,307.55c.21.53.5,1,.89,1.4.4-.39.73-.85.96-1.4h-1.85Z"/>
    </g>
    <g id="J1L">
      <path class="cls-15" d="M239.98,398.79v8.39c0,1.03-.03,2.06-.48,2.95-.41.82-1.28,1.87-3.05,1.87-1.15,0-1.9-.41-2.29-.66l.97-1.67c.25.21.66.46,1.36.46.33,0,.97-.06,1.3-.88.12-.29.21-.76.21-2.08v-8.39s1.98,0,1.98,0Z"/>
      <path class="cls-15" d="M246.39,400.61h-2.25s1.09-1.83,1.09-1.83h3.15s0,12.95,0,12.95h-1.98s0-11.13,0-11.13Z"/>
      <path class="cls-15" d="M256.1,398.78v11.09s3.81,0,3.81,0v1.87s-5.79,0-5.79,0v-12.96s1.97,0,1.97,0Z"/>
      <path class="cls-15" d="M227.75,421.12l.55-.39c.28.49.62.69,1.07.69.66,0,.99-.38.99-1.31v-4.29s.77,0,.77,0v4.36c0,1.06-.48,1.92-1.69,1.92-.78,0-1.34-.34-1.7-.98Z"/>
      <path class="cls-15" d="M234.94,421.79h-.72v-4.19c0-.24,0-.43,0-.58,0-.15.01-.3.03-.45-.09.09-.17.17-.25.23s-.17.14-.27.24l-.64.52-.39-.5,1.62-1.26h.61v6Z"/>
      <path class="cls-15" d="M243.42,418.18c-.23.83-.6,1.71-1.23,2.39-.88.97-1.93,1.46-3.01,1.76l-.52-.6c1.19-.25,2.24-.78,2.96-1.54.51-.54.85-1.25,1-1.86h-4.46c-.2,0-.52.01-.82.03v-.71c.31.03.6.05.82.05h4.43c.19,0,.37-.02.46-.07l.48.3c-.04.08-.09.18-.11.24ZM238.85,415.76h3.3c.27,0,.56-.01.77-.04v.7c-.2-.02-.49-.03-.77-.03h-3.3c-.26,0-.53,0-.76.03v-.7c.22.03.49.04.76.04Z"/>
      <path class="cls-15" d="M248.25,415.87v.78s1.88,0,1.88,0c.31,0,.47-.03.58-.07l.45.29c-.04.13-.09.34-.13.5-.11.67-.35,1.72-.82,2.53-.63,1.1-1.79,1.96-3.33,2.38l-.55-.63c.29-.04.61-.13.87-.24.84-.27,1.77-.9,2.28-1.69.45-.72.72-1.73.8-2.46h-4.7s0,1.51,0,1.51c0,.15,0,.37.03.5h-.73c.02-.15.02-.38.02-.54v-1.48c0-.18,0-.46-.03-.65.24.03.49.03.78.03h1.86v-.78c0-.18,0-.37-.04-.63h.81c-.04.26-.05.45-.05.63Z"/>
      <path class="cls-15" d="M255.69,420.22c1.29-.82,2.32-2.06,2.81-3.1l.4.71c-.57,1.05-1.55,2.2-2.82,2.99-.84.53-1.9,1.04-3.3,1.31l-.45-.69c1.47-.22,2.56-.73,3.36-1.23ZM255.19,417.55l-.53.53c-.42-.44-1.47-1.34-2.09-1.76l.48-.51c.6.39,1.67,1.27,2.14,1.74Z"/>
      <path class="cls-15" d="M262.09,418.6l-.38.59c-.42-.3-1.33-.89-1.84-1.15l.38-.57c.5.27,1.48.87,1.84,1.13ZM263.08,420.61c1.39-.8,2.5-1.9,3.18-3.09l.4.7c-.73,1.13-1.89,2.21-3.24,3-.84.5-2,.88-2.78,1.04l-.39-.68c.92-.16,1.97-.5,2.82-.98ZM263.34,416.76l-.39.58c-.4-.31-1.32-.92-1.81-1.2l.38-.56c.5.28,1.46.92,1.83,1.18ZM265.89,417l-.48.22c-.21-.44-.49-.94-.76-1.33l.46-.19c.21.3.59.91.78,1.3ZM267.02,416.58l-.48.22c-.23-.45-.51-.92-.8-1.3l.47-.2c.23.29.6.9.81,1.29Z"/>
    </g>
    <rect class="cls-4" x="482.26" y="327.54" width="35.07" height="49.5"/>
    <line class="cls-4" x1="300.39" y1="285.08" x2="277.52" y2="285.08"/>
    <line class="cls-4" x1="300.39" y1="289.24" x2="277.52" y2="289.24"/>
    <line class="cls-4" x1="300.39" y1="293.4" x2="277.52" y2="293.4"/>
    <line class="cls-4" x1="300.39" y1="297.56" x2="277.52" y2="297.56"/>
    <line class="cls-4" x1="300.39" y1="301.72" x2="277.52" y2="301.72"/>
    <polyline class="cls-4" points="300.3 305.88 288.85 305.88 288.85 285.13"/>
    <line class="cls-4" x1="508.08" y1="327.54" x2="508.08" y2="316.1"/>
    <line class="cls-4" x1="503.95" y1="327.54" x2="503.95" y2="316.1"/>
    <line class="cls-4" x1="512.36" y1="327.54" x2="512.36" y2="316.1"/>
    <line class="cls-4" x1="508.08" y1="327.54" x2="508.08" y2="316.1"/>
    <line class="cls-4" x1="499.79" y1="327.54" x2="499.79" y2="316.1"/>
    <line class="cls-4" x1="495.63" y1="327.54" x2="495.63" y2="316.1"/>
    <line class="cls-4" x1="491.5" y1="327.54" x2="491.5" y2="316.1"/>
    <rect class="cls-11" x="275.63" y="409.35" width="24.67" height="18.65"/>
    <g>
      <rect class="cls-9" x="300.39" y="391.79" width="52.48" height="36.21"/>
      <g>
        <path class="cls-15" d="M316.54,403.8v8.39c0,1.03-.03,2.06-.48,2.95-.41.82-1.28,1.87-3.05,1.87-1.15,0-1.9-.41-2.29-.66l.97-1.67c.25.21.66.47,1.36.47.33,0,.97-.06,1.3-.88.12-.29.21-.76.21-2.08v-8.39s1.98,0,1.98,0Z"/>
        <path class="cls-15" d="M322.95,405.62h-2.25s1.09-1.83,1.09-1.83h3.15s0,12.96,0,12.96h-1.98s0-11.13,0-11.13Z"/>
        <path class="cls-15" d="M338.3,413.62h-5.54s-1.42,3.13-1.42,3.13h-2.14s6.44-13.72,6.44-13.72l6.14,13.71h-2.14s-1.36-3.12-1.36-3.12ZM337.51,411.75l-1.92-4.39-2,4.39h3.92Z"/>
      </g>
    </g>
    <g id="J1B_" data-name="J1B">
      <rect class="cls-9" x="352.87" y="391.79" width="52.48" height="36.21"/>
      <g>
        <path class="cls-13" d="M370.29,403.8v8.39c0,1.03-.03,2.06-.48,2.95-.41.82-1.28,1.87-3.05,1.87-1.15,0-1.9-.41-2.29-.66l.97-1.67c.25.21.66.47,1.36.47.33,0,.97-.06,1.3-.88.12-.29.21-.76.21-2.08v-8.39s1.98,0,1.98,0Z"/>
        <path class="cls-13" d="M376.7,405.62h-2.25s1.09-1.83,1.09-1.83h3.15s0,12.96,0,12.96h-1.98s0-11.13,0-11.13Z"/>
        <path class="cls-13" d="M386.39,403.79c1.67,0,2.72.21,3.57,1.01.7.66,1.03,1.5,1.03,2.56,0,.5-.08,1.03-.39,1.53-.29.5-.68.76-.97.89.23.06,1.03.27,1.67.93.7.74.86,1.63.86,2.43,0,.93-.23,1.67-.85,2.33-1.03,1.09-2.64,1.26-3.63,1.26h-3.24s0-12.95,0-12.95h1.96ZM386.41,409.37h.6c.49,0,1.15-.06,1.61-.51.45-.43.5-1.03.5-1.48,0-.39-.06-.85-.47-1.24-.45-.43-1.01-.49-1.57-.49h-.68v3.71ZM386.42,414.88h1.2c.56,0,1.46-.1,1.96-.51.39-.31.64-.85.64-1.44,0-.52-.2-1.03-.53-1.36-.54-.52-1.34-.58-2.04-.58h-1.24s0,3.89,0,3.89Z"/>
      </g>
    </g>
    <g id="J1UT">
      <rect class="cls-9" x="405.35" y="391.79" width="52.48" height="36.21"/>
      <g>
        <path class="cls-15" d="M417.37,403.8v8.39c0,1.03-.03,2.06-.48,2.95-.41.82-1.28,1.87-3.05,1.87-1.15,0-1.9-.41-2.29-.66l.97-1.67c.25.21.66.46,1.36.46.33,0,.97-.06,1.3-.88.12-.29.21-.76.21-2.08v-8.39s1.98,0,1.98,0Z"/>
        <path class="cls-15" d="M423.78,405.63h-2.25s1.09-1.83,1.09-1.83h3.15s0,12.95,0,12.95h-1.98s0-11.13,0-11.13Z"/>
        <path class="cls-15" d="M433.49,403.79v7.81c0,.7.02,1.55.41,2.23.39.66,1.26,1.34,2.41,1.34,1.15,0,2.02-.68,2.41-1.34.39-.68.41-1.54.41-2.23v-7.81s1.98,0,1.98,0v8.33c0,1.03-.21,2.27-1.2,3.36-.68.74-1.83,1.52-3.59,1.52s-2.91-.78-3.59-1.51c-.99-1.09-1.21-2.33-1.21-3.36v-8.33s1.98,0,1.98,0Z"/>
        <path class="cls-15" d="M447.81,405.65v11.09s-1.98,0-1.98,0v-11.09s-2.98,0-2.98,0v-1.86s7.92,0,7.92,0v1.86s-2.97,0-2.97,0Z"/>
      </g>
    </g>
    <g id="J1E">
      <rect class="cls-4" x="300.39" y="279.9" width="52.48" height="36.21"/>
      <g>
        <path class="cls-15" d="M318.06,291.9v8.39c0,1.03-.03,2.06-.48,2.95-.41.82-1.28,1.87-3.05,1.87-1.15,0-1.9-.41-2.29-.66l.97-1.67c.25.21.66.46,1.36.46.33,0,.97-.06,1.3-.88.12-.29.21-.76.21-2.08v-8.39s1.98,0,1.98,0Z"/>
        <path class="cls-15" d="M324.47,293.73h-2.25s1.09-1.83,1.09-1.83h3.15s0,12.96,0,12.96h-1.98s0-11.13,0-11.13Z"/>
        <path class="cls-15" d="M339.35,293.76h-5.17s0,3.29,0,3.29h5.01s0,1.86,0,1.86h-5.01s0,4.08,0,4.08h5.17s0,1.86,0,1.86h-7.15s0-12.95,0-12.95h7.15s0,1.86,0,1.86Z"/>
      </g>
    </g>
    <g id="J1D_" data-name="J1D">
      <rect class="cls-4" x="352.87" y="279.9" width="52.48" height="36.21"/>
      <g>
        <path class="cls-15" d="M369.14,291.9v8.39c0,1.03-.03,2.06-.48,2.95-.41.82-1.28,1.87-3.05,1.87-1.15,0-1.9-.41-2.29-.66l.97-1.67c.25.21.66.47,1.36.46.33,0,.97-.06,1.3-.87.12-.29.21-.76.21-2.08v-8.39s1.98,0,1.98,0Z"/>
        <path class="cls-15" d="M375.55,293.73h-2.25s1.09-1.83,1.09-1.83h3.15s0,12.95,0,12.95h-1.98s0-11.13,0-11.13Z"/>
        <path class="cls-15" d="M386,291.9c1.81,0,3.38.19,4.82,1.26,1.57,1.18,2.49,3.07,2.49,5.22,0,2.16-.89,4.02-2.6,5.23-1.51,1.07-2.93,1.24-4.74,1.25h-2.68s0-12.96,0-12.96h2.72ZM385.27,302.99h.85c.97,0,2.31-.08,3.44-.91.89-.68,1.77-1.92,1.77-3.69,0-1.71-.82-3.05-1.75-3.73-1.13-.81-2.51-.89-3.46-.89h-.85v9.23Z"/>
      </g>
    </g>
    <g id="J1C_" data-name="J1C">
      <rect class="cls-4" x="405.35" y="279.9" width="52.48" height="36.21"/>
      <g>
        <path class="cls-15" d="M421.85,291.91v8.39c0,1.03-.03,2.06-.48,2.95-.41.82-1.28,1.87-3.05,1.87-1.15,0-1.9-.41-2.29-.66l.97-1.67c.25.21.66.47,1.36.47.33,0,.97-.06,1.3-.88.12-.29.21-.76.21-2.08v-8.39s1.98,0,1.98,0Z"/>
        <path class="cls-15" d="M428.27,293.73h-2.25s1.09-1.83,1.09-1.83h3.15s0,12.96,0,12.96h-1.98s0-11.13,0-11.13Z"/>
        <path class="cls-15" d="M445.59,294.92c-1.44-1.3-2.78-1.44-3.52-1.44-2.82,0-4.72,2.08-4.72,4.94,0,2.74,1.98,4.86,4.74,4.85,1.55,0,2.76-.8,3.5-1.5v2.35c-1.3.78-2.66.97-3.55.97-2.35,0-3.83-1.07-4.58-1.79-1.52-1.42-2.08-3.07-2.08-4.89,0-2.39.99-4.04,2.08-5.07,1.34-1.26,2.89-1.69,4.68-1.69,1.18,0,2.33.21,3.46.93v2.33Z"/>
      </g>
    </g>
    <g>
      <path class="cls-15" d="M354.07,351.27v4.92h-.8v-.6h-3.02v3.41h-.81v-3.41h-3.01v.65h-.77v-4.97h3.77v-1.87h.81v1.87h3.82ZM349.45,354.82v-2.79h-3.01v2.79h3.01ZM353.27,354.82v-2.79h-3.02v2.79h3.02Z"/>
      <path class="cls-15" d="M365.02,356.02h-4.24v2.05c0,.46-.13.69-.5.81-.38.12-.98.13-1.93.13-.05-.22-.21-.55-.33-.75.8.02,1.51.02,1.71,0,.22,0,.27-.06.27-.22v-2.03h-4.21v-.73h4.21v-.76h.4c.52-.25,1.05-.59,1.48-.93h-4.34v-.69h5.13l.16-.04.5.38c-.65.67-1.63,1.33-2.55,1.78v.26h4.24v.73ZM356.75,353.46h-.75v-2.32h1.61c-.2-.39-.57-.92-.88-1.31l.65-.29c.39.43.82,1.03,1.01,1.43l-.36.18h2.15c-.13-.44-.46-1.07-.78-1.54l.68-.25c.36.49.71,1.17.85,1.61l-.45.18h1.86c.4-.48.86-1.18,1.12-1.67l.81.27c-.33.47-.71.98-1.07,1.4h1.63v2.32h-.76v-1.63h-7.33v1.63Z"/>
      <path class="cls-15" d="M369.38,355.69c-.18-.36-.59-1.05-.93-1.6v4.89h-.74v-4.89c-.36,1.15-.83,2.25-1.33,2.93-.08-.21-.27-.52-.4-.69.65-.88,1.33-2.52,1.65-3.96h-1.43v-.73h1.5v-2.25h.74v2.25h1.28v.73h-1.28v.8c.32.39,1.17,1.62,1.37,1.92l-.44.6ZM373.46,355.66c.62.86,1.61,1.76,2.4,2.23-.17.15-.42.42-.56.6-.73-.54-1.64-1.48-2.27-2.41v2.91h-.76v-2.79c-.68.98-1.67,1.87-2.59,2.39-.13-.19-.36-.46-.54-.61.98-.46,2.06-1.38,2.71-2.32h-1.75v-3.55h2.16v-.86h-2.49v-.66h2.49v-1.18h.76v1.18h2.51v.66h-2.51v.86h2.23v3.55h-1.8ZM370.82,353.59h1.45v-.89h-1.45v.89ZM370.82,355.06h1.45v-.9h-1.45v.9ZM373.03,352.7v.89h1.49v-.89h-1.49ZM374.52,354.16h-1.49v.9h1.49v-.9Z"/>
    </g>
    <polyline class="cls-8" points="217.84 270.58 217.84 428 281.82 428 281.82 428 453.33 428 482.12 428 482.12 377.03 517.33 377.03 517.33 316.1 457.83 316.1 457.83 279.9 281.82 279.9 242.13 279.9 242.13 270.58"/>
    <polyline class="cls-4" points="277.52 279.9 277.52 316.1 242.13 316.1"/>
    <g>
      <g>
        <path class="cls-15" d="M248.79,308.72c.31,0,.59.07.82.21.23.14.41.33.53.58.12.25.18.54.18.88v.37s-2.54,0-2.54,0c0,.42.12.74.32.96.21.22.49.33.86.33.24,0,.44-.02.63-.07.18-.04.37-.11.56-.19v.53c-.19.08-.38.14-.56.18-.18.04-.4.06-.66.06-.35,0-.67-.07-.93-.21-.27-.14-.48-.35-.63-.63s-.22-.63-.23-1.04c0-.41.07-.75.2-1.04.14-.29.33-.51.57-.67.25-.16.53-.23.86-.23ZM248.78,309.22c-.29,0-.52.09-.69.28-.17.19-.27.45-.3.78h1.89c0-.31-.08-.57-.22-.76-.14-.2-.37-.29-.68-.29Z"/>
        <path class="cls-15" d="M251.87,312.5h-.61s0-5.25,0-5.25h.61s0,5.25,0,5.25Z"/>
        <path class="cls-15" d="M254.47,308.72c.31,0,.59.07.82.21.23.14.41.33.53.58.12.25.18.54.18.88v.37s-2.54,0-2.54,0c0,.42.12.74.32.96.21.22.49.33.86.33.24,0,.44-.02.63-.07.18-.04.37-.11.56-.19v.53c-.19.08-.38.15-.56.18-.18.04-.4.06-.66.06-.35,0-.67-.07-.93-.21-.27-.14-.48-.35-.63-.63s-.22-.63-.23-1.04c0-.41.07-.75.2-1.04.14-.29.33-.51.57-.67.25-.16.53-.23.86-.23ZM254.46,309.22c-.29,0-.52.09-.69.28-.17.19-.27.45-.3.78h1.89c0-.31-.08-.57-.22-.77-.14-.2-.37-.29-.68-.29Z"/>
        <path class="cls-15" d="M257.62,312.49l-1.41-3.7h.65l.79,2.18c.04.1.08.21.12.34.04.12.08.25.11.36s.06.21.07.28h.03c.01-.07.04-.17.08-.29s.08-.24.12-.36c.04-.12.08-.23.12-.33l.79-2.18h.65s-1.41,3.71-1.41,3.71h-.7Z"/>
        <path class="cls-15" d="M261.72,308.72c.45,0,.79.1,1,.3s.33.51.33.95v2.52s-.44,0-.44,0l-.12-.53h-.03c-.16.2-.33.35-.51.45s-.42.15-.73.15c-.34,0-.62-.09-.84-.27-.22-.18-.33-.46-.33-.83,0-.37.14-.65.43-.85.29-.2.74-.31,1.34-.33l.63-.02v-.22c0-.31-.07-.52-.2-.64-.13-.12-.32-.18-.57-.18-.19,0-.38.03-.55.09-.17.06-.34.12-.49.2l-.19-.46c.16-.09.35-.16.57-.22.22-.06.45-.09.69-.09ZM262.44,310.68l-.55.02c-.46.02-.78.09-.96.22s-.27.31-.27.55c0,.21.06.36.19.46.13.1.29.14.49.14.31,0,.57-.09.78-.26s.31-.44.31-.8v-.33Z"/>
        <path class="cls-15" d="M265.43,312.06c.09,0,.19,0,.28-.02s.17-.03.24-.06v.46c-.06.03-.16.06-.28.08-.12.02-.24.03-.35.03-.19,0-.37-.03-.54-.1-.16-.07-.3-.18-.4-.35-.1-.17-.15-.4-.15-.7v-2.16h-.53v-.29l.53-.24.24-.79h.36v.85s1.07,0,1.07,0v.47h-1.07s0,2.14,0,2.14c0,.23.05.39.16.5.11.11.25.16.42.16Z"/>
        <path class="cls-15" d="M269.91,310.63c0,.61-.16,1.09-.47,1.42s-.73.5-1.26.5c-.33,0-.62-.08-.88-.22-.26-.15-.46-.37-.61-.66s-.22-.64-.22-1.05c0-.61.15-1.09.46-1.42.31-.33.73-.5,1.26-.5.33,0,.63.08.88.22s.46.37.61.65c.14.28.22.63.22,1.04ZM267.11,310.63c0,.44.09.78.26,1.04.17.25.45.38.83.38s.65-.13.82-.38c.18-.26.26-.6.26-1.04,0-.44-.09-.78-.26-1.03-.17-.25-.45-.37-.83-.37s-.65.12-.82.37c-.17.25-.25.59-.25,1.03Z"/>
        <path class="cls-15" d="M272.6,308.71c.07,0,.14,0,.22,0s.15.02.21.03l-.08.56c-.06-.01-.13-.03-.2-.04-.07,0-.14-.01-.2-.01-.19,0-.37.05-.53.16-.17.1-.3.25-.4.44-.1.19-.15.41-.15.65v1.98s-.61,0-.61,0v-3.71s.5,0,.5,0l.07.68h.03c.11-.2.27-.38.46-.53s.42-.22.67-.22Z"/>
      </g>
      <g>
        <path class="cls-15" d="M256.28,296.69c.37,0,.67-.3.67-.67s-.3-.67-.67-.67-.67.3-.67.67.3.67.67.67"/>
        <polygon class="cls-15" points="255.82 299.35 255.59 297.66 256.95 297.66 256.7 299.35 257.46 299.35 257.79 296.94 254.75 296.94 255.09 299.35 255.82 299.35"/>
        <polygon class="cls-15" points="256.27 299.61 255.34 299.61 254.67 303.33 255.62 303.33 256.27 299.61"/>
        <polygon class="cls-15" points="256.27 299.61 256.92 303.33 257.87 303.33 257.2 299.61 256.27 299.61"/>
        <path class="cls-15" d="M259.57,296.69c.37,0,.67-.3.67-.67s-.3-.67-.67-.67-.67.3-.67.67.3.67.67.67"/>
        <polygon class="cls-15" points="259.12 299.35 258.88 297.66 260.24 297.66 259.99 299.35 260.75 299.35 261.08 296.94 258.05 296.94 258.39 299.35 259.12 299.35"/>
        <polygon class="cls-15" points="259.57 299.61 258.63 299.61 257.97 303.33 258.91 303.33 259.57 299.61"/>
        <polygon class="cls-15" points="259.57 299.61 260.22 303.33 261.16 303.33 260.5 299.61 259.57 299.61"/>
        <path class="cls-15" d="M262.87,296.69c.37,0,.67-.3.67-.67s-.3-.67-.67-.67-.67.3-.67.67.3.67.67.67"/>
        <polygon class="cls-15" points="262.41 299.35 262.18 297.66 263.54 297.66 263.29 299.35 264.04 299.35 264.37 296.94 261.34 296.94 261.68 299.35 262.41 299.35"/>
        <polygon class="cls-15" points="262.86 299.61 261.93 299.61 261.26 303.33 262.21 303.33 262.86 299.61"/>
        <polygon class="cls-15" points="262.86 299.61 263.51 303.33 264.46 303.33 263.79 299.61 262.86 299.61"/>
        <path class="cls-15" d="M252.71,305.73h13.74v-13.74h-13.74v13.74ZM264.99,304.28h-10.84v-10.84h10.84v10.84Z"/>
        <polygon class="cls-15" points="262.23 291.27 263.69 291.27 263.69 286.24 265.96 288.51 265.96 286.46 262.96 283.46 259.96 286.46 259.96 288.51 262.23 286.24 262.23 291.27"/>
        <polygon class="cls-15" points="258.99 288.27 258.99 286.22 256.72 288.49 256.72 283.46 255.27 283.46 255.27 288.49 252.99 286.22 252.99 288.27 255.99 291.27 258.99 288.27"/>
      </g>
    </g>
    <line class="cls-4" x1="217.84" y1="270.58" x2="217.84" y2="223.66"/>
    <line class="cls-4" x1="242.13" y1="270.58" x2="242.13" y2="223.66"/>
    <g>
      <path class="cls-18" d="M245.59,219.68c1.15,0,2.16.12,3.07.8,1,.76,1.59,1.96,1.59,3.33,0,1.38-.57,2.57-1.66,3.33-.97.68-1.87.79-3.02.79h-1.71v-8.26s1.73,0,1.73,0ZM245.13,226.76h.55c.62,0,1.47-.05,2.19-.58.57-.43,1.13-1.23,1.13-2.35,0-1.09-.52-1.95-1.12-2.38-.72-.52-1.6-.57-2.21-.57h-.55v5.89Z"/>
      <path class="cls-18" d="M253.96,222.08c-.21.62-.46,1.39-.7,2.01.51.62.63,1.17.63,1.63,0,.4-.08.72-.28.87-.1.08-.23.11-.37.14-.14.01-.31.01-.47,0,0-.14-.06-.35-.15-.5.16,0,.3.01.4,0,.1,0,.18-.02.24-.05.11-.09.15-.31.15-.53,0-.4-.13-.92-.63-1.51.2-.56.4-1.24.56-1.75h-.92s0,6.13,0,6.13h-.5v-6.64s1.62,0,1.62,0l.08-.02.37.22ZM256.13,224.31c-.75.19-1.54.4-2.15.54l-.15-.48c.15-.03.31-.06.5-.1v-2.62s.51,0,.51,0v.92s1.18,0,1.18,0v.47h-1.18v1.12c.4-.09.82-.19,1.25-.29l.05.44ZM256.4,224.68c-.08.22-.18.45-.26.65h2s0,3.14,0,3.14h-.55s0-.25,0-.25h-2.61s0,.28,0,.28h-.52v-3.17s1.13,0,1.13,0c.09-.25.19-.55.24-.77l.56.12ZM257.59,225.81h-2.61s0,.73,0,.73h2.61s0-.73,0-.73ZM257.59,227.74v-.76h-2.61s0,.76,0,.76h2.61ZM257.85,224.25c.18,0,.23-.09.24-.72.11.08.32.17.47.21-.06.79-.21.98-.66.98h-.85c-.57,0-.7-.14-.7-.7v-2.37s.51,0,.51,0v1.12c.44-.19.88-.44,1.14-.66l.4.37c-.43.28-1.01.54-1.54.73v.79c0,.2.03.23.25.23h.74Z"/>
      <path class="cls-18" d="M260.29,227.22v1.3s-.53,0-.53,0v-1.2s-.53.09-.53.09l-.1-.55.63-.1v-4.63s.3.11.3.11c.68-.18,1.39-.44,1.8-.67l.49.4c-.56.27-1.34.51-2.06.69v.88h1.75s0,.52,0,.52h-1.75s0,.93,0,.93h1.82s0,.53,0,.53h-1.82s0,1.16,0,1.16c.62-.1,1.33-.22,2.01-.34l.03.53-2.04.37ZM265.82,225.04c-.27.9-.71,1.61-1.27,2.16.47.37,1.02.65,1.67.82-.14.11-.3.34-.37.49-.66-.21-1.24-.52-1.72-.94-.58.44-1.24.75-1.96.96-.06-.15-.2-.37-.31-.5.68-.18,1.33-.46,1.87-.86-.41-.46-.73-1.01-.97-1.64l.37-.1h-.69s0-.52,0-.52h2.92s.11-.02.11-.02l.36.14ZM263.39,222.96c0,.62-.15,1.37-.92,1.85-.07-.11-.27-.31-.38-.39.68-.42.77-.97.77-1.47v-1.08s2.25,0,2.25,0v1.87c0,.14,0,.22.05.25.03.02.07.03.12.03h.22c.06,0,.13,0,.16-.02.04-.02.07-.08.08-.17.02-.11.03-.34.03-.65.1.08.29.18.43.21-.01.3-.04.64-.08.76-.05.13-.12.21-.23.25-.08.05-.24.08-.36.08h-.39c-.14,0-.32-.04-.42-.14-.11-.09-.15-.22-.15-.64v-1.33h-1.2v.59ZM263.25,225.44c.21.53.5,1,.89,1.4.4-.39.73-.85.96-1.4h-1.85Z"/>
    </g>
    <g>
      <g>
        <path class="cls-17" d="M501.73,338.7c0,1.07-.87,1.94-1.94,1.94s-1.93-.87-1.93-1.94.87-1.94,1.93-1.94,1.94.87,1.94,1.94"/>
        <polygon class="cls-17" points="504.37 359.76 502.47 349 499.79 349 501.69 359.76 504.37 359.76"/>
        <polygon class="cls-17" points="495.38 341.34 496.36 348.3 498.5 348.3 497.82 343.45 501.76 343.45 501.08 348.3 503.21 348.3 504.2 341.34 495.38 341.34"/>
        <polygon class="cls-17" points="495.21 359.76 497.11 349 499.79 349 497.89 359.76 495.21 359.76"/>
      </g>
      <g>
        <path class="cls-15" d="M492.32,364.59v3.33s-.69,0-.69,0v-3.33h-.42v-.63h.42v-1.43s.69,0,.69,0v1.43h.69v.63h-.69Z"/>
        <path class="cls-15" d="M493.41,365.96c0-1.2.89-2.09,2.1-2.09,1.21,0,2.1.89,2.1,2.09,0,1.2-.9,2.08-2.1,2.08-1.2,0-2.1-.88-2.1-2.08ZM494.12,365.96c0,.97.69,1.47,1.39,1.47.72,0,1.39-.51,1.39-1.47,0-.97-.67-1.48-1.4-1.48-.73,0-1.39.52-1.39,1.48Z"/>
        <path class="cls-15" d="M499,361.97c.27,0,.49.22.49.49s-.22.49-.49.49-.49-.22-.49-.49.22-.49.49-.49ZM499.35,363.96v3.96s-.69,0-.69,0v-3.96s.69,0,.69,0Z"/>
        <path class="cls-15" d="M501.33,360.96v6.96s-.68,0-.68,0v-6.96s.68,0,.68,0Z"/>
        <path class="cls-15" d="M506.15,366.9c-.12.22-.29.46-.49.64-.36.32-.81.49-1.32.49-.96,0-1.96-.6-1.96-2.07,0-1.18.72-2.1,1.92-2.1.77,0,1.26.38,1.5.73.25.35.39.96.37,1.49h-3.08c0,.82.57,1.35,1.26,1.35.32,0,.58-.09.81-.29.18-.15.33-.35.41-.54l.57.31ZM505.47,365.5c-.11-.62-.58-1.03-1.17-1.03-.58,0-1.06.44-1.17,1.03h2.33Z"/>
        <path class="cls-15" d="M507.93,364.58v3.33s-.69,0-.69,0v-3.33h-.42v-.63h.42v-1.43s.69,0,.69,0v1.43s.69,0,.69,0v.63h-.69Z"/>
      </g>
    </g>
    <g>
      <g>
        <path class="cls-15" d="M10.06,36.74v3.45s-.71,0-.71,0v-3.45s-.44,0-.44,0v-.65h.43s0-1.48,0-1.48h.71v1.48s.71,0,.71,0v.65h-.71Z"/>
        <path class="cls-15" d="M11.19,38.16c0-1.24.92-2.16,2.17-2.16,1.25,0,2.17.92,2.17,2.16,0,1.24-.93,2.15-2.17,2.15-1.24,0-2.17-.91-2.17-2.15ZM11.92,38.16c0,1.01.71,1.52,1.44,1.52.74,0,1.44-.52,1.44-1.52,0-1.01-.69-1.53-1.44-1.53-.75,0-1.44.53-1.44,1.53Z"/>
        <path class="cls-15" d="M16.97,34.04c.28,0,.5.23.5.5s-.23.5-.5.5c-.28,0-.5-.23-.5-.5s.23-.5.5-.5ZM17.33,36.09v4.1s-.71,0-.71,0v-4.1s.71,0,.71,0Z"/>
        <path class="cls-15" d="M19.38,32.99v7.2s-.71,0-.71,0v-7.2s.71,0,.71,0Z"/>
        <path class="cls-15" d="M24.36,39.14c-.12.23-.3.47-.5.66-.37.34-.84.5-1.36.5-.99,0-2.02-.62-2.02-2.14,0-1.22.75-2.17,1.98-2.17.8,0,1.3.39,1.55.75.26.36.4,1,.39,1.54h-3.19c.01.85.59,1.39,1.3,1.39.34,0,.6-.1.84-.3.19-.16.34-.37.42-.56l.59.33ZM23.66,37.69c-.12-.64-.6-1.07-1.21-1.07s-1.1.45-1.2,1.07h2.41Z"/>
        <path class="cls-15" d="M26.2,36.74v3.45s-.71,0-.71,0v-3.45h-.44v-.65h.43v-1.48s.71,0,.71,0v1.48h.71v.65h-.71Z"/>
      </g>
      <g>
        <path class="cls-16" d="M17.78,11.8c1.12,0,2.02-.9,2.02-2.02s-.91-2.02-2.02-2.02-2.02.9-2.02,2.02.91,2.02,2.02,2.02"/>
        <path class="cls-16" d="M24.8,22.44l-1.42-1.7-2.9-3.46.84-4.75h-2.24l-.95,5.38,3.25,3.87c-1.11.43-2.32.67-3.59.67s-2.47-.24-3.59-.67l3.25-3.87-.95-5.38h-2.24l.84,4.75-2.9,3.46-1.43,1.7c1.43,1.02,3.09,1.72,4.89,2.04l1.02,7.27h2.2l1.02-7.27c1.8-.32,3.46-1.02,4.89-2.04"/>
      </g>
    </g>
    <g>
      <rect class="cls-9" x="12.74" y="56.23" width="10.24" height="1.23"/>
      <polyline class="cls-2" points="14.04 56.23 14.52 54.13 21.17 54.13 21.68 56.23"/>
      <polyline class="cls-2" points="21.79 57.46 21.29 65.26 14.46 65.26 13.93 57.46"/>
      <line class="cls-9" x1="16.11" y1="58.39" x2="16.11" y2="63.98"/>
      <line class="cls-9" x1="17.86" y1="58.39" x2="17.86" y2="63.98"/>
      <line class="cls-9" x1="19.69" y1="58.39" x2="19.69" y2="63.98"/>
      <line class="cls-2" x1="12.94" y1="56.03" x2="12.94" y2="57.67"/>
      <line class="cls-2" x1="22.75" y1="56.03" x2="22.75" y2="57.67"/>
    </g>
    <g>
      <rect class="cls-9" x="199.37" y="195.12" width="10.24" height="1.23"/>
      <polyline class="cls-2" points="200.67 195.12 201.16 193.02 207.8 193.02 208.31 195.12"/>
      <polyline class="cls-2" points="208.42 196.35 207.93 204.15 201.09 204.15 200.56 196.35"/>
      <line class="cls-9" x1="202.74" y1="197.28" x2="202.74" y2="202.86"/>
      <line class="cls-9" x1="204.49" y1="197.28" x2="204.49" y2="202.86"/>
      <line class="cls-9" x1="206.32" y1="197.28" x2="206.32" y2="202.86"/>
      <line class="cls-2" x1="199.58" y1="194.91" x2="199.58" y2="196.55"/>
      <line class="cls-2" x1="209.38" y1="194.91" x2="209.38" y2="196.55"/>
    </g>
    <g>
      <rect class="cls-9" x="468.52" y="350.74" width="10.24" height="1.23"/>
      <polyline class="cls-2" points="469.82 350.74 470.31 348.64 476.95 348.64 477.46 350.74"/>
      <polyline class="cls-2" points="477.57 351.97 477.07 359.77 470.24 359.77 469.71 351.97"/>
      <line class="cls-9" x1="471.89" y1="352.9" x2="471.89" y2="358.48"/>
      <line class="cls-9" x1="473.64" y1="352.9" x2="473.64" y2="358.48"/>
      <line class="cls-9" x1="475.47" y1="352.9" x2="475.47" y2="358.48"/>
      <line class="cls-2" x1="468.72" y1="350.53" x2="468.72" y2="352.17"/>
      <line class="cls-2" x1="478.53" y1="350.53" x2="478.53" y2="352.17"/>
    </g>
    <g>
      <line class="cls-6" x1="211.73" y1="199.17" x2="230.1" y2="199.26"/>
      <line class="cls-7" x1="211.73" y1="199.17" x2="230.1" y2="199.26"/>
    </g>
  </g>
</svg>